{
.appVersion = "3105";
.formatVersion = 3;
DisplayStrings = (
"MMNNƏƏƏWWaaææbbbbbceeeeeeeʒʒffgghhmmnnooœœrssuuvvvwww/g.sc/g.sc/m.sc/m.sc/n.sc/n.sc ªºº33566689/three.dnom/five.dnom/six.dnom ›››ƒƒ@@@∫∫̸̸",
"abcdeghmnohbpqrsuCGOQSU2568903/two.tf/five.tf/six.tf/eight.tf/nine.tf/zero.tf/three.tf/two.dnom/five.dnom/six.dnom/eight.dnom/nine.dnom/zero.dnom/three.dnom @&$/c.sc/g.sc/o.sc/q.sc/s.sc/u.sc"
);
axes = (
{
name = Weight;
tag = wght;
},
{
name = Width;
tag = wdth;
}
);
classes = (
{
code = "g gbreve gcaron gcircumflex gdotaccent gdotaccent gstroke q
";
name = Decender_right;
},
{
code = j.short;
name = j_short;
},
{
code = "j jcircumflex 
";
name = j;
}
);
customParameters = (
{
name = "Use Typo Metrics";
value = 1;
},
{
name = fsType;
value = (
);
},
{
name = "Write lastChange";
value = 0;
},
{
name = "Use Line Breaks";
value = 1;
},
{
name = "Has WWS Names";
value = 1;
},
{
name = "Axis Mappings";
value = {
wdth = {
300 = 75;
400 = 87.5;
500 = 100;
};
wght = {
30 = 100;
39 = 200;
53 = 300;
71 = 400;
96 = 500;
116 = 600;
141 = 700;
166 = 800;
188 = 900;
};
};
},
{
name = blueScale;
value = 0.06196;
},
{
name = "Use Line Breaks";
value = 1;
},
{
name = "Variable Font Origin";
value = "DCBE1F7B-116A-43E0-B7B4-8657BA77D8B5";
},
{
name = "Get Hints From Master";
value = "4E2227F3-52E4-4048-A8EE-327B486EF0A4";
}
);
date = "2021-10-10 07:15:54 +0000";
familyName = Barlow;
featurePrefixes = (
{
automatic = 1;
code = "languagesystem DFLT dflt;

languagesystem latn dflt;
languagesystem latn AZE;
languagesystem latn CRT;
languagesystem latn KAZ;
languagesystem latn TAT;
languagesystem latn TRK;
languagesystem latn CAT;
";
name = Languagesystems;
}
);
features = (
{
automatic = 1;
code = "feature locl;
feature sups;
feature numr;
feature dnom;
feature frac;
feature ordn;
feature pnum;
feature tnum;
feature c2sc;
feature smcp;
feature case;
feature ss01;
feature calt;
";
tag = aalt;
},
{
automatic = 1;
code = "lookup ccmp_Other_1 {

glyphs = (
{
glyphname = A;
kernLeft = KO_A;
kernRight = KO_A;
layers = (
{
anchors = (
{
name = bottom;
pos = (275,0);
},
{
name = ogonek;
pos = (503,0);
},
{
name = top;
pos = (274,700);
}
);
layerId = "262880E7-CFE1-4BDA-902E-E24798F3240A";
shapes = (
{
closed = 1;
nodes = (
(54,0,l),
(277,680,l),
(271,680,l),
(496,0,l),
(518,0,l),
(285,700,l),
(263,700,l),
(32,0,l)
);
},
{
closed = 1;
nodes = (
(451,155,l),
(451,176,l),
(100,176,l),
(100,155,l)
);
}
);
width = 550;
},
{
anchors = (
{
name = bottom;
pos = (253,0);
},
{
name = ogonek;
pos = (432,0);
},
{
name = top;
pos = (253,700);
}
);
hints = (
{
horizontal = 1;
origin = (0,3,1,0);
stem = -1;
target = (0,3,1,2);
type = TTStem;
},
{
horizontal = 1;
origin = (0,7);
type = TTSnap;
},
{
horizontal = 1;
origin = (0,7);
target = up;
type = BottomGhost;
},
{
horizontal = 1;
origin = (1,3);
target = (1,2);
type = Stem;
},
{
horizontal = 1;
origin = (0,6);
target = down;
type = TopGhost;
},
{
horizontal = 1;
origin = (0,6);
type = TTSnap;
}
);
layerId = "4E2227F3-52E4-4048-A8EE-327B486EF0A4";
shapes = (
{
closed = 1;
nodes = (
(187,0,l),
(258,520,l),
(238,520,l),
(314,0,l),
(506,0,l),
(358,700,l),
(148,700,l),
(-1,0,l)
);
},
{
closed = 1;
nodes = (
(386,95,l),
(386,239,l),
(116,239,l),
(116,95,l)
);
}
);
width = 505;
},
{
anchors = (
{
name = bottom;
pos = (340,0);
},
{
name = ogonek;
pos = (601,0);
},
{
name = top;
pos = (338,700);
}
);
layerId = "FFFA8D72-12AC-4CE0-B2CA-57A29829F4DA";
shapes = (
{
closed = 1;
nodes = (
(203,0,l),
(350,520,l),
(327,520,l),
(477,0,l),
(679,0,l),
(459,700,l),
(221,700,l),
(1,0,l)
);
},
{
closed = 1;
nodes = (
(506,95,l),
(506,239,l),
(171,239,l),
(171,95,l)
);
}
);
width = 680;
},
{
anchors = (
{
name = bottom;
pos = (193,0);
},
{
name = ogonek;
pos = (348,0);
},
{
name = top;
pos = (192,700);
}
);
layerId = "DCBE1F7B-116A-43E0-B7B4-8657BA77D8B5";
shapes = (
{
closed = 1;
nodes = (
(45,0,l),
(194,671,l),
(190,671,l),
(340,0,l),
(362,0,l),
(203,700,l),
(180,700,l),
(23,0,l)
);
},
{
closed = 1;
nodes = (
(317,155,l),
(317,176,l),
(71,176,l),
(71,155,l)
);
}
);
width = 384;
}
);
unicode = 65;
userData = {
KernOnName = A;
};
},
{
glyphname = AE;
kernLeft = KO_A;
kernRight = KO_E;
layers = (
{
layerId = "262880E7-CFE1-4BDA-902E-E24798F3240A";
shapes = (
{
closed = 1;
nodes = (
(38,0,l),
(406,684,l),
(406,0,l),
(797,0,l),
(797,21,l),
(428,21,l),
(428,679,l),
(797,679,l),
(797,700,l),
(392,700,l),
(13,0,l)
);
},
{
closed = 1;
nodes = (
(419,155,l),
(419,176,l),
(118,176,l),
(113,155,l)
);
},
{
closed = 1;
nodes = (
(688,340,l),
(688,361,l),
(417,361,l),
(417,340,l)
);
}
);
width = 841;
},
{
layerId = "FFFA8D72-12AC-4CE0-B2CA-57A29829F4DA";
shapes = (
{
closed = 1;
nodes = (
(198,0,l),
(425,483,l),
(425,0,l),
(935,0,l),
(935,161,l),
(613,161,l),
(613,539,l),
(935,539,l),
(935,700,l),
(335,700,l),
(-9,0,l)
);
},
{
closed = 1;
nodes = (
(460,95,l),
(478,239,l),
(143,239,l),
(105,95,l)
);
},
{
closed = 1;
nodes = (
(821,275,l),
(821,435,l),
(501,435,l),
(501,275,l)
);
}
);
width = 959;
},
{
layerId = "DCBE1F7B-116A-43E0-B7B4-8657BA77D8B5";
shapes = (
{
closed = 1;
nodes = (
(31,0,l),
(327,660,l),
(326,0,l),
(609,0,l),
(609,21,l),
(349,21,l),
(349,679,l),
(609,679,l),
(609,700,l),
(325,700,l),
(9,0,l)
);
},
{
closed = 1;
nodes = (
(338,155,l),
(343,176,l),
(97,176,l),
(92,155,l)
);
},
{
closed = 1;
nodes = (
(526,340,l),
(526,361,l),
(338,361,l),
(338,340,l)
);
}
);
width = 637;
},
{
hints = (
{
horizontal = 1;
origin = (0,10);
type = TTSnap;
},
{
horizontal = 1;
options = 4;
origin = (0,10);
target = (0,2);
type = TTShift;
},
{
horizontal = 1;
origin = (0,9);
type = TTSnap;
},
{
horizontal = 1;
origin = (2,0);
stem = -1;
target = (2,1);
type = TTStem;
},
{
horizontal = 1;
origin = (0,2,1,0);
stem = -1;
target = (0,2,1,2);
type = TTStem;
},
{
horizontal = 1;
origin = (0,3);
stem = -1;
target = (0,4);
type = TTStem;
},
{
horizontal = 1;
origin = (0,10);
target = (0,5);
type = Stem;
},
{
horizontal = 1;
origin = (2,3);
target = (2,2);
type = Stem;
},
{
horizontal = 1;
origin = (0,9);
target = (0,6);
type = Stem;
},
{
horizontal = 1;
origin = (1,3);
target = (1,2);
type = Stem;
},
{
origin = (0,2);
target = (0,5);
type = Stem;
}
);
layerId = "4E2227F3-52E4-4048-A8EE-327B486EF0A4";
shapes = (
{
closed = 1;
nodes = (
(186,0,l),
(351,468,l),
(351,0,l),
(751,0,l),
(751,161,l),
(539,161,l),
(539,539,l),
(751,539,l),
(751,700,l),
(269,700,l),
(-12,0,l)
);
},
{
closed = 1;
nodes = (
(438,95,l),
(438,239,l),
(168,239,l),
(168,95,l)
);
},
{
closed = 1;
nodes = (
(659,270,l),
(659,431,l),
(427,431,l),
(427,270,l)
);
}
);
width = 765;
}
);
unicode = 198;
},
{
glyphname = B;
kernLeft = KO_l;
kernRight = KO_S;
layers = (
{
layerId = "262880E7-CFE1-4BDA-902E-E24798F3240A";
shapes = (
{
closed = 1;
nodes = (
(338,0,ls),
(452,0,o),
(527,74,o),
(527,186,cs),
(527,275,o),
(477,342,o),
(398,364,c),
(398,360,l),
(473,382,o),
(520,442,o),
(520,523,cs),
(520,629,o),
(445,700,o),
(332,700,cs),
(100,700,l),
(100,0,l)
);
},
{
closed = 1;
nodes = (
(122,352,l),
(332,352,ls),
(436,352,o),
(505,286,o),
(505,186,cs),
(505,88,o),
(438,22,o),
(338,22,cs),
(122,22,l)
);
},
{
closed = 1;
nodes = (
(122,679,l),
(332,679,ls),
(432,679,o),
(498,617,o),
(498,523,cs),
(498,433,o),
(432,373,o),
(332,373,cs),
(122,373,l)
);
}
);
width = 597;
},
{
hints = (
{
horizontal = 1;
origin = (0,13);
stem = -1;
target = (2,1);
type = TTStem;
},
{
horizontal = 1;
origin = (0,0);
stem = -1;
target = (1,7);
type = TTStem;
},
{
horizontal = 1;
origin = (0,14);
type = TTSnap;
},
{
horizontal = 1;
origin = (0,15);
type = TTSnap;
},
{
horizontal = 1;
origin = (0,15);
target = (1,8);
type = Stem;
},
{
horizontal = 1;
origin = (1,0);
target = (2,8);
type = Stem;
},
{
horizontal = 1;
origin = (0,14);
target = (2,0);
type = Stem;
},
{
origin = (0,15);
target = (1,8);
type = Stem;
},
{
origin = (1,4);
target = (0,3);
type = Stem;
},
{
origin = (2,4);
target = (0,10);
type = Stem;
},
{
horizontal = 1;
options = 4;
origin = (2,1);
other1 = (1,1);
target = (1,7);
type = TTInterpolate;
}
);
layerId = "4E2227F3-52E4-4048-A8EE-327B486EF0A4";
shapes = (
{
closed = 1;
nodes = (
(256,0,ls),
(375,0,o),
(474,65,o),
(472,201,cs),
(471,297,o),
(422,354,o),
(357,384,c),
(352,339,l),
(423,367,o),
(458,417,o),
(458,503,cs),
(458,640,o),
(365,700,o),
(226,700,cs),
(30,700,l),
(30,0,l)
);
},
{
closed = 1;
nodes = (
(218,293,l),
(242,293,ls),
(267,293,o),
(284,266,o),
(284,225,cs),
(284,182,o),
(266,161,o),
(241,161,cs),
(218,161,l)
);
},
{
closed = 1;
nodes = (
(218,539,l),
(229,539,ls),
(259,539,o),
(274,520,o),
(274,483,cs),
(274,447,o),
(259,427,o),
(229,427,cs),
(218,427,l)
);
}
);
width = 494;
},
{
layerId = "FFFA8D72-12AC-4CE0-B2CA-57A29829F4DA";
shapes = (
{
closed = 1;
nodes = (
(324,0,ls),
(466,0,o),
(583,55,o),
(583,200,cs),
(583,293,o),
(538,353,o),
(437,382,c),
(439,342,l),
(526,365,o),
(572,414,o),
(572,502,cs),
(572,650,o),
(478,700,o),
(315,700,cs),
(40,700,l),
(40,0,l)
);
},
{
closed = 1;
nodes = (
(228,276,l),
(325,276,ls),
(371,276,o),
(395,257,o),
(395,220,cs),
(395,181,o),
(371,161,o),
(324,161,cs),
(228,161,l)
);
},
{
closed = 1;
nodes = (
(228,539,l),
(315,539,ls),
(363,539,o),
(388,520,o),
(388,484,cs),
(388,448,o),
(363,429,o),
(315,429,cs),
(228,429,l)
);
}
);
width = 609;
},
{
layerId = "DCBE1F7B-116A-43E0-B7B4-8657BA77D8B5";
shapes = (
{
closed = 1;
nodes = (
(206,0,ls),
(309,0,o),
(370,69,o),
(370,186,cs),
(370,280,o),
(332,342,o),
(264,364,c),
(264,360,l),
(331,381,o),
(369,437,o),
(369,523,cs),
(369,635,o),
(308,700,o),
(205,700,cs),
(69,700,l),
(69,0,l)
);
},
{
closed = 1;
nodes = (
(91,352,l),
(205,352,ls),
(295,352,o),
(348,291,o),
(348,186,cs),
(348,83,o),
(295,22,o),
(205,22,cs),
(91,22,l)
);
},
{
closed = 1;
nodes = (
(91,679,l),
(205,679,ls),
(294,679,o),
(347,621,o),
(347,523,cs),
(347,429,o),
(294,373,o),
(205,373,cs),
(91,373,l)
);
}
);
width = 422;
}
);
unicode = 66;
userData = {
KernOnName = B;
};
},
{
glyphname = C;
kernLeft = KO_C;
kernRight = KO_S;
layers = (
{
anchors = (
{
name = bottom;
pos = (270,-9);
},
{
name = top;
pos = (306,700);
}
);
layerId = "262880E7-CFE1-4BDA-902E-E24798F3240A";
shapes = (
{
closed = 1;
nodes = (
(436,-9,o),
(523,74,o),
(523,198,cs),
(523,207,l),
(501,208,l),
(501,196,ls),
(501,86,o),
(423,12,o),
(306,12,cs),
(188,12,o),
(110,86,o),
(110,196,cs),
(110,504,ls),
(110,614,o),
(188,687,o),
(306,687,cs),
(423,687,o),
(501,614,o),
(501,504,cs),
(501,491,l),
(523,492,l),
(523,503,ls),
(523,626,o),
(436,708,o),
(306,708,cs),
(175,708,o),
(88,626,o),
(88,503,cs),
(88,198,ls),
(88,74,o),
(175,-9,o),
(306,-9,cs)
);
}
);
width = 601;
},
{
anchors = (
{
name = bottom;
pos = (248,-8);
},
{
name = top;
pos = (248,700);
}
);
hints = (
{
horizontal = 1;
origin = (0,24);
stem = -1;
target = (0,15);
type = TTStem;
},
{
horizontal = 1;
origin = (0,31);
stem = -1;
target = (0,8);
type = TTStem;
},
{
horizontal = 1;
origin = (0,24);
type = TTSnap;
},
{
horizontal = 1;
origin = (0,31);
type = TTSnap;
},
{
horizontal = 1;
place = (473.5, 234.5);
place = (473.5, 234.5);
type = Stem;
},
{
horizontal = 1;
origin = (0,31);
target = (0,8);
type = Stem;
},
{
horizontal = 1;
origin = (0,24);
target = (0,15);
type = Stem;
},
{
origin = (0,28);
target = (0,11);
type = Stem;
},
{
origin = (0,5);
target = (0,2);
type = Stem;
}
);
layerId = "4E2227F3-52E4-4048-A8EE-327B486EF0A4";
shapes = (
{
closed = 1;
nodes = (
(379,-10,o),
(467,73,o),
(467,203,cs),
(467,222,l),
(279,229,l),
(279,187,ls),
(279,165,o),
(267,151,o),
(248,151,cs),
(229,151,o),
(217,165,o),
(217,187,cs),
(217,511,ls),
(217,533,o),
(229,548,o),
(248,548,cs),
(267,548,o),
(279,533,o),
(279,511,cs),
(279,471,l),
(467,478,l),
(467,498,ls),
(467,628,o),
(379,709,o),
(248,709,cs),
(116,709,o),
(29,628,o),
(29,498,cs),
(29,203,ls),
(29,73,o),
(116,-10,o),
(248,-10,cs)
);
}
);
width = 491;
},
{
anchors = (
{
name = bottom;
pos = (288,-8);
},
{
name = top;
pos = (308,700);
}
);
layerId = "FFFA8D72-12AC-4CE0-B2CA-57A29829F4DA";
shapes = (
{
closed = 1;
nodes = (
(474,-12,o),
(584,85,o),
(584,231,cs),
(584,240,l),
(396,250,l),
(396,238,ls),
(396,185,o),
(361,149,o),
(308,149,cs),
(255,149,o),
(220,185,o),
(220,238,cs),
(220,461,ls),
(220,515,o),
(255,551,o),
(308,551,cs),
(361,551,o),
(396,515,o),
(396,461,cs),
(396,449,l),
(584,461,l),
(584,471,ls),
(584,616,o),
(474,712,o),
(308,712,cs),
(142,712,o),
(32,610,o),
(32,456,cs),
(32,246,ls),
(32,91,o),
(142,-12,o),
(308,-12,cs)
);
}
);
width = 612;
},
{
anchors = (
{
name = bottom;
pos = (211,-8);
},
{
name = top;
pos = (211,700);
}
);
layerId = "DCBE1F7B-116A-43E0-B7B4-8657BA77D8B5";
shapes = (
{
closed = 1;
nodes = (
(302,-8,o),
(362,54,o),
(362,148,cs),
(362,177,l),
(339,178,l),
(339,147,ls),
(339,67,o),
(288,13,o),
(211,13,cs),
(135,13,o),
(84,67,o),
(84,147,cs),
(84,554,ls),
(84,634,o),
(135,687,o),
(211,687,cs),
(288,687,o),
(339,634,o),
(339,554,cs),
(339,521,l),
(362,522,l),
(362,553,ls),
(362,647,o),
(302,708,o),
(211,708,cs),
(122,708,o),
(62,647,o),
(62,553,cs),
(62,148,ls),
(62,54,o),
(122,-8,o),
(211,-8,cs)
);
}
);
width = 419;
}
);
unicode = 67;
userData = {
KernOnName = C;
};
},
{
glyphname = D;
kernLeft = KO_l;
kernRight = KO_D;
layers = (
{
anchors = (
{
name = top;
pos = (301,700);
}
);
layerId = "262880E7-CFE1-4BDA-902E-E24798F3240A";
shapes = (
{
closed = 1;
nodes = (
(335,0,ls),
(454,0,o),
(527,68,o),
(527,180,cs),
(527,520,ls),
(527,632,o),
(454,700,o),
(335,700,cs),
(100,700,l),
(100,0,l)
);
},
{
closed = 1;
nodes = (
(122,688,l),
(113,679,l),
(337,679,ls),
(441,679,o),
(505,619,o),
(505,520,cs),
(505,179,ls),
(505,81,o),
(441,21,o),
(337,21,cs),
(113,21,l),
(122,12,l)
);
}
);
width = 605;
},
{
anchors = (
{
name = top;
pos = (238,700);
}
);
hints = (
{
horizontal = 1;
origin = (0,8);
type = TTSnap;
},
{
horizontal = 1;
origin = (0,9);
type = TTSnap;
},
{
horizontal = 1;
origin = (0,0);
stem = -1;
target = (1,9);
type = TTStem;
},
{
horizontal = 1;
origin = (0,7);
stem = -1;
target = (1,2);
type = TTStem;
},
{
horizontal = 1;
origin = (0,8);
target = (1,2);
type = Stem;
},
{
origin = (0,9);
target = (1,11);
type = Stem;
},
{
origin = (1,6);
target = (0,3);
type = Stem;
}
);
layerId = "4E2227F3-52E4-4048-A8EE-327B486EF0A4";
shapes = (
{
closed = 1;
nodes = (
(242,0,ls),
(376,0,o),
(465,80,o),
(465,200,cs),
(465,500,ls),
(465,620,o),
(376,700,o),
(242,700,cs),
(30,700,l),
(30,0,l)
);
},
{
closed = 1;
nodes = (
(218,611,l),
(146,539,l),
(237,539,ls),
(261,539,o),
(277,519,o),
(277,488,c),
(277,213,l),
(275,183,o),
(259,163,o),
(238,162,cs),
(146,157,l),
(218,89,l)
);
}
);
width = 493;
},
{
anchors = (
{
name = top;
pos = (294,700);
}
);
layerId = "FFFA8D72-12AC-4CE0-B2CA-57A29829F4DA";
shapes = (
{
closed = 1;
nodes = (
(312,0,ls),
(476,0,o),
(586,90,o),
(586,225,cs),
(586,475,ls),
(586,610,o),
(476,700,o),
(312,700,cs),
(40,700,l),
(40,0,l)
);
},
{
closed = 1;
nodes = (
(228,611,l),
(156,539,l),
(318,539,ls),
(366,539,o),
(398,501,o),
(398,443,c),
(398,257,l),
(396,199,o),
(364,161,o),
(319,161,cs),
(156,161,l),
(228,89,l)
);
}
);
width = 618;
},
{
anchors = (
{
name = top;
pos = (206,700);
}
);
layerId = "DCBE1F7B-116A-43E0-B7B4-8657BA77D8B5";
shapes = (
{
closed = 1;
nodes = (
(213,0,ls),
(303,0,o),
(359,68,o),
(359,180,cs),
(359,520,ls),
(359,632,o),
(303,700,o),
(213,700,cs),
(69,700,l),
(69,0,l)
);
},
{
closed = 1;
nodes = (
(91,688,l),
(82,679,l),
(214,679,ls),
(290,679,o),
(336,619,o),
(336,520,cs),
(336,179,ls),
(336,81,o),
(289,21,o),
(214,21,cs),
(82,21,l),
(91,12,l)
);
}
);
width = 421;
}
);
unicode = 68;
userData = {
KernOnName = D;
};
},
{
glyphname = Eth;
kernLeft = KO_Eth;
kernRight = KO_D;
layers = (
{
layerId = "262880E7-CFE1-4BDA-902E-E24798F3240A";
shapes = (
{
closed = 1;
nodes = (
(286,356,l),
(286,377,l),
(21,377,l),
(21,356,l)
);
},
{
pos = (-11,0);
ref = D;
}
);
width = 586;
},
{
layerId = "FFFA8D72-12AC-4CE0-B2CA-57A29829F4DA";
shapes = (
{
closed = 1;
nodes = (
(315,296,l),
(315,421,l),
(13,421,l),
(13,296,l)
);
},
{
pos = (16,0);
ref = D;
}
);
width = 634;
},
{
layerId = "DCBE1F7B-116A-43E0-B7B4-8657BA77D8B5";
shapes = (
{
closed = 1;
nodes = (
(188,355,l),
(188,376,l),
(0,376,l),
(0,355,l)
);
},
{
pos = (-20,0);
ref = D;
}
);
width = 394;
},
{
hints = (
{
horizontal = 1;
origin = (0,3);
target = (0,2);
type = Stem;
},
{
origin = (0,3);
target = (0,0);
type = Stem;
}
);
layerId = "4E2227F3-52E4-4048-A8EE-327B486EF0A4";
shapes = (
{
closed = 1;
nodes = (
(251,314,l),
(251,419,l),
(10,419,l),
(10,314,l)
);
},
{
pos = (6,0);
ref = D;
}
);
width = 491;
}
);
unicode = 208;
},
{
glyphname = E;
kernLeft = KO_l;
kernRight = KO_E;
layers = (
{
anchors = (
{
name = bottom;
pos = (313,0);
},
{
name = ogonek;
pos = (494,0);
},
{
name = top;
pos = (310,700);
},
{
name = topleft;
pos = (3,700);
}
);
layerId = "262880E7-CFE1-4BDA-902E-E24798F3240A";
shapes = (
{
closed = 1;
nodes = (
(531,0,l),
(531,21,l),
(113,21,l),
(122,12,l),
(122,688,l),
(113,679,l),
(531,679,l),
(531,700,l),
(100,700,l),
(100,0,l)
);
},
{
closed = 1;
nodes = (
(422,340,l),
(422,361,l),
(111,361,l),
(111,340,l)
);
}
);
width = 563;
},
{
anchors = (
{
name = bottom;
pos = (222,0);
},
{
name = ogonek;
pos = (325,0);
},
{
name = top;
pos = (231,700);
},
{
name = topleft;
pos = (24,700);
}
);
hints = (
{
horizontal = 1;
origin = (0,9);
target = (0,2);
type = Stem;
},
{
horizontal = 1;
origin = (1,3);
target = (1,2);
type = Stem;
},
{
horizontal = 1;
origin = (0,8);
target = (0,5);
type = Stem;
},
{
origin = (0,9);
target = (0,3);
type = Stem;
},
{
horizontal = 1;
origin = (0,8);
type = TTSnap;
},
{
horizontal = 1;
origin = (0,9);
type = TTSnap;
},
{
horizontal = 1;
origin = (0,0);
stem = -1;
target = (0,1);
type = TTStem;
},
{
horizontal = 1;
origin = (1,0);
stem = -1;
target = (1,1);
type = TTStem;
},
{
horizontal = 1;
origin = (0,7);
stem = -1;
target = (0,6);
type = TTStem;
},
{
horizontal = 1;
options = 4;
origin = (0,0);
other1 = (1,1);
target = (0,7);
type = TTInterpolate;
}
);
layerId = "4E2227F3-52E4-4048-A8EE-327B486EF0A4";
shapes = (
{
closed = 1;
nodes = (
(430,0,l),
(430,161,l),
(146,161,l),
(218,89,l),
(218,611,l),
(146,539,l),
(430,539,l),
(430,700,l),
(30,700,l),
(30,0,l)
);
},
{
closed = 1;
nodes = (
(338,270,l),
(338,431,l),
(106,431,l),
(106,270,l)
);
}
);
width = 445;
},
{
anchors = (
{
name = bottom;
pos = (301,0);
},
{
name = ogonek;
pos = (437,0);
},
{
name = top;
pos = (292,700);
},
{
name = topleft;
pos = (21,700);
}
);
layerId = "FFFA8D72-12AC-4CE0-B2CA-57A29829F4DA";
shapes = (
{
closed = 1;
nodes = (
(547,0,l),
(547,161,l),
(156,161,l),
(228,89,l),
(228,611,l),
(156,539,l),
(547,539,l),
(547,700,l),
(40,700,l),
(40,0,l)
);
},
{
closed = 1;
nodes = (
(433,275,l),
(433,435,l),
(116,435,l),
(116,275,l)
);
}
);
width = 577;
},
{
anchors = (
{
name = bottom;
pos = (208,0);
},
{
name = ogonek;
pos = (319,0);
},
{
name = top;
pos = (210,700);
},
{
name = topleft;
pos = (-2,700);
}
);
layerId = "DCBE1F7B-116A-43E0-B7B4-8657BA77D8B5";
shapes = (
{
closed = 1;
nodes = (
(351,0,l),
(351,21,l),
(82,21,l),
(91,12,l),
(91,688,l),
(82,679,l),
(351,679,l),
(351,700,l),
(69,700,l),
(69,0,l)
);
},
{
closed = 1;
nodes = (
(268,340,l),
(268,361,l),
(80,361,l),
(80,340,l)
);
}
);
width = 379;
}
);
unicode = 69;
userData = {
KernOnName = E;
};
},
{
glyphname = F;
kernLeft = KO_l;
kernRight = KO_T;
layers = (
{
layerId = "262880E7-CFE1-4BDA-902E-E24798F3240A";
shapes = (
{
closed = 1;
nodes = (
(122,0,l),
(122,688,l),
(113,679,l),
(530,679,l),
(530,700,l),
(100,700,l),
(100,0,l)
);
},
{
closed = 1;
nodes = (
(421,340,l),
(421,361,l),
(111,361,l),
(111,340,l)
);
}
);
width = 554;
},
{
hints = (
{
horizontal = 1;
origin = (0,4);
stem = -1;
target = (0,3);
type = TTStem;
},
{
horizontal = 1;
origin = (1,0);
stem = -1;
target = (1,1);
type = TTStem;
},
{
horizontal = 1;
origin = (0,5);
type = TTSnap;
},
{
horizontal = 1;
origin = (0,6);
type = TTSnap;
},
{
horizontal = 1;
origin = (0,6);
target = up;
type = BottomGhost;
},
{
horizontal = 1;
origin = (1,3);
target = (1,2);
type = Stem;
},
{
horizontal = 1;
origin = (0,5);
target = (0,2);
type = Stem;
},
{
origin = (0,6);
target = (0,0);
type = Stem;
}
);
layerId = "4E2227F3-52E4-4048-A8EE-327B486EF0A4";
shapes = (
{
closed = 1;
nodes = (
(218,0,l),
(218,611,l),
(146,539,l),
(430,539,l),
(430,700,l),
(30,700,l),
(30,0,l)
);
},
{
closed = 1;
nodes = (
(338,270,l),
(338,431,l),
(106,431,l),
(106,270,l)
);
}
);
width = 439;
},
{
layerId = "FFFA8D72-12AC-4CE0-B2CA-57A29829F4DA";
shapes = (
{
closed = 1;
nodes = (
(228,0,l),
(228,611,l),
(156,539,l),
(546,539,l),
(546,700,l),
(40,700,l),
(40,0,l)
);
},
{
closed = 1;
nodes = (
(433,275,l),
(433,435,l),
(116,435,l),
(116,275,l)
);
}
);
width = 561;
},
{
layerId = "DCBE1F7B-116A-43E0-B7B4-8657BA77D8B5";
shapes = (
{
closed = 1;
nodes = (
(91,0,l),
(91,688,l),
(82,679,l),
(349,679,l),
(349,700,l),
(69,700,l),
(69,0,l)
);
},
{
closed = 1;
nodes = (
(267,340,l),
(267,361,l),
(80,361,l),
(80,340,l)
);
}
);
width = 364;
}
);
unicode = 70;
userData = {
KernOnName = F;
};
},
{
color = 3;
glyphname = G;
kernLeft = KO_G;
kernRight = KO_D;
layers = (
{
anchors = (
{
name = bottom;
pos = (210,-8);
},
{
name = top;
pos = (211,700);
}
);
layerId = "DCBE1F7B-116A-43E0-B7B4-8657BA77D8B5";
shapes = (
{
closed = 1;
nodes = (
(301,-8,o),
(361,52,o),
(361,144,cs),
(361,332,l),
(218,332,l),
(218,311,l),
(348,311,l),
(339,320,l),
(339,143,ls),
(339,65,o),
(288,13,o),
(211,13,cs),
(135,13,o),
(84,65,o),
(84,143,cs),
(84,557,ls),
(84,635,o),
(135,687,o),
(211,687,cs),
(288,687,o),
(339,635,o),
(339,557,cs),
(339,500,l),
(361,500,l),
(361,556,ls),
(361,648,o),
(301,708,o),
(211,708,cs),
(122,708,o),
(62,648,o),
(62,556,cs),
(62,144,ls),
(62,52,o),
(122,-8,o),
(211,-8,cs)
);
}
);
width = 420;
},
{
anchors = (
{
name = bottom;
pos = (245,-8);
},
{
name = top;
pos = (248,700);
}
);
hints = (
{
horizontal = 1;
origin = (0,27);
type = TTSnap;
},
{
horizontal = 1;
origin = (0,34);
type = TTSnap;
},
{
horizontal = 1;
origin = (0,34);
stem = -1;
target = (0,11);
type = TTStem;
},
{
horizontal = 1;
origin = (0,27);
stem = -1;
target = (0,18);
type = TTStem;
},
{
horizontal = 1;
options = 4;
origin = (0,27);
other1 = (0,5);
target = (0,34);
type = TTInterpolate;
}
);
layerId = "4E2227F3-52E4-4048-A8EE-327B486EF0A4";
shapes = (
{
closed = 1;
nodes = (
(379,-10,o),
(467,70,o),
(467,194,cs),
(467,395,l),
(250,395,l),
(250,250,l),
(351,250,l),
(279,322,l),
(279,193,ls),
(279,168,o),
(271,151,o),
(250,151,cs),
(229,151,o),
(217,168,o),
(217,193,cs),
(217,507,ls),
(217,532,o),
(229,549,o),
(248,549,cs),
(267,549,o),
(279,532,o),
(279,507,cs),
(279,457,l),
(467,457,l),
(467,505,ls),
(467,630,o),
(379,710,o),
(248,710,cs),
(116,710,o),
(29,631,o),
(29,507,cs),
(29,194,ls),
(29,70,o),
(116,-10,o),
(248,-10,cs)
);
}
);
width = 494;
},
{
anchors = (
{
name = bottom;
pos = (285,-8);
},
{
name = top;
pos = (285,700);
}
);
layerId = "262880E7-CFE1-4BDA-902E-E24798F3240A";
shapes = (
{
closed = 1;
nodes = (
(417,-8,o),
(503,73,o),
(503,194,cs),
(503,337,l),
(296,337,l),
(296,316,l),
(490,316,l),
(481,325,l),
(481,193,ls),
(481,85,o),
(403,13,o),
(287,13,cs),
(169,13,o),
(91,85,o),
(91,193,cs),
(91,507,ls),
(91,615,o),
(169,687,o),
(287,687,cs),
(403,687,o),
(481,615,o),
(481,507,cs),
(481,480,l),
(503,480,l),
(503,506,ls),
(503,627,o),
(417,708,o),
(287,708,cs),
(156,708,o),
(69,627,o),
(69,506,cs),
(69,194,ls),
(69,73,o),
(156,-8,o),
(287,-8,cs)
);
}
);
width = 566;
},
{
anchors = (
{
name = bottom;
pos = (297,-8);
},
{
name = top;
pos = (297,708);
}
);
layerId = "FFFA8D72-12AC-4CE0-B2CA-57A29829F4DA";
shapes = (
{
closed = 1;
nodes = (
(462,-12,o),
(572,92,o),
(572,242,cs),
(572,398,l),
(281,398,l),
(281,248,l),
(461,248,l),
(389,320,l),
(389,226,ls),
(389,176,o),
(353,149,o),
(305,149,cs),
(252,149,o),
(209,188,o),
(209,246,cs),
(209,454,ls),
(209,512,o),
(244,551,o),
(297,551,cs),
(354,551,o),
(385,512,o),
(385,470,cs),
(385,461,l),
(572,461,l),
(572,477,ls),
(572,606,o),
(462,712,o),
(297,712,cs),
(131,712,o),
(21,607,o),
(21,449,cs),
(21,252,ls),
(21,94,o),
(131,-12,o),
(297,-12,cs)
);
}
);
width = 594;
}
);
unicode = 71;
userData = {
KernOnName = G;
};
},
{
glyphname = H;
kernLeft = KO_l;
kernRight = KO_l;
layers = (
{
anchors = (
{
name = strokelong;
pos = (319,509);
},
{
name = top;
pos = (319,701);
}
);
layerId = "262880E7-CFE1-4BDA-902E-E24798F3240A";
shapes = (
{
closed = 1;
nodes = (
(538,0,l),
(538,700,l),
(516,700,l),
(516,0,l)
);
},
{
closed = 1;
nodes = (
(122,0,l),
(122,700,l),
(100,700,l),
(100,0,l)
);
},
{
closed = 1;
nodes = (
(521,340,l),
(521,361,l),
(117,361,l),
(117,340,l)
);
}
);
width = 638;
},
{
anchors = (
{
name = strokelong;
pos = (247,507);
},
{
name = top;
pos = (247,701);
}
);
hints = (
{
horizontal = 1;
origin = (1,0,2,3);
stem = 1000;
target = (2,0);
type = TTStem;
},
{
horizontal = 1;
origin = (1,2);
type = TTSnap;
},
{
horizontal = 1;
origin = (1,3);
type = TTSnap;
},
{
horizontal = 1;
options = 4;
origin = (1,3);
target = (0,3);
type = TTShift;
},
{
horizontal = 1;
options = 4;
origin = (1,2);
target = (0,2);
type = TTShift;
},
{
horizontal = 1;
origin = (1,3);
target = up;
type = BottomGhost;
},
{
horizontal = 1;
origin = (0,0,2,3);
stem = 1000;
target = (2,1);
type = Stem;
},
{
horizontal = 1;
origin = (1,2);
target = down;
type = TopGhost;
},
{
origin = (1,3);
target = (1,0);
type = Stem;
},
{
origin = (0,3);
target = (0,0);
type = Stem;
}
);
layerId = "4E2227F3-52E4-4048-A8EE-327B486EF0A4";
shapes = (
{
closed = 1;
nodes = (
(464,0,l),
(464,700,l),
(276,700,l),
(276,0,l)
);
},
{
closed = 1;
nodes = (
(218,0,l),
(218,700,l),
(30,700,l),
(30,0,l)
);
},
{
closed = 1;
nodes = (
(292,270,l),
(292,431,l),
(202,431,l),
(202,270,l)
);
}
);
width = 494;
},
{
anchors = (
{
name = strokelong;
pos = (311,506);
},
{
name = top;
pos = (313,701);
}
);
layerId = "FFFA8D72-12AC-4CE0-B2CA-57A29829F4DA";
shapes = (
{
closed = 1;
nodes = (
(582,0,l),
(582,700,l),
(394,700,l),
(394,0,l)
);
},
{
closed = 1;
nodes = (
(228,0,l),
(228,700,l),
(40,700,l),
(40,0,l)
);
},
{
closed = 1;
nodes = (
(410,274,l),
(410,435,l),
(212,435,l),
(212,274,l)
);
}
);
width = 622;
},
{
anchors = (
{
name = strokelong;
pos = (211,508);
},
{
name = top;
pos = (208,701);
}
);
layerId = "DCBE1F7B-116A-43E0-B7B4-8657BA77D8B5";
shapes = (
{
closed = 1;
nodes = (
(353,0,l),
(353,700,l),
(331,700,l),
(331,0,l)
);
},
{
closed = 1;
nodes = (
(91,0,l),
(91,700,l),
(69,700,l),
(69,0,l)
);
},
{
closed = 1;
nodes = (
(336,340,l),
(336,361,l),
(86,361,l),
(86,340,l)
);
}
);
width = 422;
}
);
unicode = 72;
userData = {
KernOnName = H;
};
},
{
glyphname = I;
kernLeft = KO_l;
kernRight = KO_l;
layers = (
{
anchors = (
{
name = bottom;
pos = (111,0);
},
{
name = ogonek;
pos = (108,1);
},
{
name = top;
pos = (111,700);
},
{
name = topleft;
pos = (20,700);
}
);
layerId = "262880E7-CFE1-4BDA-902E-E24798F3240A";
shapes = (
{
closed = 1;
nodes = (
(122,0,l),
(122,700,l),
(100,700,l),
(100,0,l)
);
}
);
width = 222;
},
{
anchors = (
{
name = bottom;
pos = (124,0);
},
{
name = ogonek;
pos = (149,0);
},
{
name = top;
pos = (124,700);
},
{
name = topleft;
pos = (20,700);
}
);
hints = (
{
horizontal = 1;
origin = (0,2);
type = TTSnap;
},
{
horizontal = 1;
origin = (0,3);
type = TTSnap;
},
{
horizontal = 1;
origin = (0,3);
target = up;
type = BottomGhost;
},
{
horizontal = 1;
origin = (0,2);
target = down;
type = TopGhost;
},
{
origin = (0,3);
target = (0,0);
type = Stem;
}
);
layerId = "4E2227F3-52E4-4048-A8EE-327B486EF0A4";
shapes = (
{
closed = 1;
nodes = (
(218,0,l),
(218,700,l),
(30,700,l),
(30,0,l)
);
}
);
width = 248;
},
{
anchors = (
{
name = bottom;
pos = (134,0);
},
{
name = ogonek;
pos = (251,10);
},
{
name = top;
pos = (134,700);
},
{
name = topleft;
pos = (8,700);
}
);
layerId = "FFFA8D72-12AC-4CE0-B2CA-57A29829F4DA";
shapes = (
{
closed = 1;
nodes = (
(228,0,l),
(228,700,l),
(40,700,l),
(40,0,l)
);
}
);
width = 268;
},
{
anchors = (
{
name = bottom;
pos = (80,0);
},
{
name = ogonek;
pos = (80,0);
},
{
name = top;
pos = (80,700);
},
{
name = topleft;
pos = (20,700);
}
);
layerId = "DCBE1F7B-116A-43E0-B7B4-8657BA77D8B5";
shapes = (
{
closed = 1;
nodes = (
(91,0,l),
(91,700,l),
(69,700,l),
(69,0,l)
);
}
);
width = 160;
}
);
unicode = 73;
userData = {
KernOnName = I;
};
},
{
glyphname = J;
kernLeft = KO_J;
kernRight = KO_U;
layers = (
{
anchors = (
{
name = top;
pos = (455,701);
}
);
layerId = "262880E7-CFE1-4BDA-902E-E24798F3240A";
shapes = (
{
closed = 1;
nodes = (
(382,-8,o),
(466,70,o),
(466,188,cs),
(466,700,l),
(444,700,l),
(444,187,ls),
(444,83,o),
(369,13,o),
(256,13,cs),
(143,13,o),
(68,83,o),
(68,187,cs),
(68,281,l),
(46,281,l),
(46,188,ls),
(46,70,o),
(130,-8,o),
(256,-8,cs)
);
}
);
width = 561;
},
{
anchors = (
{
name = top;
pos = (345,701);
}
);
hints = (
{
horizontal = 1;
origin = (0,17);
type = TTSnap;
},
{
horizontal = 1;
origin = (0,4);
type = TTSnap;
},
{
horizontal = 1;
origin = (0,17);
stem = -1;
target = (0,8);
type = TTStem;
},
{
horizontal = 1;
origin = (0,17);
target = (0,13);
type = Stem;
},
{
horizontal = 1;
origin = (0,4);
target = down;
type = TopGhost;
},
{
horizontal = 1;
origin = (0,17);
target = (0,8);
type = Stem;
},
{
origin = (0,14);
target = (0,11);
type = Stem;
},
{
origin = (0,5);
target = (0,2);
type = Stem;
}
);
layerId = "4E2227F3-52E4-4048-A8EE-327B486EF0A4";
shapes = (
{
closed = 1;
nodes = (
(355,-10,o),
(443,70,o),
(443,190,cs),
(443,700,l),
(255,700,l),
(255,188,ls),
(255,166,o),
(242,151,o),
(224,151,cs),
(207,151,o),
(195,166,o),
(195,188,cs),
(195,263,l),
(7,263,l),
(7,190,ls),
(7,70,o),
(94,-10,o),
(224,-10,cs)
);
}
);
width = 470;
},
{
anchors = (
{
name = top;
pos = (455,701);
}
);
layerId = "FFFA8D72-12AC-4CE0-B2CA-57A29829F4DA";
shapes = (
{
closed = 1;
nodes = (
(437,-8,o),
(547,88,o),
(547,232,cs),
(547,700,l),
(360,700,l),
(360,233,ls),
(360,185,o),
(325,153,o),
(278,153,cs),
(228,153,o),
(199,185,o),
(199,233,cs),
(199,300,l),
(11,300,l),
(11,232,ls),
(11,88,o),
(115,-8,o),
(278,-8,cs)
);
}
);
width = 583;
},
{
anchors = (
{
name = top;
pos = (310,701);
}
);
layerId = "DCBE1F7B-116A-43E0-B7B4-8657BA77D8B5";
shapes = (
{
closed = 1;
nodes = (
(263,-8,o),
(321,54,o),
(321,148,cs),
(321,700,l),
(299,700,l),
(299,147,ls),
(299,67,o),
(250,13,o),
(177,13,cs),
(104,13,o),
(55,67,o),
(55,147,cs),
(55,251,l),
(33,251,l),
(33,148,ls),
(33,54,o),
(91,-8,o),
(177,-8,cs)
);
}
);
width = 387;
}
);
unicode = 74;
userData = {
KernOnName = J;
};
},
{
glyphname = K;
kernLeft = KO_l;
kernRight = KO_K;
layers = (
{
anchors = (
{
name = bottom;
pos = (288,0);
},
{
name = top;
pos = (288,700);
}
);
layerId = "262880E7-CFE1-4BDA-902E-E24798F3240A";
shapes = (
{
closed = 1;
nodes = (
(241,403,l),
(528,0,l),
(556,0,l),
(257,420,l)
);
},
{
closed = 1;
nodes = (
(122,700,l),
(100,700,l),
(100,0,l),
(122,0,l)
);
},
{
closed = 1;
nodes = (
(117,273,l),
(248,402,l),
(256,411,l),
(532,700,l),
(506,700,l),
(117,301,l)
);
}
);
width = 578;
},
{
anchors = (
{
name = bottom;
pos = (251,0);
},
{
name = top;
pos = (251,700);
}
);
hints = (
{
horizontal = 1;
origin = (1,1);
type = TTSnap;
},
{
horizontal = 1;
options = 4;
origin = (1,1);
target = (2,4);
type = TTShift;
},
{
horizontal = 1;
origin = (1,2);
type = TTSnap;
},
{
horizontal = 1;
options = 4;
origin = (1,2);
target = (0,1);
type = TTShift;
},
{
horizontal = 1;
origin = (1,2);
target = up;
type = BottomGhost;
},
{
horizontal = 1;
origin = (1,1);
target = down;
type = TopGhost;
},
{
origin = (1,2);
target = (1,3);
type = Stem;
}
);
layerId = "4E2227F3-52E4-4048-A8EE-327B486EF0A4";
shapes = (
{
closed = 1;
nodes = (
(225,242,l),
(317,0,l),
(515,0,l),
(355,398,l)
);
},
{
closed = 1;
nodes = (
(218,700,l),
(30,700,l),
(30,0,l),
(218,0,l)
);
},
{
closed = 1;
nodes = (
(212,178,l),
(237,242,l),
(354,369,l),
(512,700,l),
(314,700,l),
(212,454,l)
);
}
);
width = 502;
},
{
anchors = (
{
name = bottom;
pos = (305,0);
},
{
name = top;
pos = (305,700);
}
);
layerId = "FFFA8D72-12AC-4CE0-B2CA-57A29829F4DA";
shapes = (
{
closed = 1;
nodes = (
(268,276,l),
(423,0,l),
(633,0,l),
(397,404,l)
);
},
{
closed = 1;
nodes = (
(228,700,l),
(40,700,l),
(40,0,l),
(228,0,l)
);
},
{
closed = 1;
nodes = (
(219,176,l),
(285,275,l),
(396,377,l),
(628,700,l),
(415,700,l),
(219,422,l)
);
}
);
width = 638;
},
{
anchors = (
{
name = bottom;
pos = (198,0);
},
{
name = top;
pos = (198,700);
}
);
layerId = "DCBE1F7B-116A-43E0-B7B4-8657BA77D8B5";
shapes = (
{
closed = 1;
nodes = (
(176,412,l),
(355,0,l),
(382,0,l),
(192,433,l)
);
},
{
closed = 1;
nodes = (
(91,700,l),
(69,700,l),
(69,0,l),
(91,0,l)
);
},
{
closed = 1;
nodes = (
(86,267,l),
(183,411,l),
(192,421,l),
(365,700,l),
(337,700,l),
(86,301,l)
);
}
);
width = 395;
}
);
unicode = 75;
userData = {
KernOnName = K;
};
},
{
glyphname = L;
kernLeft = KO_l;
kernRight = KO_L;
layers = (
{
anchors = (
{
name = bottom;
pos = (275,0);
},
{
name = top;
pos = (111,700);
}
);
layerId = "262880E7-CFE1-4BDA-902E-E24798F3240A";
shapes = (
{
closed = 1;
nodes = (
(505,0,l),
(505,21,l),
(113,21,l),
(122,12,l),
(122,700,l),
(100,700,l),
(100,0,l)
);
}
);
width = 528;
},
{
anchors = (
{
name = bottom;
pos = (211,0);
},
{
name = top;
pos = (128,700);
}
);
hints = (
{
horizontal = 1;
origin = (0,5);
type = TTSnap;
},
{
horizontal = 1;
origin = (0,6);
type = TTSnap;
},
{
horizontal = 1;
origin = (0,0);
stem = -1;
target = (0,1);
type = TTStem;
},
{
horizontal = 1;
origin = (0,6);
target = (0,2);
type = Stem;
},
{
horizontal = 1;
origin = (0,5);
target = down;
type = TopGhost;
},
{
origin = (0,6);
target = (0,3);
type = Stem;
}
);
layerId = "4E2227F3-52E4-4048-A8EE-327B486EF0A4";
shapes = (
{
closed = 1;
nodes = (
(434,0,l),
(434,161,l),
(146,161,l),
(218,89,l),
(218,700,l),
(30,700,l),
(30,0,l)
);
}
);
width = 442;
},
{
anchors = (
{
name = bottom;
pos = (275,0);
},
{
name = top;
pos = (133,700);
}
);
layerId = "FFFA8D72-12AC-4CE0-B2CA-57A29829F4DA";
shapes = (
{
closed = 1;
nodes = (
(557,0,l),
(557,161,l),
(156,161,l),
(228,89,l),
(228,700,l),
(40,700,l),
(40,0,l)
);
}
);
width = 569;
},
{
anchors = (
{
name = bottom;
pos = (173,0);
},
{
name = top;
pos = (78,700);
}
);
layerId = "DCBE1F7B-116A-43E0-B7B4-8657BA77D8B5";
shapes = (
{
closed = 1;
nodes = (
(346,0,l),
(346,21,l),
(82,21,l),
(91,12,l),
(91,700,l),
(69,700,l),
(69,0,l)
);
}
);
width = 362;
}
);
unicode = 76;
userData = {
KernOnName = L;
};
},
{
color = 3;
glyphname = M;
kernLeft = KO_l;
kernRight = KO_l;
layers = (
{
layerId = "262880E7-CFE1-4BDA-902E-E24798F3240A";
shapes = (
{
closed = 1;
nodes = (
(122,0,l),
(122,687,l),
(105,685,l),
(333,303,l),
(351,303,l),
(575,685,l),
(560,687,l),
(560,0,l),
(582,0,l),
(582,700,l),
(560,700,l),
(332,314,l),
(350,317,l),
(122,700,l),
(100,700,l),
(100,0,l)
);
}
);
width = 682;
},
{
background = {
shapes = (
{
closed = 1;
nodes = (
(218,0,l),
(218,511,l),
(182,502,l),
(291,310,l),
(292,310,l),
(403,498,l),
(366,508,l),
(366,0,l),
(554,0,l),
(554,700,l),
(371,700,l),
(258,490,l),
(326,490,l),
(213,700,l),
(30,700,l),
(30,0,l)
);
}
);
};
hints = (
{
horizontal = 1;
origin = (0,14);
type = TTSnap;
},
{
horizontal = 1;
origin = (0,15);
type = TTSnap;
},
{
horizontal = 1;
origin = (0,15);
target = up;
type = BottomGhost;
},
{
horizontal = 1;
origin = (0,14);
target = down;
type = TopGhost;
},
{
origin = (0,15);
target = (0,0);
type = Stem;
},
{
origin = (0,7);
target = (0,8);
type = Stem;
}
);
layerId = "4E2227F3-52E4-4048-A8EE-327B486EF0A4";
shapes = (
{
closed = 1;
nodes = (
(218,0,l),
(218,625,l),
(108,625,l),
(291,310,l),
(292,310,l),
(477,625,l),
(366,625,l),
(366,0,l),
(554,0,l),
(554,700,l),
(371,700,l),
(239,452,l),
(347,452,l),
(213,700,l),
(30,700,l),
(30,0,l)
);
}
);
width = 584;
},
{
layerId = "FFFA8D72-12AC-4CE0-B2CA-57A29829F4DA";
shapes = (
{
closed = 1;
nodes = (
(228,0,l),
(228,463,l),
(171,463,l),
(308,140,l),
(408,140,l),
(547,463,l),
(488,463,l),
(488,0,l),
(676,0,l),
(676,700,l),
(493,700,l),
(292,221,l),
(424,221,l),
(223,700,l),
(40,700,l),
(40,0,l)
);
}
);
width = 716;
},
{
layerId = "DCBE1F7B-116A-43E0-B7B4-8657BA77D8B5";
shapes = (
{
closed = 1;
nodes = (
(91,0,l),
(91,672,l),
(79,672,l),
(221,330,l),
(239,330,l),
(378,672,l),
(367,672,l),
(367,0,l),
(389,0,l),
(389,700,l),
(367,700,l),
(223,347,l),
(237,347,l),
(91,700,l),
(69,700,l),
(69,0,l)
);
}
);
width = 458;
},
{
associatedMasterId = "DCBE1F7B-116A-43E0-B7B4-8657BA77D8B5";
attr = {
coordinates = (
100,
300
);
};
background = {
shapes = (
{
closed = 1;
nodes = (
(151,0,l),
(151,601,l),
(117,572,l),
(254,321,l),
(264,321,l),
(401,573,l),
(367,599,l),
(367,0,l),
(467,0,l),
(467,700,l),
(369,700,l),
(229,452,l),
(288,456,l),
(149,700,l),
(51,700,l),
(51,0,l)
);
}
);
};
hints = (
{
horizontal = 1;
origin = (0,15);
target = up;
type = BottomGhost;
},
{
horizontal = 1;
origin = (0,14);
target = down;
type = TopGhost;
}
);
layerId = "980C465B-B287-4D6A-AB1E-CF08BC8D48C9";
name = "{100,300}";
shapes = (
{
closed = 1;
nodes = (
(151,0,l),
(151,572,l),
(117,572,l),
(254,321,l),
(264,321,l),
(401,572,l),
(367,572,l),
(367,0,l),
(467,0,l),
(467,700,l),
(369,700,l),
(230,437,l),
(289,437,l),
(149,700,l),
(51,700,l),
(51,0,l)
);
}
);
width = 517;
},
{
associatedMasterId = "4E2227F3-52E4-4048-A8EE-327B486EF0A4";
attr = {
coordinates = (
100,
500
);
};
hints = (
{
horizontal = 1;
origin = (0,15);
target = up;
type = BottomGhost;
},
{
horizontal = 1;
origin = (0,14);
target = down;
type = TopGhost;
},
{
origin = (0,15);
target = (0,0);
type = Stem;
},
{
origin = (0,7);
target = (0,8);
type = Stem;
}
);
layerId = "25EBB921-4617-417B-8B1A-802DA642A775";
name = "{100,500}";
shapes = (
{
closed = 1;
nodes = (
(172,0,l),
(172,582,l),
(99,631,l),
(322,298,l),
(378,298,l),
(602,638,l),
(527,582,l),
(527,0,l),
(627,0,l),
(627,700,l),
(529,700,l),
(307,354,l),
(392,356,l),
(170,700,l),
(72,700,l),
(72,0,l)
);
}
);
width = 699;
}
);
unicode = 77;
userData = {
KernOnName = M;
};
},
{
color = 3;
glyphname = N;
kernLeft = KO_l;
kernRight = KO_l;
layers = (
{
anchors = (
{
name = bottom;
pos = (329,0);
},
{
name = top;
pos = (327,700);
}
);
layerId = "262880E7-CFE1-4BDA-902E-E24798F3240A";
shapes = (
{
closed = 1;
nodes = (
(122,0,l),
(122,668,l),
(117,667,l),
(528,0,l),
(550,0,l),
(550,700,l),
(528,700,l),
(528,32,l),
(533,33,l),
(122,700,l),
(100,700,l),
(100,0,l)
);
}
);
width = 650;
},
{
anchors = (
{
name = bottom;
pos = (281,0);
},
{
name = top;
pos = (269,700);
}
);
hints = (
{
horizontal = 1;
origin = (0,11);
type = TTSnap;
},
{
horizontal = 1;
origin = (0,10);
type = TTSnap;
},
{
horizontal = 1;
origin = (0,11);
target = up;
type = BottomGhost;
},
{
horizontal = 1;
origin = (0,10);
target = down;
type = TopGhost;
},
{
origin = (0,11);
target = (0,0);
type = Stem;
},
{
origin = (0,3);
target = (0,4);
type = Stem;
}
);
layerId = "4E2227F3-52E4-4048-A8EE-327B486EF0A4";
shapes = (
{
closed = 1;
nodes = (
(218,0,l),
(218,415,l),
(199,415,l),
(324,0,l),
(512,0,l),
(512,700,l),
(324,700,l),
(324,285,l),
(342,285,l),
(218,700,l),
(30,700,l),
(30,0,l)
);
}
);
width = 542;
},
{
anchors = (
{
name = bottom;
pos = (329,0);
},
{
name = top;
pos = (319,700);
}
);
layerId = "FFFA8D72-12AC-4CE0-B2CA-57A29829F4DA";
shapes = (
{
closed = 1;
nodes = (
(228,0,l),
(228,430,l),
(190,430,l),
(433,0,l),
(621,0,l),
(621,700,l),
(433,700,l),
(433,280,l),
(469,280,l),
(227,700,l),
(40,700,l),
(40,0,l)
);
}
);
width = 661;
},
{
anchors = (
{
name = bottom;
pos = (214,0);
},
{
name = top;
pos = (218,710);
}
);
layerId = "DCBE1F7B-116A-43E0-B7B4-8657BA77D8B5";
shapes = (
{
closed = 1;
nodes = (
(91,0,l),
(91,657,l),
(88,657,l),
(343,0,l),
(366,0,l),
(366,700,l),
(344,700,l),
(344,43,l),
(347,43,l),
(91,700,l),
(69,700,l),
(69,0,l)
);
}
);
width = 435;
},
{
anchors = (
{
name = bottom;
pos = (330,0);
},
{
name = top;
pos = (324,700);
}
);
associatedMasterId = "4E2227F3-52E4-4048-A8EE-327B486EF0A4";
attr = {
coordinates = (
100,
500
);
};
hints = (
{
horizontal = 1;
origin = (0,11);
target = up;
type = BottomGhost;
},
{
horizontal = 1;
origin = (0,10);
target = down;
type = TopGhost;
},
{
origin = (0,11);
target = (0,0);
type = Stem;
},
{
place = (487.5, 100.5);
place = (487.5, 100.5);
type = Stem;
}
);
layerId = "AF700569-CAED-4344-924C-FF7EDA896D2F";
name = "{100,500}";
shapes = (
{
closed = 1;
nodes = (
(172,0,l),
(172,551,l),
(152,550,l),
(488,0,l),
(583,0,l),
(583,700,l),
(482,700,l),
(483,149,l),
(503,150,l),
(168,700,l),
(72,700,l),
(72,0,l)
);
}
);
width = 655;
},
{
anchors = (
{
name = bottom;
pos = (245,0);
},
{
name = top;
pos = (241,705);
}
);
associatedMasterId = "4E2227F3-52E4-4048-A8EE-327B486EF0A4";
attr = {
coordinates = (
100,
300
);
};
hints = (
{
horizontal = 1;
origin = (0,11);
target = up;
type = BottomGhost;
},
{
horizontal = 1;
origin = (0,10);
target = down;
type = TopGhost;
},
{
origin = (0,7);
target = (0,4);
type = Stem;
}
);
layerId = "42C43E0D-C6E2-494E-A0C1-A4C56C6C4E84";
name = "{100,300}";
shapes = (
{
closed = 1;
nodes = (
(151,0,l),
(150,496,l),
(140,496,l),
(324,0,l),
(433,0,l),
(433,700,l),
(334,700,l),
(334,204,l),
(344,204,l),
(159,700,l),
(51,700,l),
(51,0,l)
);
}
);
width = 483;
}
);
unicode = 78;
userData = {
KernOnName = N;
};
},
{
glyphname = Eng;
kernLeft = KO_l;
kernRight = KO_l;
layers = (
{
layerId = "262880E7-CFE1-4BDA-902E-E24798F3240A";
shapes = (
{
closed = 1;
nodes = (
(517,-139,o),
(550,-87,o),
(550,-2,cs),
(550,572,l),
(528,572,l),
(528,-2,ls),
(528,-74,o),
(504,-118,o),
(431,-118,c),
(431,-139,l)
);
},
{
ref = N;
}
);
width = 650;
},
{
layerId = "FFFA8D72-12AC-4CE0-B2CA-57A29829F4DA";
shapes = (
{
closed = 1;
nodes = (
(572,-209,o),
(633,-163,o),
(633,29,cs),
(633,520,l),
(445,520,l),
(445,26,ls),
(445,-38,o),
(421,-52,o),
(326,-44,c),
(326,-201,l)
);
},
{
ref = N;
}
);
width = 672;
},
{
layerId = "DCBE1F7B-116A-43E0-B7B4-8657BA77D8B5";
shapes = (
{
closed = 1;
nodes = (
(365,-133,o),
(366,-81,o),
(366,4,cs),
(366,578,l),
(344,578,l),
(344,4,ls),
(344,-68,o),
(350,-112,o),
(276,-112,c),
(276,-133,l)
);
},
{
ref = N;
}
);
width = 439;
},
{
hints = (
{
horizontal = 1;
origin = (0,9);
target = (0,8);
type = Stem;
},
{
origin = (0,5);
target = (0,2);
type = Stem;
}
);
layerId = "4E2227F3-52E4-4048-A8EE-327B486EF0A4";
shapes = (
{
closed = 1;
nodes = (
(510,-220,o),
(512,-130,o),
(512,19,cs),
(512,210,l),
(324,210,l),
(324,19,ls),
(324,-29,o),
(308,-59,o),
(240,-51,c),
(241,-211,l)
);
},
{
ref = N;
}
);
width = 536;
}
);
unicode = 330;
},
{
glyphname = O;
kernLeft = KO_O;
kernRight = KO_S;
layers = (
{
anchors = (
{
name = bottom;
pos = (309,0);
},
{
name = center;
pos = (309,350);
},
{
name = ogonek;
pos = (407,18);
},
{
name = top;
pos = (308,700);
},
{
name = topleft;
pos = (18,700);
},
{
name = topright;
pos = (487,671);
}
);
layerId = "262880E7-CFE1-4BDA-902E-E24798F3240A";
shapes = (
{
closed = 1;
nodes = (
(441,-7,o),
(530,80,o),
(530,210,cs),
(530,489,ls),
(530,620,o),
(441,708,o),
(308,708,cs),
(176,708,o),
(88,620,o),
(88,489,cs),
(88,210,ls),
(88,80,o),
(176,-7,o),
(308,-7,cs)
);
},
{
closed = 1;
nodes = (
(189,13,o),
(110,91,o),
(110,209,cs),
(110,490,ls),
(110,608,o),
(189,687,o),
(308,687,cs),
(428,687,o),
(508,608,o),
(508,490,cs),
(508,209,ls),
(508,91,o),
(428,13,o),
(308,13,cs)
);
}
);
width = 618;
},
{
anchors = (
{
name = bottom;
pos = (248,0);
},
{
name = center;
pos = (248,350);
},
{
name = ogonek;
pos = (311,23);
},
{
name = top;
pos = (248,700);
},
{
name = topleft;
pos = (30,700);
},
{
name = topright;
pos = (387,700);
}
);
hints = (
{
horizontal = 1;
origin = (0,13);
stem = -1;
target = (1,13);
type = TTStem;
},
{
horizontal = 1;
origin = (0,6);
stem = -1;
target = (1,6);
type = TTStem;
},
{
horizontal = 1;
origin = (0,13);
target = (1,13);
type = Stem;
},
{
horizontal = 1;
origin = (0,6);
target = (1,6);
type = Stem;
},
{
origin = (0,10);
target = (1,2);
type = Stem;
},
{
origin = (1,10);
target = (0,2);
type = Stem;
}
);
layerId = "4E2227F3-52E4-4048-A8EE-327B486EF0A4";
shapes = (
{
closed = 1;
nodes = (
(380,-10,o),
(467,75,o),
(467,206,cs),
(467,496,ls),
(467,627,o),
(380,710,o),
(248,710,cs),
(115,710,o),
(29,627,o),
(29,496,cs),
(29,206,ls),
(29,75,o),
(115,-10,o),
(248,-10,cs)
);
},
{
closed = 1;
nodes = (
(228,153,o),
(217,171,o),
(217,198,cs),
(217,504,ls),
(217,531,o),
(228,549,o),
(248,549,cs),
(268,549,o),
(279,531,o),
(279,504,cs),
(279,198,ls),
(279,171,o),
(268,153,o),
(248,153,cs)
);
}
);
width = 496;
},
{
anchors = (
{
name = bottom;
pos = (313,0);
},
{
name = center;
pos = (313,350);
},
{
name = ogonek;
pos = (370,10);
},
{
name = top;
pos = (312,700);
},
{
name = topleft;
pos = (22,700);
},
{
name = topright;
pos = (481,700);
}
);
guides = (
{
pos = (312,613);
},
{
pos = (309,360);
},
{
pos = (312,87);
}
);
layerId = "FFFA8D72-12AC-4CE0-B2CA-57A29829F4DA";
shapes = (
{
closed = 1;
nodes = (
(481,-12,o),
(593,95,o),
(593,256,cs),
(593,448,ls),
(593,606,o),
(481,712,o),
(312,712,cs),
(144,712,o),
(32,606,o),
(32,448,cs),
(32,256,ls),
(32,95,o),
(144,-12,o),
(312,-12,cs)
);
},
{
closed = 1;
nodes = (
(257,149,o),
(220,189,o),
(220,250,cs),
(220,450,ls),
(220,511,o),
(257,551,o),
(312,551,cs),
(368,551,o),
(405,511,o),
(405,450,cs),
(405,250,ls),
(405,189,o),
(368,149,o),
(312,149,cs)
);
}
);
width = 625;
},
{
anchors = (
{
name = bottom;
pos = (214,0);
},
{
name = center;
pos = (214,350);
},
{
name = ogonek;
pos = (298,23);
},
{
name = top;
pos = (213,699);
},
{
name = topleft;
pos = (12,700);
},
{
name = topright;
pos = (308,700);
}
);
layerId = "DCBE1F7B-116A-43E0-B7B4-8657BA77D8B5";
shapes = (
{
closed = 1;
nodes = (
(303,-8,o),
(366,56,o),
(366,150,cs),
(366,549,ls),
(366,643,o),
(303,708,o),
(213,708,cs),
(124,708,o),
(62,643,o),
(62,549,cs),
(62,150,ls),
(62,56,o),
(124,-8,o),
(213,-8,cs)
);
},
{
closed = 1;
nodes = (
(137,13,o),
(84,69,o),
(84,149,cs),
(84,550,ls),
(84,631,o),
(137,687,o),
(213,687,cs),
(290,687,o),
(344,631,o),
(344,550,cs),
(344,149,ls),
(344,69,o),
(290,13,o),
(213,13,cs)
);
}
);
width = 428;
}
);
unicode = 79;
userData = {
KernOnName = O;
};
},
{
color = 3;
glyphname = Oslash;
kernLeft = KO_Oslash;
kernRight = KO_Oslash;
layers = (
{
layerId = "262880E7-CFE1-4BDA-902E-E24798F3240A";
shapes = (
{
closed = 1;
nodes = (
(547,700,l),
(528,712,l),
(75,-1,l),
(93,-13,l)
);
},
{
ref = O;
}
);
width = 616;
},
{
layerId = "FFFA8D72-12AC-4CE0-B2CA-57A29829F4DA";
shapes = (
{
closed = 1;
nodes = (
(584,674,l),
(497,739,l),
(23,17,l),
(115,-39,l)
);
},
{
alignment = -1;
pos = (-6,0);
ref = O;
}
);
width = 606;
},
{
layerId = "DCBE1F7B-116A-43E0-B7B4-8657BA77D8B5";
shapes = (
{
closed = 1;
nodes = (
(378,716,l),
(358,725,l),
(66,-17,l),
(86,-26,l)
);
},
{
alignment = -1;
ref = O;
}
);
width = 434;
},
{
hints = (
{
horizontal = 1;
origin = (0,2);
target = up;
type = BottomGhost;
},
{
horizontal = 1;
origin = (0,0);
target = down;
type = TopGhost;
},
{
origin = (0,2);
target = (0,0);
type = Stem;
}
);
layerId = "4E2227F3-52E4-4048-A8EE-327B486EF0A4";
shapes = (
{
closed = 1;
nodes = (
(464,705,l),
(388,736,l),
(20,-6,l),
(96,-37,l)
);
},
{
alignment = -1;
ref = O;
}
);
width = 484;
}
);
unicode = 216;
},
{
glyphname = OE;
kernLeft = KO_OE;
kernRight = KO_E;
layers = (
{
anchors = (
{
name = top;
pos = (465,700);
}
);
layerId = "262880E7-CFE1-4BDA-902E-E24798F3240A";
shapes = (
{
closed = 1;
nodes = (
(406,-7,o),
(485,77,o),
(485,190,cs),
(485,509,ls),
(485,623,o),
(406,708,o),
(285,708,cs),
(164,708,o),
(85,623,o),
(85,509,cs),
(85,190,ls),
(85,77,o),
(164,-7,o),
(285,-7,cs)
);
},
{
closed = 1;
nodes = (
(178,13,o),
(107,89,o),
(107,189,cs),
(107,510,ls),
(107,610,o),
(178,687,o),
(285,687,cs),
(393,687,o),
(465,610,o),
(465,510,cs),
(465,189,ls),
(465,89,o),
(393,13,o),
(285,13,cs)
);
},
{
closed = 1;
nodes = (
(727,340,l),
(727,361,l),
(476,361,l),
(476,340,l)
);
},
{
closed = 1;
nodes = (
(836,0,l),
(836,21,l),
(487,21,l),
(487,679,l),
(836,679,l),
(836,700,l),
(465,700,l),
(465,0,l)
);
}
);
width = 880;
},
{
anchors = (
{
name = top;
pos = (483,700);
}
);
layerId = "FFFA8D72-12AC-4CE0-B2CA-57A29829F4DA";
shapes = (
{
closed = 1;
nodes = (
(384,-12,o),
(517,87,o),
(517,236,cs),
(517,464,ls),
(517,613,o),
(384,708,o),
(256,708,cs),
(134,708,o),
(26,602,o),
(26,444,cs),
(26,256,ls),
(26,95,o),
(134,-12,o),
(256,-12,cs)
);
},
{
closed = 1;
nodes = (
(251,149,o),
(214,189,o),
(214,250,cs),
(214,446,ls),
(214,507,o),
(251,547,o),
(306,547,cs),
(362,547,o),
(399,507,o),
(399,446,cs),
(399,250,ls),
(399,189,o),
(362,149,o),
(306,149,cs)
);
},
{
closed = 1;
nodes = (
(795,275,l),
(795,435,l),
(475,435,l),
(475,275,l)
);
},
{
closed = 1;
nodes = (
(909,0,l),
(909,161,l),
(587,161,l),
(587,539,l),
(909,539,l),
(909,700,l),
(399,700,l),
(399,0,l)
);
}
);
width = 933;
},
{
anchors = (
{
name = top;
pos = (356,700);
}
);
layerId = "DCBE1F7B-116A-43E0-B7B4-8657BA77D8B5";
shapes = (
{
closed = 1;
nodes = (
(297,-8,o),
(358,56,o),
(358,150,cs),
(358,549,ls),
(358,643,o),
(297,708,o),
(207,708,cs),
(118,708,o),
(56,643,o),
(56,549,cs),
(56,150,ls),
(56,56,o),
(118,-8,o),
(207,-8,cs)
);
},
{
closed = 1;
nodes = (
(131,13,o),
(78,69,o),
(78,149,cs),
(78,550,ls),
(78,631,o),
(131,687,o),
(207,687,cs),
(284,687,o),
(338,631,o),
(338,550,cs),
(338,149,ls),
(338,69,o),
(284,13,o),
(207,13,cs)
);
},
{
closed = 1;
nodes = (
(537,340,l),
(537,361,l),
(349,361,l),
(349,340,l)
);
},
{
closed = 1;
nodes = (
(620,0,l),
(620,21,l),
(360,21,l),
(360,679,l),
(620,679,l),
(620,700,l),
(338,700,l),
(338,0,l)
);
}
);
width = 648;
},
{
anchors = (
{
name = top;
pos = (362,700);
}
);
hints = (
{
horizontal = 1;
origin = (0,6);
type = TTSnap;
},
{
horizontal = 1;
origin = (0,13);
type = TTSnap;
},
{
horizontal = 1;
options = 4;
origin = (0,13);
target = (3,0);
type = TTShift;
},
{
horizontal = 1;
options = 4;
origin = (0,6);
target = (3,5);
type = TTShift;
},
{
horizontal = 1;
origin = (3,5);
stem = -1;
target = (3,4);
type = TTStem;
},
{
horizontal = 1;
origin = (2,0);
stem = -1;
target = (2,1);
type = TTStem;
},
{
horizontal = 1;
origin = (3,0);
stem = -1;
target = (3,1);
type = TTStem;
},
{
horizontal = 1;
origin = (0,6);
stem = -1;
target = (1,6);
type = TTStem;
},
{
horizontal = 1;
origin = (0,13);
stem = -1;
target = (1,13);
type = TTStem;
},
{
horizontal = 1;
origin = (0,13);
target = up;
type = BottomGhost;
},
{
horizontal = 1;
origin = (2,3);
target = (2,2);
type = Stem;
},
{
horizontal = 1;
origin = (3,6);
target = (3,3);
type = Stem;
},
{
horizontal = 1;
origin = (3,7);
target = (3,2);
type = Stem;
},
{
horizontal = 1;
origin = (0,6);
target = down;
type = TopGhost;
},
{
origin = (0,10);
target = (1,2);
type = Stem;
},
{
origin = (3,7);
target = (3,2);
type = Stem;
}
);
layerId = "4E2227F3-52E4-4048-A8EE-327B486EF0A4";
shapes = (
{
closed = 1;
nodes = (
(296,-10,o),
(354,74,o),
(354,206,cs),
(354,494,ls),
(354,626,o),
(296,710,o),
(192,710,cs),
(107,710,o),
(20,626,o),
(20,494,cs),
(20,206,ls),
(20,74,o),
(107,-10,o),
(192,-10,cs)
);
},
{
closed = 1;
nodes = (
(220,153,o),
(208,171,o),
(208,198,cs),
(208,502,ls),
(208,529,o),
(220,547,o),
(242,547,cs),
(264,547,o),
(276,529,o),
(276,502,cs),
(276,198,ls),
(276,171,o),
(264,153,o),
(242,153,cs)
);
},
{
closed = 1;
nodes = (
(584,270,l),
(584,431,l),
(352,431,l),
(352,270,l)
);
},
{
closed = 1;
nodes = (
(676,0,l),
(676,161,l),
(464,161,l),
(464,539,l),
(676,539,l),
(676,700,l),
(276,700,l),
(276,0,l)
);
}
);
width = 690;
}
);
unicode = 338;
},
{
glyphname = P;
kernLeft = KO_l;
kernRight = KO_P;
layers = (
{
layerId = "262880E7-CFE1-4BDA-902E-E24798F3240A";
shapes = (
{
closed = 1;
nodes = (
(122,0,l),
(122,690,l),
(113,681,l),
(360,681,ls),
(452,681,o),
(514,617,o),
(514,520,cs),
(514,425,o),
(452,361,o),
(360,361,cs),
(117,361,l),
(117,340,l),
(358,340,ls),
(465,340,o),
(536,411,o),
(536,520,cs),
(536,629,o),
(465,702,o),
(358,702,cs),
(100,702,l),
(100,0,l)
);
}
);
width = 581;
},
{
hints = (
{
horizontal = 1;
origin = (0,19);
type = TTSnap;
},
{
horizontal = 1;
origin = (0,20);
type = TTSnap;
},
{
horizontal = 1;
origin = (0,12);
stem = -1;
target = (0,9);
type = TTStem;
},
{
horizontal = 1;
origin = (0,18);
stem = -1;
target = (0,3);
type = TTStem;
},
{
horizontal = 1;
origin = (0,20);
target = up;
type = BottomGhost;
},
{
horizontal = 1;
origin = (0,11);
target = (0,10);
type = Stem;
},
{
horizontal = 1;
origin = (0,19);
target = (0,3);
type = Stem;
},
{
origin = (0,20);
target = (0,0);
type = Stem;
},
{
origin = (0,6);
target = (0,15);
type = Stem;
}
);
layerId = "4E2227F3-52E4-4048-A8EE-327B486EF0A4";
shapes = (
{
closed = 1;
nodes = (
(218,0,l),
(218,611,l),
(146,539,l),
(237,539,ls),
(266,539,o),
(287,517,o),
(287,471,cs),
(287,426,o),
(266,405,o),
(237,405,cs),
(202,405,l),
(202,260,l),
(280,260,ls),
(396,260,o),
(475,345,o),
(475,475,cs),
(475,608,o),
(392,700,o),
(270,700,cs),
(30,700,l),
(30,0,l)
);
}
);
width = 483;
},
{
layerId = "FFFA8D72-12AC-4CE0-B2CA-57A29829F4DA";
shapes = (
{
closed = 1;
nodes = (
(228,0,l),
(228,611,l),
(156,539,l),
(317,539,ls),
(366,539,o),
(399,510,o),
(399,466,cs),
(399,423,o),
(366,395,o),
(317,395,cs),
(211,395,l),
(211,245,l),
(339,245,ls),
(487,245,o),
(586,335,o),
(586,470,cs),
(586,608,o),
(491,700,o),
(348,700,cs),
(40,700,l),
(40,0,l)
);
}
);
width = 600;
},
{
layerId = "DCBE1F7B-116A-43E0-B7B4-8657BA77D8B5";
shapes = (
{
closed = 1;
nodes = (
(91,0,l),
(91,690,l),
(82,681,l),
(217,681,ls),
(291,681,o),
(340,617,o),
(340,520,cs),
(340,425,o),
(291,361,o),
(217,361,cs),
(87,361,l),
(87,340,l),
(217,340,ls),
(304,340,o),
(362,412,o),
(362,520,cs),
(362,629,o),
(304,702,o),
(217,702,cs),
(69,702,l),
(69,0,l)
);
}
);
width = 393;
}
);
unicode = 80;
userData = {
KernOnName = P;
};
},
{
glyphname = Thorn;
kernLeft = KO_l;
kernRight = KO_Thorn;
layers = (
{
layerId = "262880E7-CFE1-4BDA-902E-E24798F3240A";
shapes = (
{
closed = 1;
nodes = (
(122,0,l),
(122,700,l),
(100,700,l),
(100,0,l)
);
},
{
closed = 1;
nodes = (
(328,169,ls),
(435,169,o),
(506,240,o),
(506,349,cs),
(506,458,o),
(435,531,o),
(328,531,cs),
(122,531,l),
(122,510,l),
(330,510,ls),
(422,510,o),
(484,446,o),
(484,349,cs),
(484,254,o),
(422,190,o),
(330,190,cs),
(122,190,l),
(122,169,l)
);
}
);
width = 566;
},
{
layerId = "FFFA8D72-12AC-4CE0-B2CA-57A29829F4DA";
shapes = (
{
closed = 1;
nodes = (
(228,0,l),
(228,700,l),
(40,700,l),
(40,0,l)
);
},
{
closed = 1;
nodes = (
(329,127,ls),
(465,127,o),
(576,215,o),
(576,348,cs),
(576,481,o),
(480,573,o),
(338,573,cs),
(228,573,l),
(228,412,l),
(307,412,ls),
(355,412,o),
(389,390,o),
(389,344,cs),
(389,299,o),
(355,278,o),
(307,278,cs),
(228,278,l),
(228,127,l)
);
}
);
width = 592;
},
{
layerId = "DCBE1F7B-116A-43E0-B7B4-8657BA77D8B5";
shapes = (
{
closed = 1;
nodes = (
(91,0,l),
(91,700,l),
(69,700,l),
(69,0,l)
);
},
{
closed = 1;
nodes = (
(217,171,ls),
(304,171,o),
(362,243,o),
(362,351,cs),
(362,460,o),
(304,533,o),
(217,533,cs),
(91,533,l),
(91,512,l),
(217,512,ls),
(291,512,o),
(340,448,o),
(340,351,cs),
(340,256,o),
(291,192,o),
(217,192,cs),
(91,192,l),
(91,171,l)
);
}
);
width = 403;
},
{
hints = (
{
horizontal = 1;
origin = (0,2);
type = TTSnap;
},
{
horizontal = 1;
origin = (0,3);
type = TTSnap;
},
{
horizontal = 1;
origin = (1,9);
stem = -1;
target = (1,6);
type = TTStem;
},
{
horizontal = 1;
origin = (1,0);
stem = -1;
target = (1,15);
type = TTStem;
},
{
horizontal = 1;
origin = (0,3);
target = up;
type = BottomGhost;
},
{
horizontal = 1;
origin = (1,17);
target = (1,16);
type = Stem;
},
{
horizontal = 1;
origin = (1,8);
target = (1,7);
type = Stem;
},
{
horizontal = 1;
origin = (0,2);
target = down;
type = TopGhost;
},
{
origin = (0,3);
target = (0,0);
type = Stem;
},
{
origin = (1,12);
target = (1,3);
type = Stem;
}
);
layerId = "4E2227F3-52E4-4048-A8EE-327B486EF0A4";
shapes = (
{
closed = 1;
nodes = (
(218,0,l),
(218,700,l),
(30,700,l),
(30,0,l)
);
},
{
closed = 1;
nodes = (
(279,129,ls),
(395,129,o),
(474,215,o),
(474,346,cs),
(474,479,o),
(391,571,o),
(269,571,cs),
(218,571,l),
(218,410,l),
(236,410,ls),
(265,410,o),
(286,388,o),
(286,342,cs),
(286,297,o),
(265,276,o),
(236,276,cs),
(218,276,l),
(218,129,l)
);
}
);
width = 483;
}
);
unicode = 222;
},
{
glyphname = Q;
kernLeft = KO_Q;
kernRight = KO_D;
layers = (
{
layerId = "262880E7-CFE1-4BDA-902E-E24798F3240A";
shapes = (
{
closed = 1;
nodes = (
(408,-8,o),
(493,76,o),
(493,201,cs),
(493,499,ls),
(493,624,o),
(408,708,o),
(281,708,cs),
(154,708,o),
(69,624,o),
(69,499,cs),
(69,201,ls),
(69,76,o),
(154,-8,o),
(281,-8,cs)
);
},
{
closed = 1;
nodes = (
(292,-127,l),
(292,0,l),
(270,0,l),
(270,-127,l)
);
},
{
closed = 1;
nodes = (
(167,13,o),
(91,88,o),
(91,200,cs),
(91,500,ls),
(91,612,o),
(167,687,o),
(281,687,cs),
(395,687,o),
(471,612,o),
(471,500,cs),
(471,200,ls),
(471,88,o),
(395,13,o),
(281,13,cs)
);
}
);
width = 562;
},
{
hints = (
{
horizontal = 1;
origin = (0,13);
stem = -1;
target = (2,13);
type = TTStem;
},
{
horizontal = 1;
origin = (0,6);
stem = -1;
target = (2,6);
type = TTStem;
},
{
horizontal = 1;
origin = (0,6);
type = TTSnap;
},
{
horizontal = 1;
origin = (0,13);
type = TTSnap;
},
{
horizontal = 1;
origin = (1,3);
target = (2,13);
type = Stem;
},
{
horizontal = 1;
origin = (0,6);
target = (2,6);
type = Stem;
},
{
origin = (1,3);
target = (1,0);
type = Stem;
},
{
origin = (0,10);
target = (2,2);
type = Stem;
},
{
origin = (2,10);
target = (0,2);
type = Stem;
}
);
layerId = "4E2227F3-52E4-4048-A8EE-327B486EF0A4";
shapes = (
{
closed = 1;
nodes = (
(380,-12,o),
(467,77,o),
(467,211,cs),
(467,489,ls),
(467,623,o),
(380,712,o),
(248,712,cs),
(116,712,o),
(29,623,o),
(29,489,cs),
(29,211,ls),
(29,77,o),
(116,-12,o),
(248,-12,cs)
);
},
{
closed = 1;
nodes = (
(342,-87,l),
(342,109,l),
(153,109,l),
(153,-87,l)
);
},
{
closed = 1;
nodes = (
(229,149,o),
(217,166,o),
(217,191,cs),
(217,509,ls),
(217,534,o),
(229,551,o),
(248,551,cs),
(267,551,o),
(279,534,o),
(279,509,cs),
(279,191,ls),
(279,166,o),
(267,149,o),
(248,149,cs)
);
}
);
width = 496;
},
{
layerId = "FFFA8D72-12AC-4CE0-B2CA-57A29829F4DA";
shapes = (
{
closed = 1;
nodes = (
(458,-12,o),
(567,89,o),
(567,241,cs),
(567,444,ls),
(567,605,o),
(458,712,o),
(294,712,cs),
(131,712,o),
(22,605,o),
(22,444,cs),
(22,241,ls),
(22,89,o),
(131,-12,o),
(294,-12,cs)
);
},
{
closed = 1;
nodes = (
(389,-87,l),
(389,109,l),
(201,109,l),
(201,-87,l)
);
},
{
closed = 1;
nodes = (
(244,149,o),
(210,188,o),
(210,246,cs),
(210,454,ls),
(210,512,o),
(244,551,o),
(294,551,cs),
(345,551,o),
(379,512,o),
(379,454,cs),
(379,246,ls),
(379,188,o),
(345,149,o),
(294,149,cs)
);
}
);
width = 589;
},
{
layerId = "DCBE1F7B-116A-43E0-B7B4-8657BA77D8B5";
shapes = (
{
closed = 1;
nodes = (
(288,-8,o),
(347,57,o),
(347,151,cs),
(347,549,ls),
(347,643,o),
(288,708,o),
(202,708,cs),
(116,708,o),
(56,643,o),
(56,549,cs),
(56,151,ls),
(56,57,o),
(116,-8,o),
(202,-8,cs)
);
},
{
closed = 1;
nodes = (
(213,-127,l),
(213,0,l),
(190,0,l),
(190,-127,l)
);
},
{
closed = 1;
nodes = (
(129,13,o),
(78,69,o),
(78,150,cs),
(78,550,ls),
(78,631,o),
(129,687,o),
(202,687,cs),
(275,687,o),
(325,631,o),
(325,550,cs),
(325,150,ls),
(325,69,o),
(275,13,o),
(202,13,cs)
);
}
);
width = 403;
}
);
unicode = 81;
},
{
glyphname = R;
kernLeft = KO_l;
kernRight = KO_z;
layers = (
{
anchors = (
{
name = bottom;
pos = (293,0);
},
{
name = top;
pos = (293,700);
}
);
layerId = "262880E7-CFE1-4BDA-902E-E24798F3240A";
shapes = (
{
closed = 1;
nodes = (
(122,0,l),
(122,688,l),
(113,679,l),
(350,679,ls),
(442,679,o),
(504,615,o),
(504,520,cs),
(504,427,o),
(442,363,o),
(350,363,cs),
(117,363,l),
(117,342,l),
(348,342,ls),
(455,342,o),
(526,413,o),
(526,520,cs),
(526,627,o),
(455,700,o),
(348,700,cs),
(100,700,l),
(100,0,l)
);
},
{
closed = 1;
nodes = (
(539,0,l),
(366,355,l),
(348,347,l),
(518,0,l)
);
}
);
width = 586;
},
{
anchors = (
{
name = bottom;
pos = (245,0);
},
{
name = top;
pos = (245,700);
}
);
hints = (
{
horizontal = 1;
origin = (0,20);
type = TTSnap;
},
{
horizontal = 1;
options = 4;
origin = (0,20);
target = (1,3);
type = TTShift;
},
{
horizontal = 1;
origin = (0,19);
type = TTSnap;
},
{
horizontal = 1;
origin = (0,18);
stem = -1;
target = (0,3);
type = TTStem;
},
{
horizontal = 1;
origin = (0,12);
stem = -1;
target = (0,9);
type = TTStem;
},
{
horizontal = 1;
origin = (0,20);
target = up;
type = BottomGhost;
},
{
horizontal = 1;
origin = (0,11);
target = (0,10);
type = Stem;
},
{
horizontal = 1;
origin = (0,19);
target = (0,3);
type = Stem;
},
{
origin = (0,20);
target = (0,0);
type = Stem;
},
{
origin = (0,6);
target = (0,15);
type = Stem;
}
);
layerId = "4E2227F3-52E4-4048-A8EE-327B486EF0A4";
shapes = (
{
closed = 1;
nodes = (
(218,0,l),
(218,611,l),
(146,539,l),
(237,539,ls),
(266,539,o),
(287,518,o),
(287,475,cs),
(287,434,o),
(266,412,o),
(237,412,cs),
(202,412,l),
(202,269,l),
(280,269,ls),
(396,269,o),
(475,352,o),
(475,477,cs),
(475,608,o),
(392,700,o),
(270,700,cs),
(30,700,l),
(30,0,l)
);
},
{
closed = 1;
nodes = (
(484,0,l),
(385,349,l),
(206,349,l),
(290,0,l)
);
}
);
width = 490;
},
{
anchors = (
{
name = bottom;
pos = (299,0);
},
{
name = top;
pos = (299,700);
}
);
layerId = "FFFA8D72-12AC-4CE0-B2CA-57A29829F4DA";
shapes = (
{
closed = 1;
nodes = (
(228,0,l),
(228,611,l),
(156,539,l),
(327,539,ls),
(370,539,o),
(399,513,o),
(399,475,cs),
(399,437,o),
(370,412,o),
(327,412,cs),
(211,412,l),
(211,269,l),
(358,269,ls),
(495,269,o),
(586,352,o),
(586,477,cs),
(586,611,o),
(495,700,o),
(358,700,cs),
(40,700,l),
(40,0,l)
);
},
{
closed = 1;
nodes = (
(596,0,l),
(429,349,l),
(244,349,l),
(396,0,l)
);
}
);
width = 606;
},
{
anchors = (
{
name = bottom;
pos = (200,0);
},
{
name = top;
pos = (200,700);
}
);
layerId = "DCBE1F7B-116A-43E0-B7B4-8657BA77D8B5";
shapes = (
{
closed = 1;
nodes = (
(91,0,l),
(91,688,l),
(82,679,l),
(217,679,ls),
(291,679,o),
(340,615,o),
(340,520,cs),
(340,426,o),
(291,363,o),
(217,363,cs),
(87,363,l),
(87,342,l),
(217,342,ls),
(304,342,o),
(362,413,o),
(362,520,cs),
(362,628,o),
(304,700,o),
(217,700,cs),
(69,700,l),
(69,0,l)
);
},
{
closed = 1;
nodes = (
(367,0,l),
(236,353,l),
(217,345,l),
(345,0,l)
);
}
);
width = 423;
}
);
unicode = 82;
userData = {
KernOnName = R;
};
},
{
glyphname = S;
kernLeft = KO_S;
kernRight = KO_S;
layers = (
{
anchors = (
{
name = bottom;
pos = (284,-8);
},
{
name = top;
pos = (279,700);
}
);
layerId = "262880E7-CFE1-4BDA-902E-E24798F3240A";
shapes = (
{
closed = 1;
nodes = (
(431,-8,o),
(509,63,o),
(509,163,cs),
(509,300,o),
(401,334,o),
(296,367,cs),
(196,399,o),
(99,429,o),
(99,544,cs),
(99,622,o),
(163,687,o),
(278,687,cs),
(403,687,o),
(474,627,o),
(474,548,cs),
(474,540,l),
(496,540,l),
(496,550,ls),
(496,641,o),
(419,708,o),
(280,708,cs),
(150,708,o),
(78,635,o),
(78,544,cs),
(78,413,o),
(183,381,o),
(287,349,cs),
(388,318,o),
(487,287,o),
(487,163,cs),
(487,69,o),
(415,13,o),
(293,13,cs),
(169,13,o),
(82,71,o),
(82,179,cs),
(82,190,l),
(60,190,l),
(60,177,ls),
(60,57,o),
(156,-8,o),
(293,-8,cs)
);
}
);
width = 569;
},
{
anchors = (
{
name = bottom;
pos = (231,-8);
},
{
name = top;
pos = (227,700);
}
);
hints = (
{
horizontal = 1;
origin = (0,20);
type = TTSnap;
},
{
horizontal = 1;
origin = (0,41);
type = TTSnap;
},
{
horizontal = 1;
origin = (0,20);
stem = -1;
target = (0,11);
type = TTStem;
},
{
horizontal = 1;
origin = (0,41);
stem = -1;
target = (0,32);
type = TTStem;
},
{
horizontal = 1;
origin = (0,41);
target = (0,37);
type = Stem;
},
{
horizontal = 1;
origin = (0,20);
target = (0,15);
type = Stem;
},
{
horizontal = 1;
origin = (0,20);
target = (0,11);
type = Stem;
},
{
horizontal = 1;
origin = (0,41);
target = (0,32);
type = Stem;
},
{
origin = (0,38);
target = (0,35);
type = Stem;
},
{
origin = (0,15);
target = (0,16);
type = Stem;
},
{
origin = (0,23);
target = (0,8);
type = Stem;
},
{
origin = (0,29);
target = (0,2);
type = Stem;
}
);
layerId = "4E2227F3-52E4-4048-A8EE-327B486EF0A4";
shapes = (
{
closed = 1;
nodes = (
(358,-10,o),
(445,74,o),
(445,198,cs),
(445,304,o),
(384,351,o),
(279,428,cs),
(214,475,o),
(199,496,o),
(199,517,cs),
(199,534,o),
(208,549,o),
(227,549,cs),
(248,549,o),
(256,535,o),
(256,505,cs),
(256,476,l),
(441,476,l),
(441,509,ls),
(441,629,o),
(356,710,o),
(227,710,cs),
(99,710,o),
(14,629,o),
(14,512,cs),
(14,396,o),
(106,331,o),
(177,281,cs),
(242,235,o),
(260,219,o),
(260,185,cs),
(260,165,o),
(248,151,o),
(232,151,cs),
(215,151,o),
(202,166,o),
(202,189,cs),
(202,226,l),
(16,226,l),
(16,180,ls),
(16,69,o),
(101,-10,o),
(231,-10,cs)
);
}
);
width = 459;
},
{
anchors = (
{
name = bottom;
pos = (304,-8);
},
{
name = top;
pos = (301,708);
}
);
layerId = "FFFA8D72-12AC-4CE0-B2CA-57A29829F4DA";
shapes = (
{
closed = 1;
nodes = (
(476,-12,o),
(576,60,o),
(576,206,cs),
(576,361,o),
(441,400,o),
(337,428,cs),
(270,446,o),
(218,460,o),
(218,500,cs),
(218,534,o),
(244,558,o),
(299,558,cs),
(352,558,o),
(387,527,o),
(387,480,cs),
(387,467,l),
(572,467,l),
(572,478,ls),
(572,590,o),
(481,712,o),
(295,712,cs),
(143,712,o),
(30,637,o),
(30,500,cs),
(30,344,o),
(163,306,o),
(267,277,cs),
(333,259,o),
(388,241,o),
(388,199,cs),
(388,171,o),
(375,142,o),
(304,142,cs),
(242,142,o),
(211,184,o),
(211,232,cs),
(211,238,l),
(26,238,l),
(26,224,ls),
(26,78,o),
(125,-12,o),
(303,-12,cs)
);
}
);
width = 602;
},
{
anchors = (
{
name = bottom;
pos = (203,-8);
},
{
name = top;
pos = (197,700);
}
);
layerId = "DCBE1F7B-116A-43E0-B7B4-8657BA77D8B5";
shapes = (
{
closed = 1;
nodes = (
(289,-8,o),
(351,51,o),
(351,163,cs),
(351,267,o),
(308,300,o),
(206,378,cs),
(114,448,o),
(78,490,o),
(78,551,cs),
(78,641,o),
(130,687,o),
(197,687,cs),
(272,687,o),
(323,626,o),
(323,534,cs),
(323,510,l),
(345,510,l),
(345,535,ls),
(345,639,o),
(286,708,o),
(197,708,cs),
(117,708,o),
(56,652,o),
(56,551,cs),
(56,463,o),
(116,418,o),
(194,360,cs),
(272,302,o),
(329,259,o),
(329,156,cs),
(329,64,o),
(274,13,o),
(202,13,cs),
(130,13,o),
(78,65,o),
(78,165,cs),
(78,192,l),
(56,192,l),
(56,164,ls),
(56,52,o),
(117,-8,o),
(203,-8,cs)
);
}
);
width = 407;
}
);
unicode = 83;
userData = {
KernOnName = S;
};
},
{
color = 3;
glyphname = Schwa;
kernLeft = KO_Schwa;
kernRight = KO_Schwa;
layers = (
{
anchors = (
{
name = top;
pos = (227,699);
}
);
layerId = "DCBE1F7B-116A-43E0-B7B4-8657BA77D8B5";
shapes = (
{
closed = 1;
nodes = (
(138,708,o),
(65,642,o),
(51,548,c),
(73,549,l),
(88,632,o),
(151,687,o),
(233,687,cs),
(328,687,o),
(395,614,o),
(395,511,cs),
(395,457,o),
(395,403,o),
(395,350,cs),
(395,296,o),
(395,241,o),
(395,187,cs),
(395,84,o),
(328,10,o),
(233,10,cs),
(137,10,o),
(70,84,o),
(70,187,cs),
(70,236,o),
(70,333,o),
(70,335,c),
(60,328,l),
(404,328,l),
(404,350,l),
(48,350,l),
(48,235,o),
(48,239,o),
(48,187,cs),
(48,73,o),
(124,-11,o),
(233,-11,cs),
(340,-11,o),
(417,72,o),
(417,187,cs),
(417,241,o),
(417,296,o),
(417,350,cs),
(417,403,o),
(417,456,o),
(417,510,cs),
(417,624,o),
(341,708,o),
(233,708,cs)
);
}
);
width = 472;
},
{
anchors = (
{
name = top;
pos = (278,718);
}
);
hints = (
{
horizontal = 1;
origin = (0,46);
type = TTSnap;
},
{
horizontal = 1;
origin = (0,46);
stem = -1;
target = (0,6);
type = TTStem;
},
{
horizontal = 1;
origin = (0,34);
stem = -1;
target = (0,18);
type = TTStem;
},
{
horizontal = 1;
origin = (0,34);
type = TTSnap;
},
{
horizontal = 1;
origin = (0,25);
target = (0,28);
type = Stem;
},
{
horizontal = 1;
origin = (0,46);
target = (0,6);
type = Stem;
},
{
horizontal = 1;
origin = (0,34);
target = (0,18);
type = Stem;
},
{
origin = (0,31);
target = (0,21);
type = Stem;
},
{
origin = (0,15);
target = (0,37);
type = Stem;
},
{
origin = (0,2);
target = (0,3);
type = Stem;
}
);
layerId = "4E2227F3-52E4-4048-A8EE-327B486EF0A4";
shapes = (
{
closed = 1;
nodes = (
(112,710,o),
(26,628,o),
(20,479,c),
(203,468,l),
(207,510,o),
(233,548,o),
(277,548,cs),
(319,548,o),
(349,513,o),
(349,463,cs),
(349,422,o),
(349,400,o),
(349,359,cs),
(349,323,o),
(349,239,o),
(349,237,cs),
(349,186,o),
(319,151,o),
(277,151,cs),
(234,151,o),
(204,187,o),
(204,237,cs),
(204,272,o),
(204,285,o),
(204,315,c),
(141,279,l),
(400,279,l),
(400,400,l),
(17,400,l),
(17,375,o),
(17,296,o),
(17,223,cs),
(17,85,o),
(113,-10,o),
(277,-10,cs),
(440,-10,o),
(537,85,o),
(537,223,cs),
(537,262,o),
(537,319,o),
(537,359,cs),
(537,404,o),
(537,431,o),
(537,477,cs),
(537,621,o),
(440,710,o),
(277,710,cs)
);
}
);
width = 556;
},
{
anchors = (
{
name = top;
pos = (286,603);
}
);
associatedMasterId = "4E2227F3-52E4-4048-A8EE-327B486EF0A4";
attr = {
coordinates = (
100,
500
);
};
hints = (
{
horizontal = 1;
origin = (0,34);
target = (0,18);
type = Stem;
},
{
horizontal = 1;
origin = (0,25);
target = (0,28);
type = Stem;
},
{
horizontal = 1;
origin = (0,6);
target = (0,46);
type = Stem;
},
{
place = (43, 101);
place = (43, 101);
type = Stem;
},
{
place = (442, 100);
place = (442, 100);
type = Stem;
},
{
origin = (0,12);
target = (0,40);
type = Stem;
}
);
layerId = "2A2B9E74-0281-441B-9A83-648CC11D66AE";
name = "{100,500}";
shapes = (
{
closed = 1;
nodes = (
(173,613,o),
(91,563,o),
(51,484,c),
(129,430,l),
(156,487,o),
(207,525,o),
(274,526,cs),
(358,527,o),
(410,484,o),
(428,421,cs),
(437,396,o),
(440,358,o),
(440,302,cs),
(440,252,o),
(438,210,o),
(431,183,cs),
(415,120,o),
(366,77,o),
(291,77,cs),
(215,77,o),
(163,121,o),
(148,186,cs),
(142,210,o),
(140,253,o),
(140,295,c),
(101,251,l),
(471,251,l),
(471,337,l),
(40,337,l),
(39,274,o),
(39,236,o),
(45,199,cs),
(65,75,o),
(151,-10,o),
(292,-10,cs),
(410,-10,o),
(497,59,o),
(526,161,cs),
(536,199,o),
(539,239,o),
(539,298,cs),
(539,360,o),
(535,406,o),
(521,448,cs),
(487,549,o),
(403,612,o),
(284,612,cs)
);
}
);
width = 584;
},
{
anchors = (
{
name = top;
pos = (251,708);
}
);
associatedMasterId = "4E2227F3-52E4-4048-A8EE-327B486EF0A4";
attr = {
coordinates = (
100,
300
);
};
hints = (
{
horizontal = 1;
origin = (0,46);
type = TTSnap;
},
{
horizontal = 1;
origin = (0,46);
stem = -1;
target = (0,6);
type = TTStem;
},
{
horizontal = 1;
origin = (0,34);
stem = -1;
target = (0,18);
type = TTStem;
},
{
horizontal = 1;
origin = (0,34);
type = TTSnap;
},
{
horizontal = 1;
origin = (0,25);
target = (0,28);
type = Stem;
},
{
horizontal = 1;
origin = (0,46);
target = (0,6);
type = Stem;
},
{
horizontal = 1;
origin = (0,34);
target = (0,18);
type = Stem;
},
{
origin = (0,31);
target = (0,21);
type = Stem;
},
{
origin = (0,15);
target = (0,37);
type = Stem;
},
{
origin = (0,2);
target = (0,3);
type = Stem;
}
);
layerId = "08201EB5-B49F-440A-802B-CA47CCD12539";
name = "{100,300}";
shapes = (
{
closed = 1;
nodes = (
(126,709,o),
(47,635,o),
(36,516,c),
(134,511,l),
(144,575,o),
(190,622,o),
(254,622,cs),
(324,622,o),
(373,567,o),
(373,488,cs),
(373,441,o),
(373,402,o),
(373,354,cs),
(373,309,o),
(373,240,o),
(373,210,cs),
(373,132,o),
(324,76,o),
(254,76,cs),
(183,76,o),
(133,132,o),
(133,210,cs),
(133,253,o),
(133,310,o),
(133,326,c),
(98,305,l),
(402,305,l),
(402,383,l),
(33,383,l),
(33,311,o),
(33,266,o),
(33,204,cs),
(33,79,o),
(119,-11,o),
(254,-11,cs),
(387,-11,o),
(473,78,o),
(473,204,cs),
(473,251,o),
(473,307,o),
(473,354,cs),
(473,403,o),
(473,444,o),
(473,494,cs),
(473,623,o),
(388,709,o),
(254,709,cs)
);
}
);
width = 511;
},
{
anchors = (
{
name = top;
pos = (239,500);
}
);
layerId = "262880E7-CFE1-4BDA-902E-E24798F3240A";
shapes = (
{
closed = 1;
nodes = (
(151,508,o),
(86,456,o),
(66,384,c),
(88,383,l),
(107,444,o),
(163,487,o),
(242,487,cs),
(327,487,o),
(384,437,o),
(398,365,cs),
(402,344,o),
(402,307,o),
(402,250,cs),
(402,198,o),
(402,157,o),
(398,135,cs),
(385,64,o),
(327,13,o),
(242,13,cs),
(157,13,o),
(99,64,o),
(85,135,cs),
(81,155,o),
(80,198,o),
(80,242,c),
(71,233,l),
(412,233,l),
(412,253,l),
(58,253,l),
(58,167,o),
(58,150,o),
(64,123,cs),
(81,46,o),
(149,-8,o),
(242,-8,cs),
(334,-8,o),
(399,46,o),
(417,123,cs),
(424,155,o),
(424,190,o),
(424,249,cs),
(424,305,o),
(425,344,o),
(417,377,cs),
(398,454,o),
(334,508,o),
(242,508,cs)
);
}
);
width = 491;
},
{
anchors = (
{
name = top;
pos = (340,719);
}
);
guides = (
{
pos = (790,79);
},
{
pos = (1448,267);
},
{
pos = (1190,193);
},
{
pos = (1578,306);
},
{
pos = (907,113);
}
);
layerId = "FFFA8D72-12AC-4CE0-B2CA-57A29829F4DA";
shapes = (
{
closed = 1;
nodes = (
(198,731,o),
(97,684,o),
(35,596,c),
(157,480,l),
(189,534,o),
(236,568,o),
(310,569,cs),
(393,570,o),
(439,538,o),
(462,485,cs),
(476,454,o),
(482,416,o),
(482,360,cs),
(482,313,o),
(478,269,o),
(468,238,cs),
(450,183,o),
(410,150,o),
(347,150,cs),
(280,150,o),
(235,186,o),
(219,243,cs),
(211,271,o),
(208,315,o),
(208,354,c),
(136,293,l),
(537,293,l),
(537,420,l),
(20,420,l),
(18,382,o),
(17,333,o),
(24,284,cs),
(48,108,o),
(154,-12,o),
(348,-12,cs),
(496,-12,o),
(607,73,o),
(649,204,cs),
(663,248,o),
(668,295,o),
(668,354,cs),
(668,422,o),
(659,475,o),
(638,529,cs),
(588,657,o),
(480,729,o),
(331,730,cs)
);
}
);
width = 689;
},
{
anchors = (
{
name = top;
pos = (310,719);
}
);
associatedMasterId = "262880E7-CFE1-4BDA-902E-E24798F3240A";
attr = {
coordinates = (
188,
400
);
};
layerId = "77539BFB-0A83-4960-9558-E507C43AA1DE";
name = "{188,400}";
shapes = (
{
closed = 1;
nodes = (
(156,710,o),
(62,646,o),
(28,528,c),
(181,464,l),
(199,512,o),
(235,548,o),
(294,549,cs),
(357,550,o),
(394,516,o),
(406,464,cs),
(414,428,o),
(416,408,o),
(416,360,cs),
(416,318,o),
(414,254,o),
(409,237,cs),
(400,184,o),
(365,150,o),
(313,150,cs),
(258,150,o),
(220,186,o),
(212,240,cs),
(208,271,o),
(207,310,o),
(207,345,c),
(139,296,l),
(469,296,l),
(469,420,l),
(19,420,l),
(17,360,o),
(18,306,o),
(24,257,cs),
(43,89,o),
(118,-12,o),
(313,-12,cs),
(484,-12,o),
(564,72,o),
(592,218,cs),
(600,259,o),
(603,306,o),
(603,357,cs),
(603,405,o),
(598,451,o),
(589,490,cs),
(556,629,o),
(463,710,o),
(305,710,cs)
);
}
);
width = 623;
}
);
unicode = 399;
},
{
glyphname = T;
kernLeft = KO_T;
kernRight = KO_T;
layers = (
{
anchors = (
{
name = bottom;
pos = (245,0);
},
{
name = top;
pos = (240,700);
}
);
layerId = "262880E7-CFE1-4BDA-902E-E24798F3240A";
shapes = (
{
closed = 1;
nodes = (
(251,0,l),
(251,689,l),
(229,689,l),
(229,0,l)
);
},
{
closed = 1;
nodes = (
(470,679,l),
(470,700,l),
(20,700,l),
(20,679,l)
);
}
);
width = 490;
},
{
anchors = (
{
name = bottom;
pos = (233,0);
},
{
name = top;
pos = (242,700);
}
);
hints = (
{
horizontal = 1;
origin = (1,1);
type = TTSnap;
},
{
horizontal = 1;
origin = (0,0);
type = TTSnap;
},
{
horizontal = 1;
origin = (1,1);
stem = -1;
target = (1,0);
type = TTStem;
},
{
horizontal = 1;
origin = (0,3);
target = up;
type = BottomGhost;
},
{
horizontal = 1;
origin = (1,2);
target = (1,3);
type = Stem;
},
{
origin = (0,3);
target = (0,0);
type = Stem;
}
);
layerId = "4E2227F3-52E4-4048-A8EE-327B486EF0A4";
shapes = (
{
closed = 1;
nodes = (
(332,0,l),
(332,689,l),
(144,689,l),
(144,0,l)
);
},
{
closed = 1;
nodes = (
(471,539,l),
(471,700,l),
(8,700,l),
(8,539,l)
);
}
);
width = 479;
},
{
anchors = (
{
name = bottom;
pos = (288,0);
},
{
name = top;
pos = (289,700);
}
);
layerId = "FFFA8D72-12AC-4CE0-B2CA-57A29829F4DA";
shapes = (
{
closed = 1;
nodes = (
(383,0,l),
(383,689,l),
(195,689,l),
(195,0,l)
);
},
{
closed = 1;
nodes = (
(571,538,l),
(571,700,l),
(12,700,l),
(12,538,l)
);
}
);
width = 583;
},
{
anchors = (
{
name = bottom;
pos = (171,-4);
},
{
name = top;
pos = (168,700);
}
);
layerId = "DCBE1F7B-116A-43E0-B7B4-8657BA77D8B5";
shapes = (
{
closed = 1;
nodes = (
(178,0,l),
(178,689,l),
(156,689,l),
(156,0,l)
);
},
{
closed = 1;
nodes = (
(327,679,l),
(327,700,l),
(16,700,l),
(16,679,l)
);
}
);
width = 343;
}
);
unicode = 84;
userData = {
KernOnName = T;
};
},
{
glyphname = U;
kernLeft = KO_U;
kernRight = KO_U;
layers = (
{
anchors = (
{
name = bottom;
pos = (319,0);
},
{
name = ogonek;
pos = (326,-5);
},
{
name = top;
pos = (317,700);
},
{
name = topright;
pos = (579,700);
}
);
layerId = "262880E7-CFE1-4BDA-902E-E24798F3240A";
shapes = (
{
closed = 1;
nodes = (
(451,-8,o),
(540,77,o),
(540,205,cs),
(540,700,l),
(518,700,l),
(518,202,ls),
(518,89,o),
(438,13,o),
(317,13,cs),
(197,13,o),
(117,89,o),
(117,202,cs),
(117,700,l),
(95,700,l),
(95,205,ls),
(95,77,o),
(184,-8,o),
(317,-8,cs)
);
}
);
width = 635;
},
{
anchors = (
{
name = bottom;
pos = (245,0);
},
{
name = ogonek;
pos = (267,10);
},
{
name = top;
pos = (244,700);
},
{
name = topright;
pos = (466,700);
}
);
hints = (
{
horizontal = 1;
origin = (0,13);
type = TTSnap;
},
{
horizontal = 1;
origin = (0,17);
type = TTSnap;
},
{
horizontal = 1;
origin = (0,17);
stem = -1;
target = (0,8);
type = TTStem;
},
{
horizontal = 1;
origin = (0,17);
target = (0,8);
type = Stem;
},
{
horizontal = 1;
origin = (0,13);
target = down;
type = TopGhost;
},
{
origin = (0,14);
target = (0,11);
type = Stem;
},
{
origin = (0,5);
target = (0,2);
type = Stem;
}
);
layerId = "4E2227F3-52E4-4048-A8EE-327B486EF0A4";
shapes = (
{
closed = 1;
nodes = (
(374,-10,o),
(461,76,o),
(461,206,cs),
(461,700,l),
(273,700,l),
(273,188,ls),
(273,167,o),
(262,151,o),
(244,151,cs),
(226,151,o),
(215,167,o),
(215,188,cs),
(215,700,l),
(27,700,l),
(27,206,ls),
(27,76,o),
(114,-10,o),
(244,-10,cs)
);
}
);
width = 488;
},
{
anchors = (
{
name = bottom;
pos = (310,0);
},
{
name = ogonek;
pos = (344,13);
},
{
name = top;
pos = (309,700);
},
{
name = topright;
pos = (597,700);
}
);
layerId = "FFFA8D72-12AC-4CE0-B2CA-57A29829F4DA";
shapes = (
{
closed = 1;
nodes = (
(473,-12,o),
(582,88,o),
(582,239,cs),
(582,700,l),
(394,700,l),
(394,239,ls),
(394,185,o),
(360,149,o),
(309,149,cs),
(257,149,o),
(223,185,o),
(223,239,cs),
(223,700,l),
(35,700,l),
(35,239,ls),
(35,88,o),
(145,-12,o),
(309,-12,cs)
);
}
);
width = 617;
},
{
anchors = (
{
name = bottom;
pos = (219,0);
},
{
name = ogonek;
pos = (225,-8);
},
{
name = top;
pos = (217,700);
},
{
name = topright;
pos = (402,700);
}
);
layerId = "DCBE1F7B-116A-43E0-B7B4-8657BA77D8B5";
shapes = (
{
closed = 1;
nodes = (
(309,-8,o),
(371,65,o),
(371,175,cs),
(371,700,l),
(349,700,l),
(349,172,ls),
(349,77,o),
(296,13,o),
(217,13,cs),
(139,13,o),
(87,77,o),
(87,172,cs),
(87,700,l),
(65,700,l),
(65,175,ls),
(65,65,o),
(126,-8,o),
(217,-8,cs)
);
}
);
width = 436;
}
);
unicode = 85;
},
{
glyphname = V;
kernLeft = KO_V;
kernRight = KO_V;
layers = (
{
layerId = "262880E7-CFE1-4BDA-902E-E24798F3240A";
shapes = (
{
closed = 1;
nodes = (
(285,0,l),
(517,700,l),
(496,700,l),
(271,24,l),
(277,24,l),
(54,700,l),
(32,700,l),
(263,0,l)
);
}
);
width = 549;
},
{
hints = (
{
horizontal = 1;
origin = (0,6);
type = TTSnap;
},
{
horizontal = 1;
origin = (0,7);
type = TTSnap;
},
{
horizontal = 1;
origin = (0,7);
target = up;
type = BottomGhost;
},
{
horizontal = 1;
origin = (0,6);
target = down;
type = TopGhost;
}
);
layerId = "4E2227F3-52E4-4048-A8EE-327B486EF0A4";
shapes = (
{
closed = 1;
nodes = (
(348,0,l),
(496,700,l),
(298,700,l),
(244,233,l),
(261,233,l),
(202,700,l),
(-1,700,l),
(145,0,l)
);
}
);
width = 494;
},
{
layerId = "FFFA8D72-12AC-4CE0-B2CA-57A29829F4DA";
shapes = (
{
closed = 1;
nodes = (
(432,0,l),
(670,700,l),
(472,700,l),
(323,171,l),
(356,171,l),
(203,700,l),
(1,700,l),
(237,0,l)
);
}
);
width = 671;
},
{
layerId = "DCBE1F7B-116A-43E0-B7B4-8657BA77D8B5";
shapes = (
{
closed = 1;
nodes = (
(204,0,l),
(353,700,l),
(331,700,l),
(191,33,l),
(195,33,l),
(55,700,l),
(32,700,l),
(182,0,l)
);
}
);
width = 385;
}
);
unicode = 86;
userData = {
KernOnName = V;
};
},
{
color = 3;
glyphname = W;
kernLeft = KO_V;
kernRight = KO_V;
layers = (
{
anchors = (
{
name = top;
pos = (443,700);
}
);
layerId = "262880E7-CFE1-4BDA-902E-E24798F3240A";
shapes = (
{
closed = 1;
nodes = (
(261,0,l),
(444,675,l),
(440,675,l),
(623,0,l),
(645,0,l),
(856,700,l),
(834,700,l),
(632,31,l),
(638,31,l),
(452,700,l),
(430,700,l),
(249,31,l),
(254,31,l),
(55,700,l),
(33,700,l),
(239,0,l)
);
}
);
width = 889;
},
{
anchors = (
{
name = top;
pos = (339,700);
}
);
hints = (
{
horizontal = 1;
origin = (0,15);
type = TTSnap;
},
{
horizontal = 1;
origin = (0,14);
type = TTSnap;
},
{
horizontal = 1;
origin = (0,15);
target = up;
type = BottomGhost;
},
{
horizontal = 1;
origin = (0,14);
target = down;
type = TopGhost;
}
);
layerId = "4E2227F3-52E4-4048-A8EE-327B486EF0A4";
shapes = (
{
closed = 1;
nodes = (
(305,0,l),
(352,434,l),
(334,434,l),
(392,0,l),
(558,0,l),
(692,700,l),
(502,700,l),
(462,281,l),
(479,281,l),
(421,700,l),
(271,700,l),
(220,281,l),
(237,281,l),
(190,700,l),
(-4,700,l),
(138,0,l)
);
}
);
width = 688;
},
{
anchors = (
{
name = top;
pos = (452,700);
}
);
layerId = "FFFA8D72-12AC-4CE0-B2CA-57A29829F4DA";
shapes = (
{
closed = 1;
nodes = (
(384,0,l),
(469,443,l),
(433,443,l),
(530,0,l),
(717,0,l),
(902,700,l),
(701,700,l),
(604,277,l),
(636,277,l),
(539,700,l),
(366,700,l),
(278,277,l),
(311,278,l),
(202,700,l),
(1,700,l),
(208,0,l)
);
}
);
width = 903;
},
{
anchors = (
{
name = top;
pos = (291,700);
}
);
layerId = "DCBE1F7B-116A-43E0-B7B4-8657BA77D8B5";
shapes = (
{
closed = 1;
nodes = (
(187,0,l),
(292,665,l),
(290,665,l),
(394,0,l),
(417,0,l),
(543,700,l),
(519,700,l),
(405,31,l),
(408,31,l),
(302,700,l),
(279,700,l),
(176,31,l),
(179,31,l),
(55,700,l),
(32,700,l),
(165,0,l)
);
}
);
width = 575;
},
{
anchors = (
{
name = top;
pos = (328,700);
}
);
associatedMasterId = "4E2227F3-52E4-4048-A8EE-327B486EF0A4";
attr = {
coordinates = (
150,
300
);
};
hints = (
{
horizontal = 1;
origin = (0,15);
target = up;
type = BottomGhost;
},
{
horizontal = 1;
origin = (0,14);
target = down;
type = TopGhost;
}
);
layerId = "D22352A1-5D91-4C5D-8547-45DDB8692B1B";
name = "{150,300}";
shapes = (
{
closed = 1;
nodes = (
(282,0,l),
(342,426,l),
(329,425,l),
(397,0,l),
(535,0,l),
(667,700,l),
(516,700,l),
(458,286,l),
(471,287,l),
(403,700,l),
(272,700,l),
(210,286,l),
(224,287,l),
(159,700,l),
(4,700,l),
(144,0,l)
);
}
);
width = 671;
},
{
anchors = (
{
name = top;
pos = (450,700);
}
);
associatedMasterId = "4E2227F3-52E4-4048-A8EE-327B486EF0A4";
attr = {
coordinates = (
150,
500
);
};
hints = (
{
horizontal = 1;
origin = (0,15);
type = TTSnap;
},
{
horizontal = 1;
origin = (0,14);
type = TTSnap;
},
{
horizontal = 1;
origin = (0,15);
target = up;
type = BottomGhost;
},
{
horizontal = 1;
origin = (0,14);
target = down;
type = TopGhost;
}
);
layerId = "57C718F0-B010-4458-8453-AE0C9B5C9C77";
name = "{150,500}";
shapes = (
{
closed = 1;
nodes = (
(356,0,l),
(463,496,l),
(435,496,l),
(551,0,l),
(701,0,l),
(891,700,l),
(731,700,l),
(610,221,l),
(636,221,l),
(519,700,l),
(381,700,l),
(271,221,l),
(298,221,l),
(168,700,l),
(8,700,l),
(215,0,l)
);
}
);
width = 900;
}
);
unicode = 87;
},
{
glyphname = X;
kernLeft = KO_x;
kernRight = KO_K;
layers = (
{
layerId = "262880E7-CFE1-4BDA-902E-E24798F3240A";
shapes = (
{
closed = 1;
nodes = (
(58,0,l),
(280,340,l),
(270,340,l),
(491,0,l),
(516,0,l),
(280,357,l),
(280,341,l),
(516,700,l),
(491,700,l),
(270,359,l),
(280,359,l),
(58,700,l),
(33,700,l),
(269,342,l),
(269,358,l),
(33,0,l)
);
}
);
width = 549;
},
{
hints = (
{
horizontal = 1;
origin = (0,12);
type = TTSnap;
},
{
horizontal = 1;
origin = (0,15);
type = TTSnap;
},
{
horizontal = 1;
origin = (0,15);
target = up;
type = BottomGhost;
},
{
horizontal = 1;
origin = (0,12);
target = down;
type = TopGhost;
},
{
origin = (0,15);
target = (0,4);
type = Stem;
}
);
layerId = "4E2227F3-52E4-4048-A8EE-327B486EF0A4";
shapes = (
{
closed = 1;
nodes = (
(193,0,l),
(263,231,l),
(221,231,l),
(291,0,l),
(481,0,l),
(314,417,l),
(314,283,l),
(481,700,l),
(290,700,l),
(222,468,l),
(262,468,l),
(194,700,l),
(2,700,l),
(169,283,l),
(169,417,l),
(2,0,l)
);
}
);
width = 483;
},
{
layerId = "FFFA8D72-12AC-4CE0-B2CA-57A29829F4DA";
shapes = (
{
closed = 1;
nodes = (
(205,0,l),
(347,270,l),
(279,270,l),
(421,0,l),
(624,0,l),
(396,413,l),
(396,287,l),
(624,700,l),
(420,700,l),
(280,429,l),
(346,429,l),
(206,700,l),
(1,700,l),
(230,287,l),
(230,413,l),
(1,0,l)
);
}
);
width = 625;
},
{
layerId = "DCBE1F7B-116A-43E0-B7B4-8657BA77D8B5";
shapes = (
{
closed = 1;
nodes = (
(57,0,l),
(197,339,l),
(189,339,l),
(328,0,l),
(353,0,l),
(199,358,l),
(199,340,l),
(353,700,l),
(328,700,l),
(189,360,l),
(197,360,l),
(57,700,l),
(32,700,l),
(185,341,l),
(185,359,l),
(32,0,l)
);
}
);
width = 385;
}
);
unicode = 88;
userData = {
KernOnName = X;
};
},
{
glyphname = Y;
kernLeft = KO_V;
kernRight = KO_V;
layers = (
{
anchors = (
{
name = bottom;
pos = (261,0);
},
{
name = top;
pos = (261,699);
},
{
name = topleft;
pos = (15,700);
}
);
layerId = "262880E7-CFE1-4BDA-902E-E24798F3240A";
shapes = (
{
closed = 1;
nodes = (
(272,0,l),
(272,339,l),
(489,700,l),
(467,700,l),
(256,350,l),
(266,350,l),
(55,700,l),
(33,700,l),
(250,339,l),
(250,0,l)
);
}
);
width = 522;
},
{
anchors = (
{
name = bottom;
pos = (241,0);
},
{
name = top;
pos = (241,700);
},
{
name = topleft;
pos = (7,700);
}
);
hints = (
{
horizontal = 1;
origin = (0,7);
type = TTSnap;
},
{
horizontal = 1;
origin = (0,9);
type = TTSnap;
},
{
horizontal = 1;
origin = (0,7);
target = down;
type = TopGhost;
},
{
origin = (0,9);
target = (0,0);
type = Stem;
}
);
layerId = "4E2227F3-52E4-4048-A8EE-327B486EF0A4";
shapes = (
{
closed = 1;
nodes = (
(334,2,l),
(334,251,l),
(483,700,l),
(285,700,l),
(227,400,l),
(255,400,l),
(197,700,l),
(-1,700,l),
(146,251,l),
(146,2,l)
);
}
);
width = 482;
},
{
anchors = (
{
name = bottom;
pos = (310,0);
},
{
name = top;
pos = (309,700);
},
{
name = topleft;
pos = (4,700);
}
);
layerId = "FFFA8D72-12AC-4CE0-B2CA-57A29829F4DA";
shapes = (
{
closed = 1;
nodes = (
(402,2,l),
(402,241,l),
(617,700,l),
(412,700,l),
(282,374,l),
(336,374,l),
(206,700,l),
(2,700,l),
(215,241,l),
(215,2,l)
);
}
);
width = 619;
},
{
anchors = (
{
name = bottom;
pos = (183,0);
},
{
name = top;
pos = (183,700);
},
{
name = topleft;
pos = (8,700);
}
);
layerId = "DCBE1F7B-116A-43E0-B7B4-8657BA77D8B5";
shapes = (
{
closed = 1;
nodes = (
(194,0,l),
(194,339,l),
(335,700,l),
(312,700,l),
(180,349,l),
(186,349,l),
(53,700,l),
(30,700,l),
(172,339,l),
(172,0,l)
);
}
);
width = 365;
}
);
unicode = 89;
userData = {
KernOnName = Y;
};
},
{
glyphname = Z;
kernLeft = KO_x;
kernRight = KO_E;
layers = (
{
anchors = (
{
name = top;
pos = (251,700);
}
);
layerId = "262880E7-CFE1-4BDA-902E-E24798F3240A";
shapes = (
{
closed = 1;
nodes = (
(470,0,l),
(470,21,l),
(60,21,l),
(64,13,l),
(470,679,l),
(470,700,l),
(44,700,l),
(44,679,l),
(455,679,l),
(451,687,l),
(44,21,l),
(44,0,l)
);
}
);
width = 514;
},
{
anchors = (
{
name = top;
pos = (213,700);
}
);
hints = (
{
horizontal = 1;
origin = (0,6);
stem = -1;
target = (0,7);
type = TTStem;
},
{
horizontal = 1;
origin = (0,6);
type = TTSnap;
},
{
horizontal = 1;
origin = (0,0);
stem = -1;
target = (0,1);
type = TTStem;
},
{
horizontal = 1;
origin = (0,11);
type = TTSnap;
},
{
horizontal = 1;
origin = (0,11);
target = (0,10);
type = Stem;
},
{
horizontal = 1;
origin = (0,6);
target = (0,7);
type = Stem;
},
{
origin = (0,11);
target = (0,0);
type = Stem;
}
);
layerId = "4E2227F3-52E4-4048-A8EE-327B486EF0A4";
shapes = (
{
closed = 1;
nodes = (
(413,0,l),
(413,161,l),
(139,161,l),
(177,97,l),
(413,539,l),
(413,700,l),
(15,700,l),
(15,539,l),
(287,539,l),
(249,603,l),
(15,161,l),
(15,0,l)
);
}
);
width = 427;
},
{
anchors = (
{
name = top;
pos = (284,700);
}
);
layerId = "FFFA8D72-12AC-4CE0-B2CA-57A29829F4DA";
shapes = (
{
closed = 1;
nodes = (
(535,0,l),
(535,161,l),
(158,161,l),
(188,105,l),
(535,540,l),
(535,700,l),
(24,700,l),
(24,539,l),
(399,539,l),
(369,595,l),
(24,160,l),
(24,0,l)
);
}
);
width = 559;
},
{
anchors = (
{
name = top;
pos = (178,700);
}
);
layerId = "DCBE1F7B-116A-43E0-B7B4-8657BA77D8B5";
shapes = (
{
closed = 1;
nodes = (
(321,0,l),
(321,21,l),
(45,21,l),
(50,12,l),
(321,679,l),
(321,700,l),
(29,700,l),
(29,679,l),
(306,679,l),
(301,688,l),
(29,21,l),
(29,0,l)
);
}
);
width = 350;
}
);
unicode = 90;
},
{
color = 3;
glyphname = a;
kernLeft = KO_a;
kernRight = KO_a;
layers = (
{
anchors = (
{
name = bottom;
pos = (179,0);
},
{
name = ogonek;
pos = (296,0);
},
{
name = top;
pos = (179,500);
}
);
layerId = "DCBE1F7B-116A-43E0-B7B4-8657BA77D8B5";
shapes = (
{
closed = 1;
nodes = (
(215,-8,o),
(268,17,o),
(291,73,c),
(288,76,l),
(288,0,l),
(310,0,l),
(310,362,ls),
(310,442,o),
(271,508,o),
(184,508,cs),
(104,508,o),
(50,461,o),
(47,388,c),
(70,385,l),
(70,446,o),
(115,487,o),
(183,487,cs),
(256,487,o),
(288,430,o),
(288,365,cs),
(288,142,ls),
(288,52,o),
(224,13,o),
(161,13,cs),
(104,13,o),
(59,45,o),
(59,127,cs),
(59,220,o),
(115,264,o),
(193,264,cs),
(293,264,l),
(293,285,l),
(191,285,ls),
(102,285,o),
(37,237,o),
(37,126,cs),
(37,18,o),
(101,-8,o),
(158,-8,cs)
);
}
);
width = 368;
},
{
anchors = (
{
name = bottom;
pos = (230,0);
},
{
name = ogonek;
pos = (372,0);
},
{
name = top;
pos = (230,520);
}
);
hints = (
{
horizontal = 1;
origin = (0,9);
stem = -1;
target = (0,16);
type = TTStem;
},
{
horizontal = 1;
origin = (0,9);
type = TTSnap;
},
{
horizontal = 1;
origin = (0,38);
type = TTSnap;
},
{
horizontal = 1;
options = 4;
origin = (0,38);
target = (0,4);
type = TTShift;
},
{
horizontal = 1;
origin = (0,38);
stem = -1;
target = (0,23);
type = TTStem;
},
{
horizontal = 1;
options = 4;
origin = (0,16);
other1 = (0,29);
target = (0,23);
type = TTInterpolate;
},
{
horizontal = 1;
origin = (0,4);
target = (0,23);
type = Stem;
},
{
horizontal = 1;
origin = (0,29);
target = (0,32);
type = Stem;
},
{
horizontal = 1;
origin = (0,16);
target = (0,9);
type = Stem;
},
{
origin = (0,35);
target = (0,26);
type = Stem;
},
{
origin = (0,4);
target = (0,5);
type = Stem;
},
{
origin = (0,12);
target = (0,26);
type = Stem;
}
);
layerId = "4E2227F3-52E4-4048-A8EE-327B486EF0A4";
shapes = (
{
closed = 1;
nodes = (
(222,-9,o),
(259,30,o),
(276,94,c),
(257,94,l),
(257,0,l),
(445,0,l),
(445,355,ls),
(445,469,o),
(358,530,o),
(231,530,cs),
(101,530,o),
(23,459,o),
(23,339,c),
(200,337,l),
(200,358,o),
(210,370,o),
(230,370,cs),
(248,370,o),
(257,357,o),
(257,337,cs),
(257,175,ls),
(257,157,o),
(245,145,o),
(226,145,cs),
(211,145,o),
(200,156,o),
(200,175,cs),
(200,195,o),
(212,205,o),
(234,205,cs),
(273,205,l),
(273,309,l),
(217,309,ls),
(91,309,o),
(8,297,o),
(8,151,cs),
(8,5,o),
(82,-11,o),
(149,-10,cs)
);
}
);
width = 465;
},
{
anchors = (
{
name = bottom;
pos = (240,0);
},
{
name = ogonek;
pos = (393,0);
},
{
name = top;
pos = (240,500);
}
);
layerId = "262880E7-CFE1-4BDA-902E-E24798F3240A";
shapes = (
{
closed = 1;
nodes = (
(285,-8,o),
(358,19,o),
(389,78,c),
(386,82,l),
(386,0,l),
(408,0,l),
(408,342,ls),
(408,442,o),
(359,508,o),
(243,508,cs),
(149,508,o),
(84,462,o),
(74,392,c),
(96,388,l),
(103,449,o),
(159,487,o),
(240,487,cs),
(346,487,o),
(386,425,o),
(386,345,cs),
(386,142,ls),
(386,52,o),
(296,13,o),
(212,13,cs),
(135,13,o),
(73,49,o),
(73,129,cs),
(73,219,o),
(138,261,o),
(273,261,cs),
(391,261,l),
(391,282,l),
(276,282,ls),
(119,282,o),
(51,230,o),
(51,128,cs),
(51,28,o),
(133,-8,o),
(213,-8,cs)
);
}
);
width = 495;
},
{
anchors = (
{
name = bottom;
pos = (272,0);
},
{
name = ogonek;
pos = (431,0);
},
{
name = top;
pos = (272,520);
}
);
layerId = "FFFA8D72-12AC-4CE0-B2CA-57A29829F4DA";
shapes = (
{
closed = 1;
nodes = (
(277,-12,o),
(322,23,o),
(334,99,c),
(321,135,l),
(321,0,l),
(509,0,l),
(509,336,ls),
(509,464,o),
(398,532,o),
(268,532,cs),
(129,532,o),
(35,453,o),
(27,344,c),
(208,330,l),
(213,354,o),
(231,375,o),
(265,375,cs),
(298,375,o),
(321,354,o),
(321,320,cs),
(321,185,ls),
(321,145,o),
(289,122,o),
(250,122,cs),
(216,122,o),
(203,140,o),
(203,163,cs),
(203,193,o),
(225,208,o),
(266,208,cs),
(337,208,l),
(337,300,l),
(223,300,ls),
(85,300,o),
(14,241,o),
(14,139,cs),
(14,38,o),
(83,-12,o),
(190,-12,cs)
);
}
);
width = 538;
},
{
anchors = (
{
name = bottom;
pos = (204,0);
},
{
name = ogonek;
pos = (355,0);
},
{
name = top;
pos = (207,517);
}
);
associatedMasterId = "FFFA8D72-12AC-4CE0-B2CA-57A29829F4DA";
attr = {
coordinates = (
100,
300
);
};
background = {
shapes = (
{
closed = 1;
nodes = (
(375,0,l),
(375,350,ls),
(375,451,o),
(305,517,o),
(207,517,cs),
(112,517,o),
(42,454,o),
(40,362,c),
(146,362,l),
(146,403,o),
(170,431,o),
(205,431,cs),
(245,431,o),
(275,395,o),
(275,341,cs),
(275,0,l)
);
},
{
closed = 1;
nodes = (
(253,-8,o),
(311,42,o),
(311,177,c),
(311,309,l),
(215,309,ls),
(110,309,o),
(23,266,o),
(23,141,cs),
(23,15,o),
(111,-8,o),
(168,-8,cs)
);
},
{
closed = 1;
nodes = (
(154,79,o),
(126,100,o),
(126,149,cs),
(126,204,o),
(162,230,o),
(212,230,cs),
(275,230,l),
(275,161,ls),
(275,107,o),
(232,79,o),
(190,79,cs)
);
}
);
};
hints = (
{
horizontal = 1;
origin = (0,38);
target = (0,23);
type = Stem;
},
{
horizontal = 1;
origin = (0,29);
target = (0,32);
type = Stem;
},
{
horizontal = 1;
origin = (0,9);
target = (0,16);
type = Stem;
},
{
horizontal = 1;
origin = (0,4);
target = (0,23);
type = Stem;
},
{
origin = (0,35);
target = (0,26);
type = Stem;
},
{
origin = (0,4);
target = (0,5);
type = Stem;
},
{
origin = (0,12);
target = (0,13);
type = Stem;
}
);
layerId = "018758E2-A88A-4CB4-AAF3-687FDBC090D8";
name = "{100,300}";
shapes = (
{
closed = 1;
nodes = (
(214,-8,o),
(251,6,o),
(276,39,c),
(275,40,l),
(275,0,l),
(375,0,l),
(375,350,ls),
(375,451,o),
(305,517,o),
(207,517,cs),
(112,517,o),
(42,454,o),
(40,362,c),
(146,362,l),
(146,403,o),
(170,431,o),
(205,431,cs),
(245,431,o),
(275,395,o),
(275,341,cs),
(275,161,ls),
(275,107,o),
(232,79,o),
(190,79,cs),
(154,79,o),
(126,100,o),
(126,149,cs),
(126,204,o),
(162,230,o),
(212,230,cs),
(291,230,l),
(291,309,l),
(215,309,ls),
(110,309,o),
(23,266,o),
(23,141,cs),
(23,15,o),
(111,-8,o),
(168,-8,cs)
);
}
);
width = 416;
},
{
anchors = (
{
name = bottom;
pos = (256,0);
},
{
name = ogonek;
pos = (417,0);
},
{
name = top;
pos = (253,519);
}
);
associatedMasterId = "FFFA8D72-12AC-4CE0-B2CA-57A29829F4DA";
attr = {
coordinates = (
100,
500
);
};
hints = (
{
horizontal = 1;
origin = (0,38);
target = (0,23);
type = Stem;
},
{
horizontal = 1;
origin = (0,29);
target = (0,32);
type = Stem;
},
{
horizontal = 1;
origin = (0,9);
target = (0,16);
type = Stem;
},
{
horizontal = 1;
origin = (0,4);
target = up;
type = BottomGhost;
},
{
origin = (0,35);
target = (0,26);
type = Stem;
},
{
origin = (0,4);
target = (0,5);
type = Stem;
},
{
origin = (0,12);
target = (0,13);
type = Stem;
}
);
layerId = "BAE5EEA3-611C-40EA-B886-6100A765A59D";
name = "{100,500}";
shapes = (
{
closed = 1;
nodes = (
(270,-12,o),
(323,10,o),
(357,53,c),
(356,54,l),
(356,0,l),
(456,0,l),
(456,349,ls),
(456,449,o),
(379,523,o),
(253,523,cs),
(138,523,o),
(55,461,o),
(49,377,c),
(155,364,l),
(159,408,o),
(195,437,o),
(256,437,cs),
(325,437,o),
(356,400,o),
(356,342,cs),
(356,175,ls),
(356,114,o),
(294,72,o),
(227,72,cs),
(176,72,o),
(134,97,o),
(134,149,cs),
(134,201,o),
(185,229,o),
(260,229,cs),
(372,229,l),
(372,306,l),
(241,306,ls),
(110,306,o),
(34,244,o),
(34,145,cs),
(34,34,o),
(116,-12,o),
(205,-12,cs)
);
}
);
width = 516;
}
);
unicode = 97;
userData = {
KernOnName = a;
};
},
{
color = 3;
glyphname = ae;
kernLeft = KO_a;
kernRight = KO_e;
layers = (
{
layerId = "262880E7-CFE1-4BDA-902E-E24798F3240A";
shapes = (
{
closed = 1;
nodes = (
(298,-8,o),
(381,26,o),
(401,95,c),
(420,26,o),
(484,-8,o),
(566,-8,cs),
(654,-8,o),
(718,44,o),
(737,118,c),
(715,117,l),
(697,56,o),
(642,13,o),
(566,13,cs),
(484,13,o),
(411,56,o),
(411,142,c),
(411,180,o),
(411,217,o),
(411,255,c),
(745,255,l),
(745,341,o),
(745,350,o),
(739,377,cs),
(722,454,o),
(656,508,o),
(566,508,cs),
(487,508,o),
(428,466,o),
(404,403,c),
(386,468,o),
(337,508,o),
(246,508,cs),
(152,508,o),
(87,462,o),
(77,392,c),
(99,388,l),
(106,449,o),
(162,487,o),
(243,487,cs),
(349,487,o),
(389,425,o),
(389,345,cs),
(389,276,l),
(259,276,ls),
(132,276,o),
(54,224,o),
(54,128,cs),
(54,26,o),
(138,-8,o),
(216,-8,cs)
);
},
{
closed = 1;
nodes = (
(138,13,o),
(76,49,o),
(76,129,cs),
(76,213,o),
(151,255,o),
(256,255,cs),
(389,255,l),
(389,142,l),
(389,52,o),
(299,13,o),
(215,13,cs)
);
},
{
closed = 1;
nodes = (
(411,316,o),
(412,347,o),
(415,365,cs),
(427,436,o),
(484,487,o),
(566,487,cs),
(648,487,o),
(706,436,o),
(719,365,cs),
(722,348,o),
(723,313,o),
(723,276,c),
(411,276,l)
);
}
);
width = 807;
},
{
layerId = "FFFA8D72-12AC-4CE0-B2CA-57A29829F4DA";
shapes = (
{
closed = 1;
nodes = (
(322,-8,o),
(395,34,o),
(421,83,c),
(442,34,o),
(512,-8,o),
(604,-8,cs),
(685,-8,o),
(754,24,o),
(809,81,c),
(722,187,l),
(701,162,o),
(663,149,o),
(615,149,cs),
(571,149,o),
(535,160,o),
(522,193,cs),
(519,201,o),
(518,206,o),
(518,208,c),
(833,208,l),
(833,302,o),
(824,344,o),
(814,372,cs),
(779,469,o),
(677,528,o),
(586,528,cs),
(509,528,o),
(450,485,o),
(429,450,c),
(400,492,o),
(331,528,o),
(250,528,cs),
(133,528,o),
(23,452,o),
(23,356,c),
(211,332,l),
(212,352,o),
(235,367,o),
(267,367,cs),
(302,367,o),
(324,348,o),
(324,320,cs),
(324,305,l),
(226,305,ls),
(87,305,o),
(18,242,o),
(18,150,cs),
(18,50,o),
(100,-8,o),
(220,-8,cs)
);
},
{
closed = 1;
nodes = (
(219,120,o),
(206,144,o),
(206,164,cs),
(206,190,o),
(228,208,o),
(269,208,cs),
(324,208,l),
(324,184,ls),
(324,147,o),
(291,120,o),
(254,120,cs)
);
},
{
closed = 1;
nodes = (
(517,313,o),
(519,320,o),
(522,327,c),
(531,351,o),
(551,367,o),
(578,367,cs),
(606,367,o),
(624,351,o),
(634,327,cs),
(637,320,o),
(639,313,o),
(640,305,c),
(516,305,l)
);
}
);
width = 849;
},
{
layerId = "DCBE1F7B-116A-43E0-B7B4-8657BA77D8B5";
shapes = (
{
closed = 1;
nodes = (
(219,-8,o),
(276,21,o),
(296,87,c),
(312,30,o),
(360,-8,o),
(423,-8,cs),
(494,-8,o),
(546,40,o),
(556,109,c),
(534,108,l),
(524,51,o),
(481,13,o),
(423,13,cs),
(357,13,o),
(311,63,o),
(311,135,cs),
(311,175,o),
(311,214,o),
(311,254,c),
(558,254,l),
(558,291,o),
(558,328,o),
(558,365,cs),
(558,448,o),
(503,508,o),
(423,508,cs),
(364,508,o),
(318,474,o),
(299,422,c),
(280,476,o),
(240,508,o),
(180,508,cs),
(111,508,o),
(50,461,o),
(47,388,c),
(70,385,l),
(70,446,o),
(122,487,o),
(179,487,cs),
(251,487,o),
(288,430,o),
(288,345,cs),
(288,274,l),
(191,274,ls),
(102,274,o),
(37,236,o),
(37,126,cs),
(37,18,o),
(101,-8,o),
(158,-8,cs)
);
},
{
closed = 1;
nodes = (
(104,13,o),
(59,45,o),
(59,127,cs),
(59,219,o),
(115,253,o),
(193,253,cs),
(288,253,l),
(288,142,ls),
(288,52,o),
(224,13,o),
(161,13,cs)
);
},
{
closed = 1;
nodes = (
(311,304,o),
(311,334,o),
(311,365,cs),
(311,437,o),
(357,487,o),
(423,487,cs),
(490,487,o),
(536,437,o),
(536,365,cs),
(536,334,o),
(536,304,o),
(536,273,c),
(311,273,l)
);
}
);
width = 601;
},
{
hints = (
{
horizontal = 1;
origin = (0,31);
stem = -1;
target = (0,38);
type = TTStem;
},
{
horizontal = 1;
origin = (0,49);
stem = -1;
target = (1,10);
type = TTStem;
},
{
horizontal = 1;
origin = (0,5);
stem = -1;
target = (0,12);
type = TTStem;
},
{
horizontal = 1;
origin = (0,25);
stem = -1;
target = (2,5);
type = TTStem;
},
{
horizontal = 1;
origin = (0,31);
type = TTSnap;
},
{
horizontal = 1;
origin = (0,49);
type = TTSnap;
},
{
horizontal = 1;
place = (339, 189);
place = (339, 189);
type = Stem;
},
{
horizontal = 1;
origin = (0,49);
target = (0,46);
type = Stem;
},
{
horizontal = 1;
origin = (1,5);
target = (0,43);
type = Stem;
},
{
horizontal = 1;
origin = (0,31);
target = (0,38);
type = Stem;
},
{
horizontal = 1;
origin = (0,49);
target = (1,10);
type = Stem;
},
{
origin = (0,46);
target = (1,2);
type = Stem;
},
{
origin = (1,7);
target = (0,15);
type = Stem;
},
{
origin = (2,11);
target = (0,19);
type = Stem;
}
);
layerId = "4E2227F3-52E4-4048-A8EE-327B486EF0A4";
shapes = (
{
closed = 1;
nodes = (
(275,-10,o),
(346,32,o),
(352,67,c),
(356,33,o),
(411,-10,o),
(496,-10,cs),
(619,-10,o),
(685,54,o),
(688,171,c),
(505,182,l),
(505,165,o),
(499,143,o),
(480,143,cs),
(466,143,o),
(457,160,o),
(457,185,cs),
(457,194,o),
(457,189,o),
(457,198,c),
(690,198,l),
(690,244,o),
(690,304,o),
(690,350,cs),
(690,457,o),
(611,530,o),
(487,530,cs),
(428,530,o),
(384,514,o),
(351,489,c),
(313,516,o),
(277,530,o),
(224,530,cs),
(105,530,o),
(14,460,o),
(14,341,c),
(203,337,l),
(203,355,o),
(214,367,o),
(230,367,cs),
(246,367,o),
(258,355,o),
(258,337,cs),
(258,305,l),
(218,305,ls),
(93,305,o),
(9,289,o),
(9,153,cs),
(9,1,o),
(112,-10,o),
(196,-10,cs)
);
},
{
closed = 1;
nodes = (
(213,125,o),
(201,134,o),
(201,158,cs),
(201,183,o),
(213,198,o),
(232,198,cs),
(258,198,l),
(258,152,ls),
(258,135,o),
(240,125,o),
(226,125,cs)
);
},
{
closed = 1;
nodes = (
(457,315,o),
(457,325,o),
(457,335,cs),
(457,354,o),
(466,367,o),
(480,367,cs),
(493,367,o),
(502,354,o),
(502,335,cs),
(502,325,o),
(502,315,o),
(502,305,c),
(457,305,l)
);
}
);
width = 704;
},
{
associatedMasterId = "262880E7-CFE1-4BDA-902E-E24798F3240A";
attr = {
coordinates = (
100,
500
);
};
layerId = "E7B60026-6285-4AF7-81D0-E2C0967E1F1B";
name = "{100,500}";
shapes = (
{
closed = 1;
nodes = (
(307,-8,o),
(379,24,o),
(410,74,c),
(437,28,o),
(500,-8,o),
(576,-8,cs),
(679,-8,o),
(752,50,o),
(777,111,c),
(707,156,l),
(686,111,o),
(652,86,o),
(590,86,cs),
(523,86,o),
(469,115,o),
(463,176,c),
(462,195,o),
(461,194,o),
(461,215,c),
(784,215,l),
(784,305,o),
(780,347,o),
(772,375,cs),
(747,463,o),
(664,517,o),
(574,517,cs),
(499,517,o),
(437,470,o),
(416,430,c),
(396,474,o),
(332,517,o),
(251,517,cs),
(142,517,o),
(57,457,o),
(52,375,c),
(152,362,l),
(156,404,o),
(196,431,o),
(254,431,cs),
(327,431,o),
(359,389,o),
(359,333,cs),
(359,299,l),
(244,299,ls),
(111,299,o),
(37,233,o),
(37,135,cs),
(37,31,o),
(121,-8,o),
(222,-8,cs)
);
},
{
closed = 1;
nodes = (
(176,71,o),
(137,99,o),
(137,143,cs),
(137,193,o),
(187,215,o),
(262,215,cs),
(359,215,l),
(359,170,l),
(359,102,o),
(296,71,o),
(234,71,cs)
);
},
{
closed = 1;
nodes = (
(461,319,o),
(462,334,o),
(465,347,cs),
(476,396,o),
(516,431,o),
(572,431,cs),
(629,431,o),
(669,395,o),
(680,347,cs),
(683,335,o),
(684,317,o),
(685,299,c),
(460,299,l)
);
}
);
width = 825;
},
{
associatedMasterId = "262880E7-CFE1-4BDA-902E-E24798F3240A";
attr = {
coordinates = (
100,
300
);
};
layerId = "29303AE9-139B-4911-9A39-4D32E7983952";
name = "{100,300}";
shapes = (
{
closed = 1;
nodes = (
(245,-8,o),
(308,25,o),
(322,64,c),
(332,31,o),
(383,-8,o),
(457,-8,cs),
(552,-8,o),
(611,47,o),
(618,138,c),
(521,150,l),
(515,116,o),
(489,85,o),
(450,85,cs),
(408,85,o),
(379,118,o),
(379,158,cs),
(379,174,o),
(379,188,o),
(379,214,c),
(620,214,l),
(620,255,o),
(620,317,o),
(620,358,cs),
(620,452,o),
(553,517,o),
(453,517,cs),
(394,517,o),
(349,492,o),
(323,453,c),
(295,494,o),
(257,517,o),
(201,517,cs),
(108,517,o),
(33,460,o),
(32,366,c),
(132,363,l),
(132,404,o),
(165,431,o),
(203,431,cs),
(249,431,o),
(274,395,o),
(274,341,cs),
(274,298,l),
(204,298,ls),
(98,298,o),
(24,261,o),
(24,139,cs),
(24,11,o),
(106,-8,o),
(166,-8,cs)
);
},
{
closed = 1;
nodes = (
(155,72,o),
(125,94,o),
(125,141,cs),
(125,188,o),
(161,213,o),
(211,213,cs),
(274,213,l),
(274,147,ls),
(274,98,o),
(232,72,o),
(191,72,cs)
);
},
{
closed = 1;
nodes = (
(379,319,o),
(379,330,o),
(379,351,cs),
(379,398,o),
(408,431,o),
(450,431,cs),
(491,431,o),
(520,398,o),
(520,351,cs),
(520,330,o),
(520,319,o),
(520,298,c),
(379,298,l)
);
}
);
width = 649;
}
);
unicode = 230;
},
{
glyphname = b;
kernLeft = KO_l;
kernRight = KO_o;
layers = (
{
layerId = "262880E7-CFE1-4BDA-902E-E24798F3240A";
shapes = (
{
closed = 1;
nodes = (
(355,-8,o),
(420,46,o),
(437,123,cs),
(444,155,o),
(443,191,o),
(443,248,cs),
(443,305,o),
(444,344,o),
(437,377,cs),
(421,454,o),
(355,508,o),
(265,508,cs),
(190,508,o),
(135,470,o),
(110,410,c),
(113,407,l),
(113,700,l),
(91,700,l),
(91,0,l),
(113,0,l),
(113,92,l),
(110,89,l),
(135,30,o),
(190,-8,o),
(265,-8,cs)
);
},
{
closed = 1;
nodes = (
(178,13,o),
(128,70,o),
(117,135,cs),
(114,154,o),
(113,162,o),
(113,249,cs),
(113,336,o),
(114,344,o),
(117,365,cs),
(127,432,o),
(180,487,o),
(263,487,cs),
(346,487,o),
(405,433,o),
(417,365,cs),
(420,346,o),
(421,338,o),
(421,251,cs),
(421,164,o),
(420,156,o),
(417,135,cs),
(407,65,o),
(345,13,o),
(263,13,cs)
);
}
);
width = 507;
},
{
hints = (
{
horizontal = 1;
origin = (0,17);
type = TTSnap;
},
{
horizontal = 1;
origin = (0,18);
type = TTSnap;
},
{
horizontal = 1;
origin = (0,18);
target = up;
type = BottomGhost;
},
{
horizontal = 1;
origin = (0,17);
target = down;
type = TopGhost;
},
{
origin = (0,18);
target = (0,19);
type = Stem;
},
{
horizontal = 1;
origin = (0,11);
type = TTSnap;
},
{
horizontal = 1;
origin = (0,24);
type = TTSnap;
},
{
horizontal = 1;
origin = (0,24);
stem = -1;
target = (1,23);
type = TTStem;
},
{
horizontal = 1;
origin = (0,11);
stem = -1;
target = (1,11);
type = TTStem;
},
{
horizontal = 1;
origin = (1,11);
target = (0,11);
type = Stem;
},
{
horizontal = 1;
origin = (0,24);
target = (1,23);
type = Stem;
},
{
origin = (1,17);
target = (0,5);
type = Stem;
}
);
layerId = "4E2227F3-52E4-4048-A8EE-327B486EF0A4";
shapes = (
{
closed = 1;
nodes = (
(408,-10,o),
(446,59,o),
(446,170,cs),
(446,210,o),
(446,235,o),
(446,260,cs),
(446,290,o),
(446,320,o),
(446,350,cs),
(446,467,o),
(404,530,o),
(317,530,cs),
(273,530,o),
(199,520,o),
(192,380,c),
(210,399,l),
(210,700,l),
(22,700,l),
(22,0,l),
(210,0,l),
(210,120,l),
(189,138,l),
(200,0,o),
(273,-10,o),
(317,-10,cs)
);
},
{
closed = 1;
nodes = (
(218,153,o),
(210,166,o),
(210,187,cs),
(210,210,o),
(210,235,o),
(210,260,cs),
(210,285,o),
(210,310,o),
(210,333,cs),
(210,354,o),
(218,367,o),
(234,367,cs),
(250,367,o),
(258,354,o),
(258,333,cs),
(258,310,o),
(258,285,o),
(258,260,cs),
(258,235,o),
(258,210,o),
(258,187,cs),
(258,166,o),
(250,153,o),
(234,153,cs)
);
}
);
width = 462;
},
{
layerId = "FFFA8D72-12AC-4CE0-B2CA-57A29829F4DA";
shapes = (
{
closed = 1;
nodes = (
(437,-12,o),
(510,48,o),
(540,148,cs),
(551,185,o),
(555,224,o),
(555,262,cs),
(555,307,o),
(549,350,o),
(533,391,cs),
(503,468,o),
(452,531,o),
(349,531,cs),
(258,531,o),
(212,480,o),
(200,403,c),
(220,403,l),
(220,700,l),
(32,700,l),
(32,0,l),
(220,0,l),
(220,113,l),
(201,113,l),
(213,41,o),
(256,-12,o),
(354,-12,cs)
);
},
{
closed = 1;
nodes = (
(265,149,o),
(248,163,o),
(237,185,cs),
(227,204,o),
(222,229,o),
(222,259,cs),
(222,291,o),
(227,317,o),
(238,337,cs),
(249,357,o),
(265,370,o),
(290,370,cs),
(316,370,o),
(332,357,o),
(343,335,cs),
(353,316,o),
(358,289,o),
(358,259,cs),
(358,231,o),
(353,203,o),
(343,183,cs),
(332,163,o),
(314,149,o),
(290,149,cs)
);
}
);
width = 577;
},
{
layerId = "DCBE1F7B-116A-43E0-B7B4-8657BA77D8B5";
shapes = (
{
closed = 1;
nodes = (
(271,-8,o),
(325,52,o),
(325,135,cs),
(325,173,o),
(325,212,o),
(325,250,cs),
(325,288,o),
(325,327,o),
(325,365,cs),
(325,448,o),
(271,508,o),
(191,508,cs),
(138,508,o),
(97,478,o),
(77,433,c),
(80,430,l),
(80,700,l),
(58,700,l),
(58,0,l),
(80,0,l),
(80,70,l),
(77,67,l),
(97,22,o),
(138,-8,o),
(191,-8,cs)
);
},
{
closed = 1;
nodes = (
(125,13,o),
(80,63,o),
(80,135,cs),
(80,173,o),
(80,212,o),
(80,250,cs),
(80,288,o),
(80,327,o),
(80,365,cs),
(80,437,o),
(125,487,o),
(189,487,cs),
(256,487,o),
(303,437,o),
(303,365,cs),
(303,327,o),
(303,288,o),
(303,250,cs),
(303,212,o),
(303,173,o),
(303,135,cs),
(303,63,o),
(256,13,o),
(189,13,cs)
);
}
);
width = 373;
},
{
associatedMasterId = "FFFA8D72-12AC-4CE0-B2CA-57A29829F4DA";
attr = {
coordinates = (
166,
300
);
};
hints = (
{
horizontal = 1;
origin = (0,17);
type = TTSnap;
},
{
horizontal = 1;
origin = (0,18);
type = TTSnap;
},
{
horizontal = 1;
origin = (0,18);
target = up;
type = BottomGhost;
},
{
horizontal = 1;
origin = (0,17);
target = down;
type = TopGhost;
},
{
origin = (0,18);
target = (0,19);
type = Stem;
}
);
layerId = "E7783A25-7AEF-4DD1-B8B2-514883EC7592";
name = "{166,  300}";
shapes = (
{
closed = 1;
nodes = (
(389,-8,o),
(428,59,o),
(428,165,cs),
(428,196,o),
(428,232,o),
(428,259,cs),
(428,290,o),
(428,321,o),
(428,352,cs),
(428,464,o),
(385,525,o),
(291,525,cs),
(267,525,o),
(222,519,o),
(192,469,c),
(193,469,l),
(193,700,l),
(27,700,l),
(27,0,l),
(193,0,l),
(193,45,l),
(192,45,l),
(222,-3,o),
(268,-8,o),
(291,-8,cs)
);
},
{
closed = 1;
nodes = (
(208,134,o),
(194,152,o),
(194,178,cs),
(194,205,o),
(194,232,o),
(194,259,cs),
(194,286,o),
(194,312,o),
(194,339,cs),
(194,365,o),
(208,383,o),
(229,383,cs),
(249,383,o),
(262,365,o),
(262,339,cs),
(262,312,o),
(262,285,o),
(262,259,cs),
(262,232,o),
(262,205,o),
(262,178,cs),
(262,152,o),
(249,134,o),
(229,134,cs)
);
}
);
width = 449;
},
{
associatedMasterId = "4E2227F3-52E4-4048-A8EE-327B486EF0A4";
attr = {
coordinates = (
188,
400
);
};
hints = (
{
horizontal = 1;
origin = (0,17);
type = TTSnap;
},
{
horizontal = 1;
origin = (0,18);
type = TTSnap;
},
{
horizontal = 1;
origin = (0,18);
target = up;
type = BottomGhost;
},
{
horizontal = 1;
origin = (0,17);
target = down;
type = TopGhost;
},
{
origin = (0,18);
target = (0,19);
type = Stem;
},
{
horizontal = 1;
origin = (0,11);
type = TTSnap;
},
{
horizontal = 1;
origin = (0,24);
type = TTSnap;
},
{
horizontal = 1;
origin = (0,24);
stem = -1;
target = (1,23);
type = TTStem;
},
{
horizontal = 1;
origin = (0,11);
stem = -1;
target = (1,11);
type = TTStem;
}
);
layerId = "B0F97F7D-D5CA-4071-A17D-91D355DFD7B2";
name = "{188,  400}";
shapes = (
{
closed = 1;
nodes = (
(421,-9,o),
(476,56,o),
(491,160,cs),
(497,199,o),
(499,230,o),
(499,261,cs),
(499,298,o),
(496,335,o),
(488,370,cs),
(473,467,o),
(426,529,o),
(332,529,cs),
(270,529,o),
(211,501,o),
(196,396,c),
(215,392,l),
(215,700,l),
(27,700,l),
(27,0,l),
(215,0,l),
(215,128,l),
(195,122,l),
(212,21,o),
(268,-9,o),
(335,-9,cs)
);
},
{
closed = 1;
nodes = (
(242,153,o),
(229,166,o),
(224,186,cs),
(219,208,o),
(216,233,o),
(216,260,cs),
(216,288,o),
(219,313,o),
(224,336,cs),
(230,355,o),
(243,367,o),
(262,367,cs),
(281,367,o),
(293,355,o),
(299,335,cs),
(304,313,o),
(306,287,o),
(306,260,cs),
(306,233,o),
(304,208,o),
(299,186,cs),
(293,166,o),
(281,153,o),
(262,153,cs)
);
}
);
width = 518;
},
{
associatedMasterId = "262880E7-CFE1-4BDA-902E-E24798F3240A";
attr = {
coordinates = (
100,
300
);
};
hints = (
{
horizontal = 1;
origin = (0,17);
type = TTSnap;
},
{
horizontal = 1;
origin = (0,18);
type = TTSnap;
},
{
horizontal = 1;
origin = (0,18);
target = up;
type = BottomGhost;
},
{
horizontal = 1;
origin = (0,17);
target = down;
type = TopGhost;
},
{
origin = (0,18);
target = (0,19);
type = Stem;
}
);
layerId = "FB792351-B30F-47D4-B277-7DCDA8DC2453";
name = "{100,  300}";
shapes = (
{
closed = 1;
nodes = (
(326,-10,o),
(380,54,o),
(380,149,cs),
(380,181,o),
(380,223,o),
(380,255,cs),
(380,289,o),
(380,326,o),
(380,360,cs),
(380,459,o),
(324,519,o),
(237,519,cs),
(207,519,o),
(168,509,o),
(140,478,c),
(141,477,l),
(141,700,l),
(41,700,l),
(41,0,l),
(141,0,l),
(141,34,l),
(140,33,l),
(168,2,o),
(207,-10,o),
(237,-10,cs)
);
},
{
closed = 1;
nodes = (
(169,76,o),
(141,109,o),
(141,156,cs),
(141,188,o),
(141,223,o),
(141,255,cs),
(141,287,o),
(141,321,o),
(141,353,cs),
(141,400,o),
(169,433,o),
(210,433,cs),
(252,433,o),
(281,400,o),
(281,353,cs),
(281,321,o),
(281,286,o),
(281,255,cs),
(281,223,o),
(281,188,o),
(281,156,cs),
(281,109,o),
(252,76,o),
(210,76,cs)
);
}
);
width = 413;
},
{
associatedMasterId = "262880E7-CFE1-4BDA-902E-E24798F3240A";
attr = {
coordinates = (
100,
500
);
};
hints = (
{
horizontal = 1;
origin = (0,17);
type = TTSnap;
},
{
horizontal = 1;
origin = (0,18);
type = TTSnap;
},
{
horizontal = 1;
origin = (0,18);
target = up;
type = BottomGhost;
},
{
horizontal = 1;
origin = (0,17);
target = down;
type = TopGhost;
},
{
origin = (0,18);
target = (0,19);
type = Stem;
},
{
horizontal = 1;
origin = (0,11);
target = (1,11);
type = Stem;
},
{
place = (124, 39);
place = (124, 39);
target = (1,5);
type = Stem;
},
{
origin = (1,17);
target = (0,5);
type = Stem;
},
{
horizontal = 1;
origin = (0,24);
target = (1,23);
type = Stem;
}
);
layerId = "1773C6CB-CC67-4D80-9D31-1579F7CD7151";
name = "{100,  500}";
shapes = (
{
closed = 1;
nodes = (
(380,-8,o),
(443,44,o),
(472,128,cs),
(485,165,o),
(491,208,o),
(491,256,cs),
(491,301,o),
(486,342,o),
(475,377,cs),
(447,464,o),
(384,517,o),
(282,517,cs),
(233,517,o),
(191,498,o),
(162,462,c),
(163,461,l),
(163,700,l),
(63,700,l),
(63,0,l),
(163,0,l),
(163,49,l),
(162,48,l),
(191,11,o),
(233,-8,o),
(282,-8,cs)
);
},
{
closed = 1;
nodes = (
(235,78,o),
(207,96,o),
(188,129,cs),
(171,158,o),
(163,202,o),
(163,255,cs),
(163,311,o),
(172,354,o),
(190,384,cs),
(209,415,o),
(236,431,o),
(271,431,cs),
(308,431,o),
(337,416,o),
(357,387,cs),
(378,356,o),
(390,312,o),
(390,254,cs),
(390,202,o),
(381,160,o),
(364,130,cs),
(345,96,o),
(313,78,o),
(272,78,cs)
);
}
);
width = 535;
},
{
associatedMasterId = "4E2227F3-52E4-4048-A8EE-327B486EF0A4";
attr = {
coordinates = (
100,
400
);
};
hints = (
{
horizontal = 1;
origin = (0,17);
type = TTSnap;
},
{
horizontal = 1;
origin = (0,18);
type = TTSnap;
},
{
horizontal = 1;
origin = (0,18);
target = up;
type = BottomGhost;
},
{
horizontal = 1;
origin = (0,17);
target = down;
type = TopGhost;
},
{
origin = (0,18);
target = (0,19);
type = Stem;
},
{
horizontal = 1;
origin = (0,11);
target = (1,11);
type = Stem;
},
{
origin = (1,17);
target = (0,5);
type = Stem;
},
{
horizontal = 1;
origin = (0,24);
target = (1,23);
type = Stem;
}
);
layerId = "1DEAC2F6-0FFA-4CEA-B0B2-10D51F5CD50D";
name = "{100,  400}";
shapes = (
{
closed = 1;
nodes = (
(352,-8,o),
(401,41,o),
(424,140,cs),
(433,179,o),
(436,216,o),
(436,254,cs),
(436,291,o),
(433,332,o),
(426,367,cs),
(406,467,o),
(353,517,o),
(264,517,cs),
(209,517,o),
(174,499,o),
(151,459,c),
(152,458,l),
(152,700,l),
(52,700,l),
(52,0,l),
(152,0,l),
(152,52,l),
(151,51,l),
(176,11,o),
(214,-8,o),
(268,-8,cs)
);
},
{
closed = 1;
nodes = (
(199,78,o),
(176,104,o),
(164,145,cs),
(155,175,o),
(152,213,o),
(152,255,cs),
(152,297,o),
(155,336,o),
(165,367,cs),
(177,406,o),
(199,431,o),
(240,431,cs),
(281,431,o),
(306,407,o),
(320,369,cs),
(331,338,o),
(335,299,o),
(335,255,cs),
(335,214,o),
(332,176,o),
(323,146,cs),
(310,104,o),
(286,78,o),
(241,78,cs)
);
}
);
width = 474;
}
);
unicode = 98;
userData = {
KernOnName = b;
};
},
{
color = 3;
glyphname = c;
kernLeft = KO_o;
kernRight = KO_c;
layers = (
{
anchors = (
{
name = bottom;
pos = (238,-8);
},
{
name = top;
pos = (250,500);
}
);
layerId = "262880E7-CFE1-4BDA-902E-E24798F3240A";
shapes = (
{
closed = 1;
nodes = (
(343,-8,o),
(413,45,o),
(427,113,cs),
(430,124,o),
(430,129,o),
(431,137,c),
(410,139,l),
(408,131,o),
(409,131,o),
(408,125,cs),
(398,64,o),
(335,13,o),
(250,13,cs),
(165,13,o),
(108,63,o),
(94,135,cs),
(90,156,o),
(86,193,o),
(86,250,cs),
(86,302,o),
(90,343,o),
(94,365,cs),
(107,436,o),
(165,487,o),
(250,487,cs),
(335,487,o),
(395,436,o),
(407,375,cs),
(409,369,o),
(410,361,o),
(411,352,c),
(433,353,l),
(432,363,o),
(430,376,o),
(427,387,cs),
(411,454,o),
(343,508,o),
(250,508,cs),
(158,508,o),
(93,454,o),
(75,377,cs),
(68,345,o),
(64,310,o),
(64,251,cs),
(64,195,o),
(67,156,o),
(75,123,cs),
(94,46,o),
(158,-8,o),
(250,-8,cs)
);
}
);
width = 486;
},
{
anchors = (
{
name = bottom;
pos = (228,-8);
},
{
name = top;
pos = (228,520);
}
);
hints = (
{
horizontal = 1;
origin = (0,37);
stem = -1;
target = (0,24);
type = TTStem;
},
{
horizontal = 1;
origin = (0,49);
stem = -1;
target = (0,12);
type = TTStem;
},
{
horizontal = 1;
origin = (0,37);
type = TTSnap;
},
{
horizontal = 1;
origin = (0,49);
type = TTSnap;
},
{
horizontal = 1;
place = (-8, 222);
place = (-8, 222);
type = Stem;
},
{
horizontal = 1;
place = (309.5, 218.5);
place = (309.5, 218.5);
type = Stem;
},
{
horizontal = 1;
origin = (0,49);
target = (0,12);
type = Stem;
},
{
horizontal = 1;
origin = (0,37);
target = (0,24);
type = Stem;
},
{
origin = (0,46);
target = (0,21);
type = Stem;
},
{
origin = (0,9);
target = (0,2);
type = Stem;
}
);
layerId = "4E2227F3-52E4-4048-A8EE-327B486EF0A4";
shapes = (
{
closed = 1;
nodes = (
(363,-10,o),
(440,55,o),
(440,168,cs),
(440,179,o),
(440,195,o),
(440,211,c),
(252,213,l),
(252,203,o),
(252,193,o),
(252,183,cs),
(252,164,o),
(245,151,o),
(228,151,cs),
(211,151,o),
(204,164,o),
(204,183,cs),
(204,208,o),
(204,235,o),
(204,260,cs),
(204,285,o),
(204,312,o),
(204,337,cs),
(204,356,o),
(211,369,o),
(228,369,cs),
(245,369,o),
(252,356,o),
(252,337,cs),
(252,327,o),
(252,318,o),
(252,308,c),
(440,315,l),
(440,329,o),
(440,342,o),
(440,352,cs),
(440,458,o),
(363,530,o),
(228,530,cs),
(94,530,o),
(16,458,o),
(16,352,cs),
(16,329,o),
(16,283,o),
(16,260,cs),
(16,237,o),
(16,191,o),
(16,168,cs),
(16,55,o),
(94,-10,o),
(228,-10,cs)
);
}
);
width = 449;
},
{
anchors = (
{
name = bottom;
pos = (278,-8);
},
{
name = top;
pos = (278,528);
}
);
layerId = "FFFA8D72-12AC-4CE0-B2CA-57A29829F4DA";
shapes = (
{
closed = 1;
nodes = (
(392,-12,o),
(486,42,o),
(521,142,cs),
(528,162,o),
(529,182,o),
(529,187,c),
(344,217,l),
(343,206,o),
(342,203,o),
(341,197,cs),
(333,163,o),
(308,149,o),
(281,149,cs),
(253,149,o),
(234,164,o),
(223,191,cs),
(216,209,o),
(212,234,o),
(212,262,cs),
(212,288,o),
(215,313,o),
(224,333,cs),
(235,358,o),
(254,371,o),
(281,371,cs),
(311,371,o),
(334,352,o),
(341,329,cs),
(344,319,o),
(345,313,o),
(347,300,c),
(531,329,l),
(531,331,o),
(532,351,o),
(521,381,cs),
(491,465,o),
(399,532,o),
(282,532,cs),
(170,532,o),
(79,474,o),
(42,378,cs),
(30,347,o),
(22,308,o),
(22,263,cs),
(22,224,o),
(28,183,o),
(42,147,cs),
(80,48,o),
(168,-12,o),
(282,-12,cs)
);
}
);
width = 550;
},
{
anchors = (
{
name = bottom;
pos = (182,-8);
},
{
name = top;
pos = (182,500);
}
);
layerId = "DCBE1F7B-116A-43E0-B7B4-8657BA77D8B5";
shapes = (
{
closed = 1;
nodes = (
(262,-8,o),
(317,52,o),
(317,115,cs),
(317,117,o),
(317,125,o),
(317,127,c),
(295,127,l),
(295,125,o),
(295,117,o),
(295,115,cs),
(295,63,o),
(249,13,o),
(182,13,cs),
(116,13,o),
(70,63,o),
(70,135,cs),
(70,173,o),
(70,212,o),
(70,250,cs),
(70,288,o),
(70,327,o),
(70,365,cs),
(70,437,o),
(116,487,o),
(182,487,cs),
(249,487,o),
(295,437,o),
(295,385,cs),
(295,383,o),
(295,375,o),
(295,373,c),
(317,373,l),
(317,374,o),
(317,384,o),
(317,385,cs),
(317,448,o),
(262,508,o),
(182,508,cs),
(103,508,o),
(48,448,o),
(48,365,cs),
(48,327,o),
(48,288,o),
(48,250,cs),
(48,212,o),
(48,173,o),
(48,135,cs),
(48,52,o),
(103,-8,o),
(182,-8,cs)
);
}
);
width = 351;
},
{
anchors = (
{
name = bottom;
pos = (253,-8);
},
{
name = top;
pos = (253,520);
}
);
associatedMasterId = "4E2227F3-52E4-4048-A8EE-327B486EF0A4";
attr = {
coordinates = (
188,
400
);
};
hints = (
{
horizontal = 1;
origin = (0,49);
target = (0,12);
type = Stem;
},
{
horizontal = 1;
origin = (0,37);
target = (0,24);
type = Stem;
},
{
origin = (0,43);
target = (0,18);
type = Stem;
}
);
layerId = "A708B374-6D5B-4775-AA6A-F8146B244141";
name = "{188,400}";
shapes = (
{
closed = 1;
nodes = (
(378,-8,o),
(464,53,o),
(480,163,cs),
(482,175,o),
(483,188,o),
(483,201,c),
(297,217,l),
(296,207,o),
(295,197,o),
(293,188,cs),
(289,168,o),
(279,153,o),
(254,153,cs),
(233,153,o),
(221,165,o),
(215,186,cs),
(209,205,o),
(208,231,o),
(208,261,cs),
(208,288,o),
(209,313,o),
(214,332,cs),
(220,354,o),
(232,367,o),
(254,367,cs),
(275,367,o),
(288,355,o),
(294,335,cs),
(297,326,o),
(298,315,o),
(298,302,c),
(484,320,l),
(484,337,o),
(482,353,o),
(479,368,cs),
(459,467,o),
(373,528,o),
(255,528,cs),
(132,528,o),
(48,464,o),
(29,363,cs),
(24,338,o),
(19,297,o),
(19,262,cs),
(19,231,o),
(22,189,o),
(29,160,cs),
(48,54,o),
(131,-8,o),
(255,-8,cs)
);
}
);
width = 498;
}
);
unicode = 99;
userData = {
KernOnName = c;
};
},
{
glyphname = eth;
kernLeft = KO_o;
kernRight = KO_o;
layers = (
{
layerId = "262880E7-CFE1-4BDA-902E-E24798F3240A";
shapes = (
{
closed = 1;
nodes = (
(330,-8,o),
(396,46,o),
(413,123,cs),
(420,155,o),
(418,191,o),
(418,250,cs),
(418,290,o),
(419,321,o),
(417,348,cs),
(404,562,o),
(283,642,o),
(209,700,c),
(177,700,l),
(263,634,o),
(369,539,o),
(384,427,c),
(391,430,l),
(362,478,o),
(307,508,o),
(240,508,cs),
(151,508,o),
(87,454,o),
(70,377,cs),
(62,345,o),
(63,310,o),
(63,251,cs),
(63,195,o),
(62,156,o),
(70,123,cs),
(88,46,o),
(150,-8,o),
(240,-8,cs)
);
},
{
closed = 1;
nodes = (
(158,13,o),
(102,63,o),
(89,135,cs),
(85,156,o),
(85,193,o),
(85,250,cs),
(85,302,o),
(85,343,o),
(89,365,cs),
(102,436,o),
(158,487,o),
(240,487,cs),
(322,487,o),
(380,436,o),
(393,365,cs),
(397,344,o),
(396,307,o),
(396,250,cs),
(396,198,o),
(397,157,o),
(393,135,cs),
(380,64,o),
(322,13,o),
(240,13,cs)
);
},
{
closed = 1;
nodes = (
(383,634,l),
(377,653,l),
(190,589,l),
(196,570,l)
);
}
);
width = 488;
},
{
layerId = "FFFA8D72-12AC-4CE0-B2CA-57A29829F4DA";
shapes = (
{
closed = 1;
nodes = (
(379,-8,o),
(466,49,o),
(503,129,cs),
(515,155,o),
(523,189,o),
(523,228,cs),
(523,279,o),
(517,328,o),
(505,373,cs),
(482,463,o),
(428,551,o),
(315,700,c),
(114,700,l),
(199,608,o),
(257,539,o),
(310,420,c),
(320,422,l),
(308,463,o),
(164,446,o),
(114,415,cs),
(79,393,o),
(52,362,o),
(35,325,cs),
(22,296,o),
(15,263,o),
(15,227,cs),
(15,192,o),
(21,160,o),
(35,129,cs),
(73,45,o),
(161,-8,o),
(269,-8,cs)
);
},
{
closed = 1;
nodes = (
(247,132,o),
(229,145,o),
(218,167,cs),
(210,183,o),
(205,199,o),
(205,222,cs),
(205,243,o),
(209,258,o),
(217,274,cs),
(228,296,o),
(247,307,o),
(269,307,cs),
(291,307,o),
(308,296,o),
(320,274,cs),
(328,259,o),
(333,243,o),
(333,222,cs),
(333,199,o),
(328,182,o),
(320,167,cs),
(308,145,o),
(291,132,o),
(269,132,cs)
);
},
{
closed = 1;
nodes = (
(493,561,l),
(469,658,l),
(121,572,l),
(145,475,l)
);
}
);
width = 541;
},
{
layerId = "DCBE1F7B-116A-43E0-B7B4-8657BA77D8B5";
shapes = (
{
closed = 1;
nodes = (
(262,-8,o),
(317,52,o),
(317,135,cs),
(317,173,o),
(317,212,o),
(317,250,cs),
(317,298,o),
(318,327,o),
(317,365,cs),
(311,580,o),
(221,660,o),
(175,700,c),
(150,700,l),
(208,654,o),
(285,561,o),
(290,443,c),
(293,452,l),
(269,487,o),
(229,508,o),
(182,508,cs),
(103,508,o),
(48,448,o),
(48,365,cs),
(48,327,o),
(48,298,o),
(48,250,cs),
(48,212,o),
(48,173,o),
(48,135,cs),
(48,52,o),
(103,-8,o),
(182,-8,cs)
);
},
{
closed = 1;
nodes = (
(116,13,o),
(70,63,o),
(70,135,cs),
(70,173,o),
(70,212,o),
(70,250,cs),
(70,298,o),
(70,327,o),
(70,365,cs),
(70,437,o),
(116,487,o),
(182,487,c),
(249,487,o),
(295,437,o),
(295,365,cs),
(295,327,o),
(295,298,o),
(295,250,cs),
(295,212,o),
(295,173,o),
(295,135,cs),
(295,63,o),
(249,13,o),
(182,13,cs)
);
},
{
closed = 1;
nodes = (
(342,638,l),
(336,657,l),
(149,593,l),
(155,574,l)
);
}
);
width = 372;
},
{
hints = (
{
horizontal = 1;
origin = (0,31);
type = TTSnap;
},
{
horizontal = 1;
origin = (0,31);
stem = -1;
target = (1,23);
type = TTStem;
},
{
horizontal = 1;
origin = (1,11);
stem = -1;
target = (0,19);
type = TTStem;
},
{
horizontal = 1;
origin = (0,31);
target = (1,23);
type = Stem;
},
{
horizontal = 1;
origin = (1,11);
target = (0,19);
type = Stem;
},
{
horizontal = 1;
origin = (0,12);
target = down;
type = TopGhost;
},
{
horizontal = 1;
place = (603, 97);
place = (603, 97);
type = Stem;
},
{
origin = (0,28);
target = (1,2);
type = Stem;
},
{
origin = (1,20);
target = (0,2);
type = Stem;
}
);
layerId = "4E2227F3-52E4-4048-A8EE-327B486EF0A4";
shapes = (
{
closed = 1;
nodes = (
(363,-10,o),
(439,55,o),
(439,168,cs),
(439,191,o),
(439,217,o),
(439,240,cs),
(439,263,o),
(439,287,o),
(439,310,cs),
(439,435,o),
(399,550,o),
(295,700,c),
(114,700,l),
(195,576,o),
(231,501,o),
(245,452,c),
(257,452,l),
(249,465,o),
(249,488,o),
(193,488,cs),
(95,488,o),
(14,416,o),
(14,310,cs),
(14,287,o),
(14,263,o),
(14,240,cs),
(14,217,o),
(14,191,o),
(14,168,cs),
(14,55,o),
(91,-10,o),
(227,-10,cs)
);
},
{
closed = 1;
nodes = (
(212,151,o),
(202,164,o),
(202,183,cs),
(202,208,o),
(202,215,o),
(202,240,cs),
(202,265,o),
(202,270,o),
(202,295,cs),
(202,314,o),
(212,327,o),
(227,327,cs),
(241,327,o),
(251,314,o),
(251,295,cs),
(251,270,o),
(251,265,o),
(251,240,cs),
(251,215,o),
(251,208,o),
(251,183,cs),
(251,164,o),
(241,151,o),
(227,151,cs)
);
},
{
closed = 1;
nodes = (
(437,582,l),
(420,661,l),
(100,585,l),
(119,510,l)
);
}
);
width = 455;
}
);
unicode = 240;
},
{
color = 3;
glyphname = e;
kernLeft = KO_o;
kernRight = KO_e;
layers = (
{
anchors = (
{
name = bottom;
pos = (179,0);
},
{
name = ogonek;
pos = (251,17);
},
{
name = top;
pos = (179,500);
}
);
layerId = "DCBE1F7B-116A-43E0-B7B4-8657BA77D8B5";
shapes = (
{
closed = 1;
nodes = (
(253,-8,o),
(305,40,o),
(315,109,c),
(293,109,l),
(283,52,o),
(240,13,o),
(182,13,cs),
(116,13,o),
(70,63,o),
(70,135,cs),
(70,173,o),
(70,212,o),
(70,250,cs),
(70,288,o),
(70,327,o),
(70,365,cs),
(70,437,o),
(116,487,o),
(182,487,cs),
(249,487,o),
(295,437,o),
(295,365,cs),
(295,327,o),
(295,288,o),
(295,261,c),
(304,267,l),
(62,267,l),
(62,247,l),
(317,247,l),
(317,287,o),
(317,327,o),
(317,365,cs),
(317,448,o),
(262,508,o),
(182,508,cs),
(103,508,o),
(48,448,o),
(48,365,cs),
(48,327,o),
(48,288,o),
(48,250,cs),
(48,212,o),
(48,173,o),
(48,135,cs),
(48,52,o),
(103,-8,o),
(182,-8,cs)
);
}
);
width = 360;
},
{
anchors = (
{
name = bottom;
pos = (227,0);
},
{
name = ogonek;
pos = (314,35);
},
{
name = top;
pos = (227,520);
}
);
hints = (
{
horizontal = 1;
origin = (0,34);
stem = -1;
target = (0,18);
type = TTStem;
},
{
horizontal = 1;
origin = (0,46);
stem = -1;
target = (0,6);
type = TTStem;
},
{
horizontal = 1;
origin = (0,34);
type = TTSnap;
},
{
horizontal = 1;
origin = (0,46);
type = TTSnap;
},
{
horizontal = 1;
origin = (0,46);
target = (0,6);
type = Stem;
},
{
horizontal = 1;
origin = (0,27);
target = (0,26);
type = Stem;
},
{
horizontal = 1;
origin = (0,34);
target = down;
type = TopGhost;
},
{
horizontal = 1;
place = (-8, 194);
place = (-8, 194);
type = Stem;
},
{
horizontal = 1;
origin = (0,34);
target = (0,18);
type = Stem;
},
{
origin = (0,43);
target = (0,9);
type = Stem;
},
{
origin = (0,24);
target = (0,28);
type = Stem;
},
{
horizontal = 1;
options = 4;
origin = (0,18);
other1 = (0,10);
target = (0,6);
type = TTInterpolate;
}
);
layerId = "4E2227F3-52E4-4048-A8EE-327B486EF0A4";
shapes = (
{
closed = 1;
nodes = (
(370,-10,o),
(436,51,o),
(438,178,c),
(256,187,l),
(256,163,o),
(250,150,o),
(231,150,cs),
(213,150,o),
(204,163,o),
(204,182,cs),
(204,207,o),
(204,235,o),
(204,260,cs),
(204,285,o),
(204,313,o),
(204,338,cs),
(204,357,o),
(211,370,o),
(228,370,cs),
(245,370,o),
(252,357,o),
(252,338,cs),
(252,319,o),
(252,298,o),
(252,279,c),
(315,309,l),
(154,309,l),
(154,217,l),
(440,217,l),
(440,225,o),
(440,295,o),
(440,352,cs),
(440,458,o),
(363,530,o),
(228,530,cs),
(94,530,o),
(16,458,o),
(16,352,cs),
(16,329,o),
(16,283,o),
(16,260,cs),
(16,230,o),
(16,198,o),
(16,168,cs),
(16,55,o),
(94,-10,o),
(228,-10,cs)
);
}
);
width = 452;
},
{
anchors = (
{
name = bottom;
pos = (264,-9);
},
{
name = ogonek;
pos = (342,10);
},
{
name = top;
pos = (258,509);
}
);
associatedMasterId = "4E2227F3-52E4-4048-A8EE-327B486EF0A4";
attr = {
coordinates = (
100,
500
);
};
hints = (
{
horizontal = 1;
origin = (0,46);
target = (0,6);
type = Stem;
},
{
horizontal = 1;
origin = (0,27);
target = (0,26);
type = Stem;
},
{
horizontal = 1;
origin = (0,34);
target = (0,18);
type = Stem;
},
{
place = (44, 100);
place = (44, 100);
type = Stem;
},
{
place = (376, 100);
place = (376, 100);
type = Stem;
}
);
layerId = "2A2B9E74-0281-441B-9A83-648CC11D66AE";
name = "{100,500}";
shapes = (
{
closed = 1;
nodes = (
(356,-10,o),
(431,29,o),
(469,95,c),
(393,147,l),
(367,102,o),
(329,77,o),
(273,78,cs),
(206,79,o),
(163,110,o),
(149,161,cs),
(143,180,o),
(142,216,o),
(142,255,cs),
(142,294,o),
(144,329,o),
(152,354,cs),
(165,400,o),
(201,431,o),
(258,431,cs),
(317,431,o),
(356,397,o),
(369,347,cs),
(374,329,o),
(376,294,o),
(376,260,c),
(414,297,l),
(112,297,l),
(112,214,l),
(475,214,l),
(476,254,o),
(475,284,o),
(472,315,cs),
(458,441,o),
(401,517,o),
(258,517,cs),
(154,517,o),
(78,459,o),
(54,368,cs),
(45,337,o),
(43,300,o),
(43,257,cs),
(43,201,o),
(51,153,o),
(68,113,cs),
(101,37,o),
(166,-7,o),
(264,-9,cs)
);
}
);
width = 513;
},
{
anchors = (
{
name = bottom;
pos = (203,-8);
},
{
name = ogonek;
pos = (368,10);
},
{
name = top;
pos = (203,509);
}
);
associatedMasterId = "4E2227F3-52E4-4048-A8EE-327B486EF0A4";
attr = {
coordinates = (
100,
300
);
};
hints = (
{
horizontal = 1;
origin = (0,46);
target = (0,6);
type = Stem;
},
{
horizontal = 1;
origin = (0,27);
target = (0,26);
type = Stem;
},
{
horizontal = 1;
origin = (0,34);
target = (0,18);
type = Stem;
},
{
origin = (0,43);
target = (0,9);
type = Stem;
},
{
origin = (0,3);
target = (0,28);
type = Stem;
}
);
layerId = "08201EB5-B49F-440A-802B-CA47CCD12539";
name = "{100,300}";
shapes = (
{
closed = 1;
nodes = (
(307,-8,o),
(365,49,o),
(371,142,c),
(274,147,l),
(269,109,o),
(243,78,o),
(203,78,cs),
(162,78,o),
(133,111,o),
(133,158,cs),
(133,190,o),
(133,223,o),
(133,255,cs),
(133,286,o),
(133,319,o),
(133,351,cs),
(133,398,o),
(162,431,o),
(203,431,cs),
(245,431,o),
(274,398,o),
(274,351,cs),
(274,322,o),
(274,293,o),
(274,270,c),
(308,296,l),
(105,296,l),
(105,213,l),
(373,213,l),
(373,238,o),
(373,310,o),
(373,358,cs),
(373,452,o),
(309,517,o),
(203,517,cs),
(98,517,o),
(33,452,o),
(33,358,cs),
(33,327,o),
(33,286,o),
(33,255,cs),
(33,221,o),
(33,185,o),
(33,151,cs),
(33,54,o),
(98,-8,o),
(203,-8,cs)
);
}
);
width = 401;
},
{
anchors = (
{
name = bottom;
pos = (233,-5);
},
{
name = ogonek;
pos = (266,0);
},
{
name = top;
pos = (233,504);
}
);
associatedMasterId = "4E2227F3-52E4-4048-A8EE-327B486EF0A4";
attr = {
coordinates = (
53,
400
);
};
hints = (
{
horizontal = 1;
origin = (0,46);
target = (0,6);
type = Stem;
},
{
horizontal = 1;
origin = (0,27);
target = (0,26);
type = Stem;
},
{
horizontal = 1;
origin = (0,34);
target = (0,18);
type = Stem;
},
{
origin = (0,40);
target = (0,12);
type = Stem;
},
{
origin = (0,24);
target = (0,28);
type = Stem;
}
);
layerId = "760AC3E6-CE82-4E46-8443-13CF55BA59C8";
name = "{53,400}";
shapes = (
{
closed = 1;
nodes = (
(323,-8,o),
(385,42,o),
(403,118,c),
(354,127,l),
(340,75,o),
(297,39,o),
(237,39,cs),
(170,39,o),
(125,82,o),
(118,145,cs),
(116,172,o),
(116,209,o),
(116,252,cs),
(116,293,o),
(116,330,o),
(118,359,cs),
(125,421,o),
(169,465,o),
(235,465,cs),
(300,465,o),
(345,421,o),
(352,359,cs),
(354,332,o),
(355,295,o),
(355,262,c),
(375,277,l),
(99,277,l),
(99,232,l),
(408,232,l),
(408,285,o),
(408,325,o),
(405,360,cs),
(397,449,o),
(333,512,o),
(234,512,cs),
(142,512,o),
(77,452,o),
(67,367,cs),
(63,334,o),
(63,297,o),
(63,252,cs),
(63,207,o),
(63,168,o),
(69,132,cs),
(81,49,o),
(143,-8,o),
(236,-8,cs)
);
}
);
width = 465;
},
{
anchors = (
{
name = bottom;
pos = (280,-10);
},
{
name = ogonek;
pos = (311,0);
},
{
name = top;
pos = (266,515);
}
);
associatedMasterId = "4E2227F3-52E4-4048-A8EE-327B486EF0A4";
attr = {
coordinates = (
144,
500
);
};
hints = (
{
horizontal = 1;
origin = (0,46);
target = (0,6);
type = Stem;
},
{
horizontal = 1;
origin = (0,27);
target = (0,26);
type = Stem;
},
{
horizontal = 1;
origin = (0,34);
target = (0,18);
type = Stem;
},
{
place = (33, 473);
place = (33, 473);
type = Stem;
},
{
place = (33, 146);
place = (33, 146);
type = Stem;
}
);
layerId = "2A2CF652-FDA6-4CD5-BE40-6F49EDC401C9";
name = "{144,500}";
shapes = (
{
closed = 1;
nodes = (
(371,-9,o),
(449,25,o),
(493,86,c),
(403,177,l),
(382,142,o),
(348,116,o),
(296,115,cs),
(239,114,o),
(208,136,o),
(192,169,cs),
(181,192,o),
(176,217,o),
(176,257,cs),
(176,290,o),
(179,319,o),
(186,341,cs),
(199,378,o),
(225,399,o),
(267,399,cs),
(311,399,o),
(341,377,o),
(353,337,cs),
(358,318,o),
(361,290,o),
(361,261,c),
(416,306,l),
(134,306,l),
(134,213,l),
(505,213,l),
(507,248,o),
(507,279,o),
(502,310,cs),
(484,435,o),
(403,523,o),
(266,523,cs),
(160,523,o),
(79,462,o),
(48,368,cs),
(37,337,o),
(32,300,o),
(33,262,cs),
(33,216,o),
(40,176,o),
(54,142,cs),
(88,50,o),
(168,-8,o),
(283,-8,cs)
);
}
);
width = 535;
},
{
anchors = (
{
name = bottom;
pos = (242,-8);
},
{
name = ogonek;
pos = (349,27);
},
{
name = top;
pos = (245,500);
}
);
layerId = "262880E7-CFE1-4BDA-902E-E24798F3240A";
shapes = (
{
closed = 1;
nodes = (
(339,-8,o),
(404,44,o),
(424,116,c),
(402,117,l),
(383,56,o),
(327,13,o),
(246,13,cs),
(161,13,o),
(103,63,o),
(90,135,cs),
(86,156,o),
(86,193,o),
(86,250,cs),
(86,302,o),
(86,343,o),
(90,365,cs),
(103,436,o),
(161,487,o),
(246,487,cs),
(329,487,o),
(387,436,o),
(401,365,cs),
(405,345,o),
(406,302,o),
(406,258,c),
(415,267,l),
(76,267,l),
(76,247,l),
(428,247,l),
(428,333,o),
(428,350,o),
(422,377,cs),
(405,454,o),
(337,508,o),
(246,508,cs),
(154,508,o),
(89,454,o),
(71,377,cs),
(64,345,o),
(64,310,o),
(64,251,cs),
(64,195,o),
(63,156,o),
(71,123,cs),
(90,46,o),
(154,-8,o),
(246,-8,cs)
);
}
);
width = 488;
},
{
anchors = (
{
name = bottom;
pos = (276,0);
},
{
name = ogonek;
pos = (373,16);
},
{
name = top;
pos = (276,528);
}
);
guides = (
{
pos = (829,79);
},
{
pos = (1487,267);
},
{
pos = (1229,193);
},
{
pos = (1617,306);
},
{
pos = (946,113);
}
);
layerId = "FFFA8D72-12AC-4CE0-B2CA-57A29829F4DA";
shapes = (
{
closed = 1;
nodes = (
(381,-16,o),
(459,8,o),
(508,63,c),
(413,184,l),
(395,160,o),
(359,140,o),
(313,140,cs),
(269,140,o),
(233,159,o),
(220,182,cs),
(209,200,o),
(207,226,o),
(207,254,cs),
(207,289,o),
(211,309,o),
(217,325,cs),
(227,351,o),
(252,367,o),
(281,367,cs),
(313,367,o),
(335,351,o),
(342,325,cs),
(347,307,o),
(351,287,o),
(351,258,c),
(414,306,l),
(154,306,l),
(154,209,l),
(533,209,l),
(536,239,o),
(535,268,o),
(532,295,cs),
(517,429,o),
(440,528,o),
(278,528,cs),
(165,528,o),
(76,465,o),
(40,364,cs),
(29,333,o),
(22,296,o),
(22,250,cs),
(22,208,o),
(30,169,o),
(44,136,cs),
(84,40,o),
(175,-16,o),
(299,-16,cs)
);
}
);
width = 554;
},
{
anchors = (
{
name = bottom;
pos = (240,-7);
},
{
name = ogonek;
pos = (291,0);
},
{
name = top;
pos = (236,509);
}
);
associatedMasterId = "4E2227F3-52E4-4048-A8EE-327B486EF0A4";
attr = {
coordinates = (
100,
400
);
};
hints = (
{
horizontal = 1;
origin = (0,46);
target = (0,6);
type = Stem;
},
{
horizontal = 1;
origin = (0,27);
target = (0,26);
type = Stem;
},
{
horizontal = 1;
origin = (0,34);
target = (0,18);
type = Stem;
},
{
origin = (0,40);
target = (0,12);
type = Stem;
},
{
origin = (0,24);
target = (0,28);
type = Stem;
}
);
layerId = "6A71C6C0-6498-4E03-A0EC-57F8322562B8";
name = "{100,400}";
shapes = (
{
closed = 1;
nodes = (
(338,-8,o),
(404,43,o),
(427,128,c),
(337,148,l),
(324,106,o),
(291,78,o),
(243,78,cs),
(190,78,o),
(155,111,o),
(148,159,cs),
(145,184,o),
(145,217,o),
(145,255,cs),
(145,291,o),
(145,323,o),
(148,350,cs),
(154,398,o),
(187,431,o),
(238,431,cs),
(288,431,o),
(322,397,o),
(328,349,cs),
(331,325,o),
(332,294,o),
(332,265,c),
(368,289,l),
(115,289,l),
(115,209,l),
(432,209,l),
(432,248,o),
(432,307,o),
(429,345,cs),
(421,447,o),
(351,517,o),
(237,517,cs),
(133,517,o),
(62,454,o),
(50,361,cs),
(45,331,o),
(44,293,o),
(45,255,cs),
(45,212,o),
(46,174,o),
(53,139,cs),
(70,49,o),
(135,-8,o),
(242,-8,cs)
);
}
);
width = 472;
},
{
anchors = (
{
name = bottom;
pos = (261,-9);
},
{
name = ogonek;
pos = (302,0);
},
{
name = top;
pos = (251,520);
}
);
associatedMasterId = "262880E7-CFE1-4BDA-902E-E24798F3240A";
attr = {
coordinates = (
188,
400
);
};
layerId = "77539BFB-0A83-4960-9558-E507C43AA1DE";
name = "{188,400}";
shapes = (
{
closed = 1;
nodes = (
(374,-8,o),
(449,48,o),
(481,156,c),
(309,188,l),
(301,166,o),
(286,153,o),
(262,152,cs),
(236,151,o),
(221,164,o),
(214,186,cs),
(208,205,o),
(207,231,o),
(207,259,cs),
(207,287,o),
(208,310,o),
(212,331,cs),
(217,353,o),
(230,367,o),
(252,367,cs),
(274,367,o),
(288,353,o),
(292,331,cs),
(295,313,o),
(297,293,o),
(297,271,c),
(364,308,l),
(155,308,l),
(155,213,l),
(485,213,l),
(486,232,o),
(486,281,o),
(484,324,cs),
(475,443,o),
(385,528,o),
(250,528,cs),
(127,528,o),
(42,457,o),
(25,349,cs),
(21,325,o),
(18,286,o),
(19,260,cs),
(19,223,o),
(22,190,o),
(29,160,cs),
(54,52,o),
(126,-8,o),
(263,-8,cs)
);
}
);
width = 501;
},
{
anchors = (
{
name = bottom;
pos = (233,-5);
},
{
name = ogonek;
pos = (266,0);
},
{
name = top;
pos = (233,504);
}
);
associatedMasterId = "4E2227F3-52E4-4048-A8EE-327B486EF0A4";
attr = {
coordinates = (
53,
400
);
};
hints = (
{
horizontal = 1;
origin = (0,46);
target = (0,6);
type = Stem;
},
{
horizontal = 1;
origin = (0,27);
target = (0,26);
type = Stem;
},
{
horizontal = 1;
origin = (0,34);
target = (0,18);
type = Stem;
},
{
origin = (0,40);
target = (0,12);
type = Stem;
},
{
origin = (0,24);
target = (0,28);
type = Stem;
}
);
layerId = "B9A583A1-7CC2-472E-97DA-5B156B5B5DEE";
name = "{53,400} Jan 10 18, 13:34";
shapes = (
{
closed = 1;
nodes = (
(323,-8,o),
(385,42,o),
(403,118,c),
(354,127,l),
(340,75,o),
(297,39,o),
(237,39,cs),
(170,39,o),
(125,82,o),
(118,145,cs),
(116,172,o),
(116,209,o),
(116,252,cs),
(116,293,o),
(116,330,o),
(118,359,cs),
(125,421,o),
(169,465,o),
(235,465,cs),
(300,465,o),
(345,421,o),
(352,359,cs),
(354,332,o),
(355,295,o),
(355,262,c),
(375,277,l),
(99,277,l),
(99,232,l),
(408,232,l),
(408,285,o),
(408,325,o),
(405,360,cs),
(397,449,o),
(333,512,o),
(234,512,cs),
(142,512,o),
(77,452,o),
(67,367,cs),
(63,334,o),
(63,297,o),
(63,252,cs),
(63,207,o),
(63,168,o),
(69,132,cs),
(81,49,o),
(143,-8,o),
(236,-8,cs)
);
}
);
width = 465;
}
);
unicode = 101;
userData = {
KernOnName = e;
};
},
{
glyphname = ezh;
kernLeft = KO_ezh;
kernRight = KO_ezh;
layers = (
{
anchors = (
{
name = bottom;
pos = (188,0);
},
{
name = top;
pos = (188,500);
}
);
layerId = "DCBE1F7B-116A-43E0-B7B4-8657BA77D8B5";
shapes = (
{
closed = 1;
nodes = (
(226,-215,o),
(352,-153,o),
(352,13,cs),
(352,146,o),
(270,236,o),
(64,223,c),
(68,215,l),
(316,479,l),
(316,500,l),
(50,500,l),
(50,479,l),
(298,479,l),
(295,486,l),
(46,221,l),
(46,204,l),
(283,217,o),
(330,109,o),
(330,11,cs),
(330,-145,o),
(209,-193,o),
(108,-193,cs),
(72,-193,o),
(39,-187,o),
(14,-177,c),
(12,-198,l),
(41,-209,o),
(76,-215,o),
(111,-215,cs)
);
}
);
width = 376;
},
{
anchors = (
{
name = bottom;
pos = (231,0);
},
{
name = top;
pos = (231,520);
}
);
layerId = "FFFA8D72-12AC-4CE0-B2CA-57A29829F4DA";
shapes = (
{
closed = 1;
nodes = (
(332,-208,o),
(448,-109,o),
(448,30,cs),
(448,124,o),
(394,259,o),
(197,251,c),
(213,202,l),
(413,360,l),
(413,520,l),
(21,520,l),
(21,350,l),
(271,350,l),
(257,394,l),
(33,225,l),
(108,119,l),
(182,186,o),
(260,125,o),
(260,49,cs),
(260,-7,o),
(217,-38,o),
(146,-38,cs),
(113,-38,o),
(74,-32,o),
(31,-18,c),
(23,-184,l),
(74,-201,o),
(123,-208,o),
(168,-208,cs)
);
}
);
width = 462;
},
{
anchors = (
{
name = bottom;
pos = (190,0);
},
{
name = top;
pos = (190,520);
}
);
hints = (
{
horizontal = 1;
origin = (0,9);
stem = -1;
target = (0,10);
type = TTStem;
},
{
horizontal = 1;
origin = (0,9);
type = TTSnap;
},
{
horizontal = 1;
origin = (0,27);
stem = -1;
target = (0,20);
type = TTStem;
},
{
horizontal = 1;
origin = (0,27);
type = TTSnap;
},
{
horizontal = 1;
origin = (0,27);
target = (0,20);
type = Stem;
},
{
horizontal = 1;
origin = (0,9);
target = (0,10);
type = Stem;
},
{
origin = (0,17);
target = (0,2);
type = Stem;
},
{
origin = (0,10);
target = (0,7);
type = Stem;
}
);
layerId = "4E2227F3-52E4-4048-A8EE-327B486EF0A4";
shapes = (
{
closed = 1;
nodes = (
(279,-193,o),
(380,-79,o),
(380,47,cs),
(380,160,o),
(298,247,o),
(187,263,c),
(181,204,l),
(351,350,l),
(351,520,l),
(11,520,l),
(11,350,l),
(212,350,l),
(197,395,l),
(14,250,l),
(72,127,l),
(134,187,o),
(192,132,o),
(192,62,cs),
(192,-5,o),
(148,-28,o),
(101,-28,cs),
(73,-28,o),
(44,-20,o),
(23,-8,c),
(20,-174,l),
(58,-187,o),
(95,-193,o),
(129,-193,cs)
);
}
);
width = 380;
},
{
anchors = (
{
name = bottom;
pos = (231,0);
},
{
name = top;
pos = (231,500);
}
);
layerId = "262880E7-CFE1-4BDA-902E-E24798F3240A";
shapes = (
{
closed = 1;
nodes = (
(318,-192,o),
(416,-118,o),
(416,29,cs),
(416,186,o),
(306,306,o),
(87,243,c),
(91,235,l),
(369,479,l),
(369,500,l),
(52,500,l),
(52,479,l),
(347,479,l),
(345,485,l),
(66,241,l),
(67,224,l),
(314,287,o),
(395,157,o),
(395,29,cs),
(395,-112,o),
(301,-172,o),
(184,-172,cs),
(141,-172,o),
(95,-164,o),
(50,-149,c),
(48,-168,l),
(97,-184,o),
(143,-192,o),
(187,-192,cs)
);
}
);
width = 461;
},
{
anchors = (
{
name = bottom;
pos = (226,0);
},
{
name = top;
pos = (226,509);
}
);
associatedMasterId = "FFFA8D72-12AC-4CE0-B2CA-57A29829F4DA";
attr = {
coordinates = (
100,
500
);
};
hints = (
{
horizontal = 1;
origin = (0,27);
target = (0,20);
type = Stem;
},
{
horizontal = 1;
place = (196, 76);
place = (196, 76);
type = Stem;
},
{
horizontal = 1;
origin = (0,9);
target = (0,10);
type = Stem;
},
{
origin = (0,17);
target = (0,2);
type = Stem;
}
);
layerId = "E2F40EC3-97F2-4742-AF5B-8D22F1BE2629";
name = "{100,500}";
shapes = (
{
closed = 1;
nodes = (
(305,-199,o),
(422,-116,o),
(422,44,cs),
(422,167,o),
(353,291,o),
(137,273,c),
(164,219,l),
(382,423,l),
(382,509,l),
(37,509,l),
(37,418,l),
(248,418,l),
(248,420,l),
(49,233,l),
(84,175,l),
(244,240,o),
(322,142,o),
(322,39,cs),
(322,-62,o),
(255,-109,o),
(163,-109,cs),
(126,-109,o),
(84,-102,o),
(41,-87,c),
(36,-176,l),
(79,-191,o),
(124,-199,o),
(165,-199,cs)
);
}
);
width = 452;
},
{
anchors = (
{
name = bottom;
pos = (191,0);
},
{
name = top;
pos = (191,509);
}
);
associatedMasterId = "FFFA8D72-12AC-4CE0-B2CA-57A29829F4DA";
attr = {
coordinates = (
100,
300
);
};
hints = (
{
horizontal = 1;
origin = (0,27);
target = (0,20);
type = Stem;
},
{
horizontal = 1;
place = (176, 79);
place = (176, 79);
type = Stem;
},
{
horizontal = 1;
origin = (0,9);
target = (0,10);
type = Stem;
},
{
origin = (0,17);
target = (0,2);
type = Stem;
},
{
origin = (0,10);
target = (0,7);
type = Stem;
}
);
layerId = "09BBA6B8-2AC5-4141-9398-553614FAB229";
name = "{100,300}";
shapes = (
{
closed = 1;
nodes = (
(252,-204,o),
(369,-120,o),
(369,29,cs),
(369,153,o),
(287,259,o),
(126,260,c),
(135,210,l),
(337,418,l),
(337,509,l),
(16,509,l),
(16,418,l),
(215,418,l),
(215,420,l),
(35,235,l),
(63,168,l),
(217,203,o),
(269,120,o),
(269,35,cs),
(269,-78,o),
(186,-115,o),
(110,-115,cs),
(77,-115,o),
(46,-108,o),
(23,-98,c),
(20,-187,l),
(54,-199,o),
(88,-204,o),
(122,-204,cs)
);
}
);
width = 382;
}
);
unicode = 658;
},
{
color = 3;
glyphname = f;
kernLeft = KO_f;
kernRight = KO_f;
layers = (
{
layerId = "262880E7-CFE1-4BDA-902E-E24798F3240A";
shapes = (
{
closed = 1;
nodes = (
(125,0,l),
(125,540,ls),
(125,641,o),
(156,679,o),
(239,679,cs),
(266,679,l),
(266,700,l),
(239,700,ls),
(142,700,o),
(103,654,o),
(103,540,cs),
(103,0,l)
);
},
{
closed = 1;
nodes = (
(264,479,l),
(264,500,l),
(24,500,l),
(24,479,l)
);
}
);
width = 288;
},
{
hints = (
{
horizontal = 1;
origin = (1,1);
type = TTSnap;
},
{
horizontal = 1;
origin = (0,0);
type = TTSnap;
},
{
horizontal = 1;
origin = (0,11);
target = up;
type = BottomGhost;
},
{
horizontal = 1;
origin = (1,2);
target = (1,3);
type = Stem;
},
{
horizontal = 1;
origin = (0,7);
target = down;
type = TopGhost;
},
{
origin = (0,11);
target = (0,0);
type = Stem;
}
);
layerId = "4E2227F3-52E4-4048-A8EE-327B486EF0A4";
shapes = (
{
closed = 1;
nodes = (
(239,0,l),
(239,539,ls),
(239,557,o),
(252,575,o),
(276,575,cs),
(283,575,l),
(283,700,l),
(276,700,ls),
(144,700,o),
(51,683,o),
(51,546,cs),
(51,0,l)
);
},
{
closed = 1;
nodes = (
(297,390,l),
(297,520,l),
(10,520,l),
(10,390,l)
);
}
);
width = 299;
},
{
layerId = "FFFA8D72-12AC-4CE0-B2CA-57A29829F4DA";
shapes = (
{
closed = 1;
nodes = (
(279,0,l),
(279,539,ls),
(279,562,o),
(289,575,o),
(320,575,cs),
(373,575,l),
(373,700,l),
(236,700,ls),
(154,700,o),
(91,668,o),
(91,556,cs),
(91,0,l)
);
},
{
closed = 1;
nodes = (
(387,370,l),
(387,520,l),
(20,520,l),
(20,370,l)
);
}
);
width = 398;
},
{
layerId = "DCBE1F7B-116A-43E0-B7B4-8657BA77D8B5";
shapes = (
{
closed = 1;
nodes = (
(100,0,l),
(100,550,ls),
(100,637,o),
(113,689,o),
(183,689,cs),
(208,689,l),
(208,710,l),
(182,710,ls),
(100,710,o),
(78,650,o),
(78,550,cs),
(78,0,l)
);
},
{
closed = 1;
nodes = (
(204,479,l),
(204,500,l),
(18,500,l),
(18,479,l)
);
}
);
width = 218;
},
{
associatedMasterId = "FFFA8D72-12AC-4CE0-B2CA-57A29829F4DA";
attr = {
coordinates = (
100,
500
);
};
hints = (
{
horizontal = 1;
origin = (0,11);
target = up;
type = BottomGhost;
},
{
horizontal = 1;
origin = (1,2);
target = (1,3);
type = Stem;
},
{
horizontal = 1;
origin = (0,7);
target = (0,4);
type = Stem;
},
{
origin = (0,11);
target = (0,0);
type = Stem;
}
);
layerId = "2C93A357-82AB-483E-BCC8-F28359C8C182";
name = "{100,500}";
shapes = (
{
closed = 1;
nodes = (
(203,0,l),
(203,524,l),
(203,593,o),
(222,613,o),
(287,613,cs),
(321,613,l),
(321,700,l),
(277,700,ls),
(143,700,o),
(103,661,o),
(103,530,c),
(103,0,l)
);
},
{
closed = 1;
nodes = (
(321,418,l),
(321,510,l),
(22,510,l),
(22,418,l)
);
}
);
width = 339;
},
{
associatedMasterId = "FFFA8D72-12AC-4CE0-B2CA-57A29829F4DA";
attr = {
coordinates = (
100,
300
);
};
hints = (
{
horizontal = 1;
origin = (0,11);
target = up;
type = BottomGhost;
},
{
horizontal = 1;
origin = (1,2);
target = (1,3);
type = Stem;
},
{
horizontal = 1;
origin = (0,4);
target = (0,7);
type = Stem;
},
{
origin = (0,11);
target = (0,0);
type = Stem;
}
);
layerId = "4E721415-DD60-4F72-A196-6C5252F73DBA";
name = "{100,300}";
shapes = (
{
closed = 1;
nodes = (
(164,0,l),
(164,535,ls),
(164,594,o),
(183,620,o),
(226,620,cs),
(246,620,l),
(248,705,l),
(225,705,ls),
(113,705,o),
(65,659,o),
(65,538,cs),
(65,0,l)
);
},
{
closed = 1;
nodes = (
(247,437,l),
(247,509,l),
(14,509,l),
(14,437,l)
);
}
);
width = 256;
}
);
unicode = 102;
userData = {
KernOnName = f;
};
},
{
glyphname = g;
kernLeft = KO_o;
kernRight = KO_l;
layers = (
{
anchors = (
{
name = top;
pos = (254,500);
}
);
layerId = "262880E7-CFE1-4BDA-902E-E24798F3240A";
shapes = (
{
closed = 1;
nodes = (
(347,-206,o),
(421,-132,o),
(421,0,cs),
(421,500,l),
(399,500,l),
(399,407,l),
(398,410,l),
(373,470,o),
(320,508,o),
(247,508,cs),
(157,508,o),
(94,453,o),
(75,377,cs),
(67,345,o),
(65,304,o),
(65,250,cs),
(65,191,o),
(68,151,o),
(75,123,cs),
(94,46,o),
(157,-8,o),
(247,-8,cs),
(323,-8,o),
(379,31,o),
(400,89,c),
(399,92,l),
(399,0,ls),
(399,-118,o),
(333,-184,o),
(180,-179,c),
(180,-200,l)
);
},
{
closed = 1;
nodes = (
(167,13,o),
(110,67,o),
(95,135,cs),
(92,149,o),
(87,184,o),
(87,250,cs),
(87,318,o),
(90,345,o),
(95,365,cs),
(112,432,o),
(166,487,o),
(249,487,cs),
(330,487,o),
(381,432,o),
(391,365,cs),
(394,344,o),
(399,336,o),
(399,249,cs),
(399,162,o),
(398,154,o),
(395,135,cs),
(385,70,o),
(334,13,o),
(249,13,cs)
);
}
);
width = 511;
},
{
anchors = (
{
name = top;
pos = (233,520);
}
);
hints = (
{
horizontal = 1;
origin = (0,3);
type = TTSnap;
},
{
horizontal = 1;
origin = (0,30);
type = TTSnap;
},
{
horizontal = 1;
origin = (0,21);
type = TTSnap;
},
{
horizontal = 1;
origin = (0,21);
stem = -1;
target = (0,24);
type = TTStem;
},
{
horizontal = 1;
origin = (0,9);
stem = -1;
target = (0,6);
type = TTStem;
},
{
horizontal = 1;
origin = (0,30);
target = up;
type = BottomGhost;
},
{
horizontal = 1;
origin = (0,21);
target = up;
type = BottomGhost;
},
{
horizontal = 1;
origin = (0,9);
target = down;
type = TopGhost;
},
{
horizontal = 1;
origin = (0,4);
target = down;
type = TopGhost;
},
{
horizontal = 1;
place = (-210, 165);
place = (-210, 165);
type = Stem;
},
{
horizontal = 1;
origin = (0,4);
target = (0,6);
type = Stem;
},
{
origin = (0,18);
target = (0,25);
type = Stem;
},
{
origin = (0,25);
target = (0,2);
type = Stem;
},
{
origin = (0,26);
target = (0,2);
type = Stem;
}
);
layerId = "4E2227F3-52E4-4048-A8EE-327B486EF0A4";
shapes = (
{
closed = 1;
nodes = (
(387,-233,o),
(441,-115,o),
(441,34,cs),
(441,520,l),
(253,520,l),
(253,400,l),
(277,379,l),
(265,522,o),
(189,530,o),
(156,530,cs),
(59,530,o),
(17,467,o),
(17,350,cs),
(17,320,o),
(17,290,o),
(17,260,cs),
(17,230,o),
(17,200,o),
(17,170,cs),
(17,59,o),
(55,-10,o),
(156,-10,cs),
(183,-10,o),
(270,-6,o),
(277,130,c),
(254,87,l),
(254,63,ls),
(254,-7,o),
(254,-56,o),
(98,-45,c),
(98,-207,l)
);
},
{
closed = 1;
nodes = (
(211,151,o),
(204,164,o),
(204,183,cs),
(204,208,o),
(204,235,o),
(204,260,cs),
(204,285,o),
(204,312,o),
(204,337,cs),
(204,356,o),
(211,369,o),
(228,369,cs),
(245,369,o),
(252,356,o),
(252,337,cs),
(252,312,o),
(252,285,o),
(252,260,cs),
(252,235,o),
(252,208,o),
(252,183,cs),
(252,164,o),
(245,151,o),
(228,151,cs)
);
}
);
width = 463;
},
{
anchors = (
{
name = top;
pos = (300,524);
}
);
layerId = "FFFA8D72-12AC-4CE0-B2CA-57A29829F4DA";
shapes = (
{
closed = 1;
nodes = (
(293,-221,o),
(537,-203,o),
(537,69,cs),
(537,520,l),
(349,520,l),
(349,410,l),
(367,440,l),
(345,495,o),
(306,532,o),
(227,532,cs),
(142,532,o),
(75,476,o),
(43,394,cs),
(27,354,o),
(22,308,o),
(22,267,cs),
(22,236,o),
(25,190,o),
(39,149,cs),
(77,36,o),
(177,16,o),
(232,16,cs),
(315,16,o),
(352,50,o),
(369,95,c),
(346,123,l),
(346,54,ls),
(346,-47,o),
(229,-55,o),
(133,-28,c),
(128,-186,l)
);
},
{
closed = 1;
nodes = (
(257,159,o),
(239,172,o),
(228,194,cs),
(218,213,o),
(213,239,o),
(213,264,cs),
(213,292,o),
(218,319,o),
(229,339,cs),
(240,359,o),
(258,371,o),
(281,371,cs),
(307,371,o),
(324,357,o),
(334,337,cs),
(344,318,o),
(349,290,o),
(349,264,cs),
(349,238,o),
(344,212,o),
(334,193,cs),
(323,172,o),
(305,159,o),
(281,159,cs)
);
}
);
width = 569;
},
{
anchors = (
{
name = top;
pos = (182,500);
}
);
layerId = "DCBE1F7B-116A-43E0-B7B4-8657BA77D8B5";
shapes = (
{
closed = 1;
nodes = (
(261,-204,o),
(316,-130,o),
(316,0,cs),
(316,500,l),
(293,500,l),
(293,430,l),
(296,433,l),
(276,478,o),
(235,508,o),
(182,508,cs),
(102,508,o),
(48,448,o),
(48,365,cs),
(48,327,o),
(48,288,o),
(48,250,cs),
(48,212,o),
(48,173,o),
(48,135,cs),
(48,52,o),
(102,-8,o),
(182,-8,cs),
(235,-8,o),
(276,22,o),
(296,67,c),
(293,70,l),
(293,0,ls),
(293,-117,o),
(247,-183,o),
(138,-179,c),
(138,-200,l)
);
},
{
closed = 1;
nodes = (
(117,13,o),
(70,63,o),
(70,135,cs),
(70,173,o),
(70,212,o),
(70,250,cs),
(70,288,o),
(70,327,o),
(70,365,cs),
(70,437,o),
(117,487,o),
(184,487,cs),
(248,487,o),
(293,437,o),
(293,365,cs),
(293,326,o),
(293,288,o),
(293,249,cs),
(293,211,o),
(293,173,o),
(293,135,cs),
(293,63,o),
(248,13,o),
(184,13,cs)
);
}
);
width = 378;
},
{
anchors = (
{
name = top;
pos = (276,509);
}
);
associatedMasterId = "FFFA8D72-12AC-4CE0-B2CA-57A29829F4DA";
attr = {
coordinates = (
100,
500
);
};
hints = (
{
horizontal = 1;
place = (-199, 96);
place = (-199, 96);
type = Stem;
},
{
horizontal = 1;
origin = (0,21);
target = (1,23);
type = Stem;
},
{
horizontal = 1;
origin = (0,9);
target = (1,11);
type = Stem;
},
{
horizontal = 1;
origin = (0,4);
target = (1,11);
type = Stem;
},
{
origin = (0,15);
target = (1,5);
type = Stem;
},
{
origin = (0,26);
target = (0,2);
type = Stem;
}
);
layerId = "0BDFE4D0-635C-422C-A6D6-8B6625469A4F";
name = "{100,500}";
shapes = (
{
closed = 1;
nodes = (
(323,-212,o),
(475,-174,o),
(475,25,cs),
(475,511,l),
(375,511,l),
(375,461,l),
(376,462,l),
(349,499,o),
(306,519,o),
(242,519,cs),
(152,519,o),
(85,464,o),
(60,386,cs),
(48,350,o),
(45,307,o),
(45,256,cs),
(45,209,o),
(48,167,o),
(58,133,cs),
(86,39,o),
(169,-2,o),
(249,-2,cs),
(311,-2,o),
(350,19,o),
(376,52,c),
(375,53,l),
(375,29,ls),
(375,-87,o),
(312,-115,o),
(164,-103,c),
(160,-196,l)
);
},
{
closed = 1;
nodes = (
(208,81,o),
(169,117,o),
(156,163,c),
(150,178,o),
(146,207,o),
(146,257,cs),
(146,305,o),
(150,332,o),
(157,351,cs),
(172,397,o),
(208,433,o),
(264,433,cs),
(321,433,o),
(358,397,o),
(368,351,cs),
(373,331,o),
(375,318,o),
(375,257,cs),
(375,196,o),
(373,181,o),
(369,162,cs),
(359,118,o),
(324,81,o),
(265,81,cs)
);
}
);
width = 537;
},
{
anchors = (
{
name = top;
pos = (204,509);
}
);
associatedMasterId = "FFFA8D72-12AC-4CE0-B2CA-57A29829F4DA";
attr = {
coordinates = (
100,
300
);
};
hints = (
{
horizontal = 1;
origin = (0,30);
target = up;
type = BottomGhost;
},
{
horizontal = 1;
origin = (0,21);
target = (1,23);
type = Stem;
},
{
horizontal = 1;
origin = (0,9);
target = (1,11);
type = Stem;
},
{
horizontal = 1;
origin = (0,4);
target = (1,11);
type = Stem;
},
{
horizontal = 1;
origin = (0,30);
target = (0,29);
type = Stem;
},
{
origin = (0,18);
target = (1,2);
type = Stem;
},
{
origin = (0,26);
target = (0,2);
type = Stem;
}
);
layerId = "BED7CD07-10CC-47CF-B4CD-7EED2CD8E392";
name = "{100,300}";
shapes = (
{
closed = 1;
nodes = (
(318,-218,o),
(372,-124,o),
(372,15,cs),
(372,510,l),
(272,510,l),
(272,463,l),
(273,464,l),
(248,504,o),
(208,518,o),
(170,518,cs),
(83,518,o),
(33,457,o),
(33,359,cs),
(33,325,o),
(33,290,o),
(33,255,cs),
(33,223,o),
(33,190,o),
(33,158,cs),
(33,63,o),
(81,-1,o),
(170,-1,cs),
(207,-1,o),
(248,13,o),
(273,55,c),
(272,55,l),
(272,24,ls),
(272,-70,o),
(244,-123,o),
(118,-116,c),
(118,-203,l)
);
},
{
closed = 1;
nodes = (
(162,86,o),
(133,118,o),
(133,165,cs),
(133,195,o),
(133,225,o),
(133,255,cs),
(133,288,o),
(133,320,o),
(133,352,cs),
(133,399,o),
(162,432,o),
(203,432,cs),
(244,432,o),
(272,399,o),
(272,352,cs),
(272,320,o),
(272,289,o),
(272,256,cs),
(272,226,o),
(272,195,o),
(272,165,cs),
(272,118,o),
(244,86,o),
(203,86,cs)
);
}
);
width = 415;
}
);
unicode = 103;
userData = {
KernOnName = g;
};
},
{
glyphname = h;
kernLeft = KO_l;
kernRight = KO_a;
layers = (
{
anchors = (
{
name = bottom;
pos = (262,0);
},
{
name = center;
pos = (262,350);
},
{
name = top;
pos = (262,700);
}
);
layerId = "262880E7-CFE1-4BDA-902E-E24798F3240A";
shapes = (
{
closed = 1;
nodes = (
(113,0,l),
(113,339,ls),
(113,426,o),
(174,486,o),
(267,486,cs),
(395,486,o),
(414,411,o),
(414,323,cs),
(414,0,l),
(436,0,l),
(436,326,ls),
(436,425,o),
(409,507,o),
(269,507,cs),
(194,507,o),
(136,472,o),
(110,412,c),
(113,409,l),
(113,700,l),
(91,700,l),
(91,0,l)
);
}
);
width = 523;
},
{
anchors = (
{
name = bottom;
pos = (231,0);
},
{
name = center;
pos = (231,350);
},
{
name = top;
pos = (231,700);
}
);
hints = (
{
horizontal = 1;
origin = (0,19);
type = TTSnap;
},
{
horizontal = 1;
origin = (0,20);
type = TTSnap;
},
{
horizontal = 1;
origin = (0,20);
target = up;
type = BottomGhost;
},
{
horizontal = 1;
origin = (0,19);
target = down;
type = TopGhost;
},
{
origin = (0,20);
target = (0,0);
type = Stem;
},
{
horizontal = 1;
origin = (0,13);
stem = -1;
target = (0,4);
type = TTStem;
},
{
horizontal = 1;
origin = (0,9);
type = TTSnap;
},
{
horizontal = 1;
origin = (0,13);
type = TTSnap;
},
{
horizontal = 1;
origin = (0,4);
target = (0,13);
type = Stem;
},
{
origin = (0,7);
target = (0,10);
type = Stem;
}
);
layerId = "4E2227F3-52E4-4048-A8EE-327B486EF0A4";
shapes = (
{
closed = 1;
nodes = (
(210,0,l),
(210,337,ls),
(210,358,o),
(218,369,o),
(233,369,cs),
(247,369,o),
(254,358,o),
(254,337,cs),
(254,0,l),
(442,0,l),
(442,368,ls),
(442,464,o),
(415,530,o),
(322,530,cs),
(277,530,o),
(203,517,o),
(184,396,c),
(210,399,l),
(210,700,l),
(22,700,l),
(22,0,l)
);
}
);
width = 462;
},
{
anchors = (
{
name = bottom;
pos = (275,0);
},
{
name = center;
pos = (275,350);
},
{
name = top;
pos = (275,700);
}
);
layerId = "FFFA8D72-12AC-4CE0-B2CA-57A29829F4DA";
shapes = (
{
closed = 1;
nodes = (
(220,0,l),
(220,302,ls),
(220,343,o),
(244,371,o),
(280,371,cs),
(318,371,o),
(333,347,o),
(333,308,cs),
(333,0,l),
(521,0,l),
(521,332,ls),
(521,459,o),
(465,532,o),
(352,532,cs),
(270,532,o),
(222,490,o),
(201,405,c),
(220,385,l),
(220,700,l),
(32,700,l),
(32,0,l)
);
}
);
width = 550;
},
{
anchors = (
{
name = bottom;
pos = (191,0);
},
{
name = center;
pos = (191,350);
},
{
name = top;
pos = (191,700);
}
);
layerId = "DCBE1F7B-116A-43E0-B7B4-8657BA77D8B5";
shapes = (
{
closed = 1;
nodes = (
(84,0,l),
(84,346,ls),
(84,433,o),
(128,486,o),
(198,486,cs),
(310,486,o),
(301,386,o),
(301,344,cs),
(301,0,l),
(323,0,l),
(323,357,ls),
(323,430,o),
(307,507,o),
(201,507,cs),
(144,507,o),
(101,477,o),
(82,421,c),
(84,419,l),
(84,700,l),
(62,700,l),
(62,0,l)
);
}
);
width = 378;
},
{
anchors = (
{
name = bottom;
pos = (268,0);
},
{
name = center;
pos = (268,350);
},
{
name = top;
pos = (268,700);
}
);
associatedMasterId = "262880E7-CFE1-4BDA-902E-E24798F3240A";
attr = {
coordinates = (
100,
500
);
};
hints = (
{
horizontal = 1;
origin = (0,19);
type = TTSnap;
},
{
horizontal = 1;
origin = (0,20);
type = TTSnap;
},
{
horizontal = 1;
origin = (0,20);
target = up;
type = BottomGhost;
},
{
horizontal = 1;
origin = (0,19);
target = down;
type = TopGhost;
},
{
origin = (0,20);
target = (0,0);
type = Stem;
},
{
origin = (0,7);
target = (0,10);
type = Stem;
},
{
horizontal = 1;
origin = (0,13);
target = (0,4);
type = Stem;
}
);
layerId = "4048E22C-60FA-41C9-8C09-A9652884103B";
name = "{100,  500}";
shapes = (
{
closed = 1;
nodes = (
(163,0,l),
(163,323,ls),
(163,388,o),
(207,432,o),
(272,432,cs),
(343,432,o),
(376,391,o),
(376,322,cs),
(376,0,l),
(476,0,l),
(476,336,ls),
(476,439,o),
(426,519,o),
(305,519,cs),
(240,519,o),
(191,494,o),
(162,448,c),
(163,447,l),
(163,700,l),
(63,700,l),
(63,0,l)
);
}
);
width = 536;
},
{
anchors = (
{
name = bottom;
pos = (210,0);
},
{
name = center;
pos = (210,350);
},
{
name = top;
pos = (210,700);
}
);
associatedMasterId = "262880E7-CFE1-4BDA-902E-E24798F3240A";
attr = {
coordinates = (
100,
300
);
};
hints = (
{
horizontal = 1;
origin = (0,19);
type = TTSnap;
},
{
horizontal = 1;
origin = (0,20);
type = TTSnap;
},
{
horizontal = 1;
origin = (0,20);
target = up;
type = BottomGhost;
},
{
horizontal = 1;
origin = (0,19);
target = down;
type = TopGhost;
},
{
origin = (0,20);
target = (0,0);
type = Stem;
},
{
origin = (0,7);
target = (0,10);
type = Stem;
},
{
horizontal = 1;
origin = (0,13);
target = (0,4);
type = Stem;
}
);
layerId = "F72E0101-5007-425C-8760-DE19B09B3244";
name = "{100,  300}";
shapes = (
{
closed = 1;
nodes = (
(143,0,l),
(143,342,ls),
(143,398,o),
(170,431,o),
(214,431,cs),
(266,431,o),
(279,400,o),
(279,336,cs),
(279,0,l),
(379,0,l),
(379,343,ls),
(379,427,o),
(367,518,o),
(248,518,cs),
(207,518,o),
(167,504,o),
(142,463,c),
(143,462,l),
(143,700,l),
(43,700,l),
(43,0,l)
);
}
);
width = 417;
}
);
unicode = 104;
},
{
glyphname = i;
kernLeft = KO_i;
kernRight = KO_i;
layers = (
{
anchors = (
{
name = bottom;
pos = (121,0);
},
{
name = top;
pos = (120,500);
}
);
layerId = "262880E7-CFE1-4BDA-902E-E24798F3240A";
shapes = (
{
closed = 1;
nodes = (
(129,1,l),
(129,501,l),
(107,501,l),
(107,1,l)
);
},
{
pos = (79,0);
ref = dotaccentcomb;
}
);
width = 242;
},
{
anchors = (
{
name = bottom;
pos = (115,0);
},
{
name = top;
pos = (116,520);
}
);
hints = (
{
horizontal = 1;
origin = (0,2);
type = TTSnap;
},
{
horizontal = 1;
origin = (0,3);
type = TTSnap;
},
{
horizontal = 1;
origin = (0,3);
target = up;
type = BottomGhost;
},
{
horizontal = 1;
origin = (0,2);
target = down;
type = TopGhost;
},
{
origin = (0,3);
target = (0,0);
type = Stem;
}
);
layerId = "4E2227F3-52E4-4048-A8EE-327B486EF0A4";
shapes = (
{
closed = 1;
nodes = (
(210,0,l),
(210,520,l),
(22,520,l),
(22,0,l)
);
},
{
pos = (9,0);
ref = dotaccentcomb;
}
);
width = 230;
},
{
anchors = (
{
name = bottom;
pos = (126,0);
},
{
name = top;
pos = (126,520);
}
);
layerId = "FFFA8D72-12AC-4CE0-B2CA-57A29829F4DA";
shapes = (
{
closed = 1;
nodes = (
(220,0,l),
(220,520,l),
(32,520,l),
(32,0,l)
);
},
{
pos = (22,0);
ref = dotaccentcomb;
}
);
width = 250;
},
{
anchors = (
{
name = bottom;
pos = (73,0);
},
{
name = top;
pos = (73,500);
}
);
layerId = "DCBE1F7B-116A-43E0-B7B4-8657BA77D8B5";
shapes = (
{
closed = 1;
nodes = (
(84,0,l),
(84,500,l),
(62,500,l),
(62,0,l)
);
},
{
pos = (31,0);
ref = dotaccentcomb;
}
);
width = 146;
}
);
unicode = 105;
userData = {
KernOnName = i;
};
},
{
glyphname = idotless;
kernLeft = KO_n;
kernRight = KO_l;
layers = (
{
anchors = (
{
name = bottom;
pos = (102,0);
},
{
name = ogonek;
pos = (100,0);
},
{
name = top;
pos = (102,500);
}
);
layerId = "262880E7-CFE1-4BDA-902E-E24798F3240A";
shapes = (
{
closed = 1;
nodes = (
(113,0,l),
(113,500,l),
(91,500,l),
(91,0,l)
);
}
);
width = 204;
},
{
anchors = (
{
name = bottom;
pos = (126,0);
},
{
name = ogonek;
pos = (150,0);
},
{
name = top;
pos = (126,520);
}
);
layerId = "FFFA8D72-12AC-4CE0-B2CA-57A29829F4DA";
shapes = (
{
closed = 1;
nodes = (
(220,0,l),
(220,520,l),
(32,520,l),
(32,0,l)
);
}
);
width = 252;
},
{
anchors = (
{
name = bottom;
pos = (73,0);
},
{
name = ogonek;
pos = (73,0);
},
{
name = top;
pos = (73,500);
}
);
layerId = "DCBE1F7B-116A-43E0-B7B4-8657BA77D8B5";
shapes = (
{
closed = 1;
nodes = (
(84,0,l),
(84,500,l),
(62,500,l),
(62,0,l)
);
}
);
width = 146;
},
{
anchors = (
{
name = bottom;
pos = (116,0);
},
{
name = ogonek;
pos = (142,0);
},
{
name = top;
pos = (116,520);
}
);
hints = (
{
horizontal = 1;
origin = (0,3);
type = TTSnap;
},
{
horizontal = 1;
origin = (0,2);
type = TTSnap;
},
{
horizontal = 1;
origin = (0,3);
target = up;
type = BottomGhost;
},
{
horizontal = 1;
origin = (0,2);
target = down;
type = TopGhost;
},
{
origin = (0,3);
target = (0,0);
type = Stem;
}
);
layerId = "4E2227F3-52E4-4048-A8EE-327B486EF0A4";
shapes = (
{
closed = 1;
nodes = (
(210,0,l),
(210,520,l),
(22,520,l),
(22,0,l)
);
}
);
width = 232;
}
);
unicode = 305;
},
{
glyphname = j;
kernLeft = KO_j;
kernRight = KO_l;
layers = (
{
anchors = (
{
name = top;
pos = (103,500);
}
);
layerId = "262880E7-CFE1-4BDA-902E-E24798F3240A";
shapes = (
{
closed = 1;
nodes = (
(61,-211,o),
(114,-159,o),
(114,-74,cs),
(114,500,l),
(92,500,l),
(92,-74,ls),
(92,-146,o),
(48,-190,o),
(-25,-190,c),
(-25,-211,l)
);
},
{
pos = (62,0);
ref = dotaccentcomb;
}
);
width = 205;
},
{
anchors = (
{
name = top;
pos = (120,520);
}
);
hints = (
{
horizontal = 1;
origin = (0,4);
type = TTSnap;
},
{
horizontal = 1;
origin = (0,9);
stem = -1;
target = (0,8);
type = TTStem;
},
{
horizontal = 1;
origin = (0,9);
target = up;
type = BottomGhost;
},
{
horizontal = 1;
origin = (0,4);
target = down;
type = TopGhost;
},
{
horizontal = 1;
origin = (0,9);
target = (0,8);
type = Stem;
},
{
origin = (0,5);
target = (0,2);
type = Stem;
}
);
layerId = "4E2227F3-52E4-4048-A8EE-327B486EF0A4";
shapes = (
{
closed = 1;
nodes = (
(209,-210,o),
(214,-120,o),
(214,29,cs),
(214,520,l),
(26,520,l),
(26,29,ls),
(26,-19,o),
(11,-49,o),
(-70,-41,c),
(-70,-201,l)
);
},
{
pos = (15,0);
ref = dotaccentcomb;
}
);
width = 236;
},
{
anchors = (
{
name = top;
pos = (131,520);
}
);
layerId = "FFFA8D72-12AC-4CE0-B2CA-57A29829F4DA";
shapes = (
{
closed = 1;
nodes = (
(171,-209,o),
(222,-183,o),
(222,19,cs),
(222,520,l),
(34,520,l),
(34,26,ls),
(34,-41,o),
(10,-52,o),
(-82,-44,c),
(-82,-201,l)
);
},
{
pos = (23,0);
ref = dotaccentcomb;
}
);
width = 254;
},
{
anchors = (
{
name = top;
pos = (75,500);
}
);
layerId = "DCBE1F7B-116A-43E0-B7B4-8657BA77D8B5";
shapes = (
{
closed = 1;
nodes = (
(47,-211,o),
(86,-159,o),
(86,-74,cs),
(86,500,l),
(64,500,l),
(64,-74,ls),
(64,-146,o),
(32,-190,o),
(-24,-190,c),
(-24,-211,l)
);
},
{
pos = (33,0);
ref = dotaccentcomb;
}
);
width = 148;
}
);
unicode = 106;
userData = {
KernOnName = j;
};
},
{
glyphname = jdotless;
layers = (
{
anchors = (
{
name = top;
pos = (78,500);
}
);
layerId = "DCBE1F7B-116A-43E0-B7B4-8657BA77D8B5";
shapes = (
{
closed = 1;
nodes = (
(50,-211,o),
(89,-159,o),
(89,-74,cs),
(89,500,l),
(67,500,l),
(67,-74,ls),
(67,-146,o),
(35,-190,o),
(-21,-190,c),
(-21,-211,l)
);
}
);
width = 151;
},
{
anchors = (
{
name = top;
pos = (116,520);
}
);
hints = (
{
horizontal = 1;
origin = (0,9);
target = up;
type = BottomGhost;
},
{
horizontal = 1;
origin = (0,4);
target = down;
type = TopGhost;
},
{
horizontal = 1;
origin = (0,9);
target = (0,8);
type = Stem;
},
{
origin = (0,5);
target = (0,2);
type = Stem;
}
);
layerId = "4E2227F3-52E4-4048-A8EE-327B486EF0A4";
shapes = (
{
closed = 1;
nodes = (
(205,-210,o),
(210,-120,o),
(210,29,cs),
(210,520,l),
(22,520,l),
(22,29,ls),
(22,-19,o),
(7,-49,o),
(-74,-41,c),
(-74,-201,l)
);
}
);
width = 232;
},
{
anchors = (
{
name = top;
pos = (110,500);
}
);
layerId = "262880E7-CFE1-4BDA-902E-E24798F3240A";
shapes = (
{
closed = 1;
nodes = (
(68,-211,o),
(121,-159,o),
(121,-74,cs),
(121,500,l),
(99,500,l),
(99,-74,ls),
(99,-146,o),
(55,-190,o),
(-18,-190,c),
(-18,-211,l)
);
}
);
width = 212;
},
{
anchors = (
{
name = top;
pos = (155,520);
}
);
layerId = "FFFA8D72-12AC-4CE0-B2CA-57A29829F4DA";
shapes = (
{
closed = 1;
nodes = (
(188,-209,o),
(249,-163,o),
(249,29,cs),
(249,520,l),
(58,520,l),
(61,26,ls),
(61,-38,o),
(37,-52,o),
(-58,-44,c),
(-58,-201,l)
);
}
);
width = 281;
}
);
unicode = 567;
},
{
glyphname = k;
kernLeft = KO_l;
kernRight = KO_k;
layers = (
{
anchors = (
{
name = bottom;
pos = (235,0);
},
{
name = top;
pos = (235,700);
}
);
guides = (
{
angle = 180;
pos = (273,0);
showMeasurement = 1;
}
);
layerId = "262880E7-CFE1-4BDA-902E-E24798F3240A";
shapes = (
{
closed = 1;
nodes = (
(113,0,l),
(113,700,l),
(91,700,l),
(91,0,l)
);
},
{
closed = 1;
nodes = (
(437,0,l),
(275,366,l),
(259,350,l),
(413,0,l)
);
},
{
closed = 1;
nodes = (
(269,353,l),
(274,358,l),
(417,500,l),
(387,500,l),
(108,221,l),
(108,193,l)
);
}
);
width = 469;
},
{
anchors = (
{
name = bottom;
pos = (227,0);
},
{
name = top;
pos = (227,700);
}
);
hints = (
{
horizontal = 1;
origin = (0,2);
type = TTSnap;
},
{
horizontal = 1;
origin = (0,3);
type = TTSnap;
},
{
horizontal = 1;
origin = (2,2);
type = TTSnap;
},
{
horizontal = 1;
options = 4;
origin = (0,3);
target = (1,3);
type = TTShift;
},
{
horizontal = 1;
origin = (0,3);
target = up;
type = BottomGhost;
},
{
horizontal = 1;
origin = (2,3);
target = down;
type = TopGhost;
},
{
horizontal = 1;
origin = (0,2);
target = down;
type = TopGhost;
},
{
origin = (0,3);
target = (0,0);
type = Stem;
}
);
layerId = "4E2227F3-52E4-4048-A8EE-327B486EF0A4";
shapes = (
{
closed = 1;
nodes = (
(210,0,l),
(210,700,l),
(22,700,l),
(22,0,l)
);
},
{
closed = 1;
nodes = (
(469,0,l),
(332,330,l),
(217,180,l),
(275,0,l)
);
},
{
closed = 1;
nodes = (
(228,180,l),
(330,301,l),
(463,520,l),
(268,520,l),
(203,375,l),
(204,121,l)
);
}
);
width = 453;
},
{
anchors = (
{
name = bottom;
pos = (264,0);
},
{
name = top;
pos = (264,700);
}
);
layerId = "FFFA8D72-12AC-4CE0-B2CA-57A29829F4DA";
shapes = (
{
closed = 1;
nodes = (
(220,0,l),
(220,700,l),
(32,700,l),
(32,0,l)
);
},
{
closed = 1;
nodes = (
(546,0,l),
(381,339,l),
(254,223,l),
(348,0,l)
);
},
{
closed = 1;
nodes = (
(269,221,l),
(378,312,l),
(532,520,l),
(318,520,l),
(211,357,l),
(211,133,l)
);
}
);
width = 551;
},
{
anchors = (
{
name = bottom;
pos = (171,0);
},
{
name = top;
pos = (171,700);
}
);
guides = (
{
angle = 180;
pos = (268,0);
showMeasurement = 1;
}
);
layerId = "DCBE1F7B-116A-43E0-B7B4-8657BA77D8B5";
shapes = (
{
closed = 1;
nodes = (
(84,0,l),
(84,700,l),
(62,700,l),
(62,0,l)
);
},
{
closed = 1;
nodes = (
(327,0,l),
(205,369,l),
(190,351,l),
(303,0,l)
);
},
{
closed = 1;
nodes = (
(195,350,l),
(203,358,l),
(311,500,l),
(285,500,l),
(79,226,l),
(79,194,l)
);
}
);
width = 342;
}
);
unicode = 107;
userData = {
KernOnName = k;
};
},
{
glyphname = l;
kernLeft = KO_l;
kernRight = KO_l;
layers = (
{
anchors = (
{
name = top;
pos = (103,700);
}
);
layerId = "262880E7-CFE1-4BDA-902E-E24798F3240A";
shapes = (
{
closed = 1;
nodes = (
(113,0,l),
(113,700,l),
(91,700,l),
(91,0,l)
);
}
);
width = 204;
},
{
anchors = (
{
name = top;
pos = (118,700);
}
);
hints = (
{
horizontal = 1;
origin = (0,2);
type = TTSnap;
},
{
horizontal = 1;
origin = (0,3);
type = TTSnap;
},
{
horizontal = 1;
origin = (0,3);
target = up;
type = BottomGhost;
},
{
horizontal = 1;
origin = (0,2);
target = down;
type = TopGhost;
},
{
origin = (0,3);
target = (0,0);
type = Stem;
}
);
layerId = "4E2227F3-52E4-4048-A8EE-327B486EF0A4";
shapes = (
{
closed = 1;
nodes = (
(210,0,l),
(210,700,l),
(22,700,l),
(22,0,l)
);
}
);
width = 232;
},
{
anchors = (
{
name = top;
pos = (127,700);
}
);
layerId = "FFFA8D72-12AC-4CE0-B2CA-57A29829F4DA";
shapes = (
{
closed = 1;
nodes = (
(220,0,l),
(220,700,l),
(32,700,l),
(32,0,l)
);
}
);
width = 252;
},
{
anchors = (
{
name = top;
pos = (69,700);
}
);
layerId = "DCBE1F7B-116A-43E0-B7B4-8657BA77D8B5";
shapes = (
{
closed = 1;
nodes = (
(80,0,l),
(80,700,l),
(58,700,l),
(58,0,l)
);
}
);
width = 138;
}
);
unicode = 108;
userData = {
KernOnName = l;
};
},
{
glyphname = lslash;
kernLeft = KO_lslash;
kernRight = KO_lslash;
layers = (
{
layerId = "262880E7-CFE1-4BDA-902E-E24798F3240A";
shapes = (
{
closed = 1;
nodes = (
(255,409,l),
(243,428,l),
(32,291,l),
(44,273,l)
);
},
{
pos = (42,0);
ref = l;
}
);
width = 287;
},
{
layerId = "FFFA8D72-12AC-4CE0-B2CA-57A29829F4DA";
shapes = (
{
closed = 1;
nodes = (
(469,401,l),
(403,521,l),
(-10,298,l),
(52,179,l)
);
},
{
pos = (104,0);
ref = l;
}
);
width = 459;
},
{
layerId = "DCBE1F7B-116A-43E0-B7B4-8657BA77D8B5";
shapes = (
{
closed = 1;
nodes = (
(200,379,l),
(188,398,l),
(17,291,l),
(29,273,l)
);
},
{
pos = (35,0);
ref = l;
}
);
width = 216;
},
{
hints = (
{
horizontal = 1;
origin = (0,3);
target = (0,1);
type = Stem;
}
);
layerId = "4E2227F3-52E4-4048-A8EE-327B486EF0A4";
shapes = (
{
closed = 1;
nodes = (
(432,391,l),
(366,511,l),
(-7,308,l),
(55,189,l)
);
},
{
pos = (97,0);
ref = l;
}
);
width = 425;
}
);
unicode = 322;
},
{
color = 3;
glyphname = m;
kernLeft = KO_n;
kernRight = KO_a;
layers = (
{
layerId = "262880E7-CFE1-4BDA-902E-E24798F3240A";
shapes = (
{
closed = 1;
nodes = (
(113,0,l),
(113,346,ls),
(113,433,o),
(170,486,o),
(260,486,cs),
(342,486,o),
(399,432,o),
(399,344,cs),
(399,0,l),
(421,0,l),
(421,346,ls),
(421,433,o),
(479,486,o),
(568,486,cs),
(650,486,o),
(708,432,o),
(708,344,cs),
(708,0,l),
(730,0,l),
(730,347,ls),
(730,446,o),
(664,507,o),
(570,507,cs),
(489,507,o),
(429,468,o),
(411,399,c),
(415,399,l),
(396,467,o),
(338,507,o),
(262,507,cs),
(190,507,o),
(135,476,o),
(110,420,c),
(113,417,l),
(113,500,l),
(91,500,l),
(91,0,l)
);
}
);
width = 817;
},
{
hints = (
{
horizontal = 1;
origin = (0,35);
type = TTSnap;
},
{
horizontal = 1;
origin = (0,36);
type = TTSnap;
},
{
horizontal = 1;
options = 4;
origin = (0,36);
target = (0,8);
type = TTShift;
},
{
horizontal = 1;
options = 4;
origin = (0,36);
target = (0,17);
type = TTShift;
},
{
horizontal = 1;
options = 4;
origin = (0,34);
target = (0,29);
type = TTShift;
},
{
horizontal = 1;
options = 4;
origin = (0,34);
target = (0,22);
type = TTShift;
},
{
horizontal = 1;
origin = (0,29);
stem = -1;
target = (0,4);
type = TTStem;
},
{
horizontal = 1;
origin = (0,22);
stem = -1;
target = (0,14);
type = TTStem;
},
{
horizontal = 1;
origin = (0,36);
target = up;
type = BottomGhost;
},
{
horizontal = 1;
origin = (0,29);
target = down;
type = TopGhost;
},
{
horizontal = 1;
origin = (0,35);
target = (0,4);
type = Stem;
},
{
origin = (0,36);
target = (0,0);
type = Stem;
},
{
origin = (0,8);
target = (0,9);
type = Stem;
},
{
origin = (0,17);
target = (0,18);
type = Stem;
}
);
layerId = "4E2227F3-52E4-4048-A8EE-327B486EF0A4";
shapes = (
{
closed = 1;
nodes = (
(210,0,l),
(210,337,ls),
(210,358,o),
(218,369,o),
(233,369,cs),
(247,369,o),
(254,358,o),
(254,337,cs),
(254,0,l),
(442,0,l),
(442,337,ls),
(442,358,o),
(450,369,o),
(465,369,cs),
(479,369,o),
(486,358,o),
(486,337,cs),
(486,0,l),
(674,0,l),
(674,348,ls),
(674,460,o),
(643,530,o),
(542,530,cs),
(498,530,o),
(417,523,o),
(401,416,c),
(435,416,l),
(420,488,o),
(398,530,o),
(320,530,cs),
(259,530,o),
(211,503,o),
(190,421,c),
(210,420,l),
(210,520,l),
(22,520,l),
(22,0,l)
);
}
);
width = 694;
},
{
layerId = "FFFA8D72-12AC-4CE0-B2CA-57A29829F4DA";
shapes = (
{
closed = 1;
nodes = (
(220,0,l),
(220,312,ls),
(220,350,o),
(243,371,o),
(273,371,cs),
(303,371,o),
(326,344,o),
(326,304,cs),
(326,0,l),
(514,0,l),
(514,304,ls),
(514,344,o),
(536,371,o),
(568,371,cs),
(599,371,o),
(620,344,o),
(620,304,cs),
(620,0,l),
(808,0,l),
(808,345,ls),
(808,464,o),
(746,532,o),
(651,532,cs),
(561,532,o),
(501,485,o),
(484,376,c),
(513,378,l),
(501,476,o),
(439,532,o),
(358,532,cs),
(265,532,o),
(222,485,o),
(204,392,c),
(220,373,l),
(220,520,l),
(32,520,l),
(32,0,l)
);
}
);
width = 836;
},
{
layerId = "DCBE1F7B-116A-43E0-B7B4-8657BA77D8B5";
shapes = (
{
closed = 1;
nodes = (
(84,0,l),
(84,346,ls),
(84,433,o),
(126,486,o),
(191,486,cs),
(250,486,o),
(292,432,o),
(292,344,cs),
(292,0,l),
(314,0,l),
(314,346,ls),
(314,433,o),
(356,486,o),
(420,486,cs),
(500,486,o),
(522,422,o),
(522,344,cs),
(522,0,l),
(544,0,l),
(544,347,ls),
(544,436,o),
(515,507,o),
(425,507,cs),
(367,507,o),
(321,471,o),
(304,406,c),
(308,406,l),
(292,469,o),
(251,507,o),
(195,507,cs),
(143,507,o),
(101,478,o),
(81,426,c),
(84,423,l),
(84,500,l),
(62,500,l),
(62,0,l)
);
}
);
width = 603;
},
{
associatedMasterId = "262880E7-CFE1-4BDA-902E-E24798F3240A";
attr = {
coordinates = (
100,
500
);
};
hints = (
{
horizontal = 1;
origin = (0,36);
target = up;
type = BottomGhost;
}
);
layerId = "3D363A3E-CBEB-46DD-BDC0-952664622760";
name = "{100,500}";
shapes = (
{
closed = 1;
nodes = (
(163,0,l),
(163,327,ls),
(163,392,o),
(203,432,o),
(262,432,cs),
(322,432,o),
(361,391,o),
(361,325,cs),
(361,0,l),
(460,0,l),
(460,327,ls),
(460,392,o),
(502,432,o),
(561,432,cs),
(621,432,o),
(660,391,o),
(660,325,cs),
(660,0,l),
(759,0,l),
(759,346,ls),
(759,455,o),
(697,519,o),
(595,519,cs),
(532,519,o),
(472,495,o),
(440,437,c),
(442,437,l),
(416,490,o),
(366,519,o),
(296,519,cs),
(242,519,o),
(193,501,o),
(162,459,c),
(163,458,l),
(165,511,l),
(65,511,l),
(63,0,l)
);
}
);
width = 819;
},
{
associatedMasterId = "262880E7-CFE1-4BDA-902E-E24798F3240A";
attr = {
coordinates = (
100,
300
);
};
hints = (
{
horizontal = 1;
origin = (0,36);
target = up;
type = BottomGhost;
}
);
layerId = "FD7B5D9B-CA7D-42C3-93E7-F3C4034798D2";
name = "{100,300}";
shapes = (
{
closed = 1;
nodes = (
(142,0,l),
(142,342,ls),
(142,398,o),
(168,431,o),
(210,431,cs),
(248,431,o),
(274,398,o),
(274,341,cs),
(274,0,l),
(373,0,l),
(373,342,ls),
(373,398,o),
(399,431,o),
(441,431,cs),
(479,431,o),
(505,398,o),
(505,341,cs),
(505,0,l),
(604,0,l),
(604,348,ls),
(604,453,o),
(559,518,o),
(474,518,cs),
(435,518,o),
(383,501,o),
(354,445,c),
(356,446,l),
(336,491,o),
(298,518,o),
(244,518,cs),
(212,518,o),
(170,506,o),
(141,469,c),
(142,468,l),
(142,509,l),
(43,509,l),
(43,0,l)
);
}
);
width = 645;
}
);
unicode = 109;
},
{
color = 3;
glyphname = n;
kernLeft = KO_n;
kernRight = KO_a;
layers = (
{
anchors = (
{
name = bottom;
pos = (270,0);
},
{
name = top;
pos = (258,500);
}
);
layerId = "262880E7-CFE1-4BDA-902E-E24798F3240A";
shapes = (
{
closed = 1;
nodes = (
(113,0,l),
(113,339,ls),
(113,426,o),
(174,486,o),
(267,486,cs),
(395,486,o),
(414,411,o),
(414,323,cs),
(414,0,l),
(436,0,l),
(436,326,ls),
(436,425,o),
(409,507,o),
(269,507,cs),
(194,507,o),
(136,472,o),
(110,412,c),
(113,409,l),
(113,500,l),
(91,500,l),
(91,0,l)
);
}
);
width = 523;
},
{
anchors = (
{
name = bottom;
pos = (233,0);
},
{
name = top;
pos = (233,520);
}
);
hints = (
{
horizontal = 1;
origin = (0,19);
type = TTSnap;
},
{
horizontal = 1;
origin = (0,20);
type = TTSnap;
},
{
horizontal = 1;
origin = (0,20);
target = up;
type = BottomGhost;
},
{
horizontal = 1;
origin = (0,19);
target = down;
type = TopGhost;
},
{
origin = (0,20);
target = (0,0);
type = Stem;
},
{
horizontal = 1;
origin = (0,13);
stem = -1;
target = (0,4);
type = TTStem;
},
{
horizontal = 1;
origin = (0,9);
type = TTSnap;
},
{
horizontal = 1;
origin = (0,13);
type = TTSnap;
},
{
origin = (0,8);
target = (0,9);
type = Stem;
},
{
horizontal = 1;
origin = (0,4);
target = (0,13);
type = Stem;
}
);
layerId = "4E2227F3-52E4-4048-A8EE-327B486EF0A4";
shapes = (
{
closed = 1;
nodes = (
(210,0,l),
(210,337,ls),
(210,358,o),
(218,369,o),
(233,369,cs),
(247,369,o),
(254,358,o),
(254,337,cs),
(254,0,l),
(442,0,l),
(442,368,ls),
(442,464,o),
(415,530,o),
(323,530,cs),
(277,530,o),
(203,517,o),
(184,396,c),
(210,399,l),
(210,520,l),
(22,520,l),
(22,0,l)
);
}
);
width = 462;
},
{
anchors = (
{
name = bottom;
pos = (278,0);
},
{
name = top;
pos = (283,520);
}
);
layerId = "FFFA8D72-12AC-4CE0-B2CA-57A29829F4DA";
shapes = (
{
closed = 1;
nodes = (
(220,0,l),
(220,302,ls),
(220,343,o),
(244,371,o),
(280,371,cs),
(318,371,o),
(333,347,o),
(333,308,cs),
(333,0,l),
(521,0,l),
(521,332,ls),
(521,459,o),
(465,532,o),
(352,532,cs),
(270,532,o),
(222,490,o),
(201,405,c),
(220,405,l),
(220,520,l),
(32,520,l),
(32,0,l)
);
}
);
width = 549;
},
{
anchors = (
{
name = bottom;
pos = (193,0);
},
{
name = top;
pos = (190,500);
}
);
layerId = "DCBE1F7B-116A-43E0-B7B4-8657BA77D8B5";
shapes = (
{
closed = 1;
nodes = (
(80,0,l),
(80,346,ls),
(80,433,o),
(124,486,o),
(194,486,cs),
(306,486,o),
(297,386,o),
(297,344,cs),
(297,0,l),
(319,0,l),
(319,357,ls),
(319,430,o),
(303,507,o),
(197,507,cs),
(140,507,o),
(97,477,o),
(78,421,c),
(80,419,l),
(80,500,l),
(58,500,l),
(58,0,l)
);
}
);
width = 374;
},
{
anchors = (
{
name = bottom;
pos = (274,0);
},
{
name = top;
pos = (270,509);
}
);
associatedMasterId = "262880E7-CFE1-4BDA-902E-E24798F3240A";
attr = {
coordinates = (
100,
500
);
};
hints = (
{
horizontal = 1;
origin = (0,19);
type = TTSnap;
},
{
horizontal = 1;
origin = (0,20);
type = TTSnap;
},
{
horizontal = 1;
origin = (0,20);
target = up;
type = BottomGhost;
},
{
horizontal = 1;
origin = (0,19);
target = down;
type = TopGhost;
},
{
origin = (0,20);
target = (0,0);
type = Stem;
},
{
origin = (0,7);
target = (0,10);
type = Stem;
},
{
horizontal = 1;
origin = (0,13);
target = (0,4);
type = Stem;
}
);
layerId = "ED21EE99-0623-46AC-8AD2-45F504CD2179";
name = "{100,  500}";
shapes = (
{
closed = 1;
nodes = (
(163,0,l),
(163,323,ls),
(163,388,o),
(207,432,o),
(272,432,cs),
(343,432,o),
(376,391,o),
(376,322,cs),
(376,0,l),
(476,0,l),
(476,336,ls),
(476,439,o),
(426,519,o),
(305,519,cs),
(240,519,o),
(191,494,o),
(162,448,c),
(163,447,l),
(163,509,l),
(63,509,l),
(63,0,l)
);
}
);
width = 535;
},
{
anchors = (
{
name = bottom;
pos = (212,0);
},
{
name = top;
pos = (210,509);
}
);
associatedMasterId = "262880E7-CFE1-4BDA-902E-E24798F3240A";
attr = {
coordinates = (
100,
300
);
};
hints = (
{
horizontal = 1;
origin = (0,19);
type = TTSnap;
},
{
horizontal = 1;
origin = (0,20);
type = TTSnap;
},
{
horizontal = 1;
origin = (0,20);
target = up;
type = BottomGhost;
},
{
horizontal = 1;
origin = (0,19);
target = down;
type = TopGhost;
},
{
origin = (0,20);
target = (0,0);
type = Stem;
},
{
origin = (0,7);
target = (0,10);
type = Stem;
},
{
horizontal = 1;
origin = (0,13);
target = (0,4);
type = Stem;
}
);
layerId = "04EAF28D-0299-4B67-A913-C3A5A02ABC67";
name = "{100,  300}";
shapes = (
{
closed = 1;
nodes = (
(141,0,l),
(141,342,ls),
(141,398,o),
(168,431,o),
(212,431,cs),
(264,431,o),
(277,400,o),
(277,336,cs),
(277,0,l),
(377,0,l),
(377,343,ls),
(377,427,o),
(365,518,o),
(246,518,cs),
(205,518,o),
(165,504,o),
(140,463,c),
(141,462,l),
(141,509,l),
(41,509,l),
(41,0,l)
);
}
);
width = 415;
}
);
unicode = 110;
userData = {
KernOnName = n;
};
},
{
glyphname = eng;
kernLeft = KO_n;
kernRight = KO_eng;
layers = (
{
layerId = "262880E7-CFE1-4BDA-902E-E24798F3240A";
shapes = (
{
closed = 1;
nodes = (
(393,-161,o),
(436,-105,o),
(436,-24,cs),
(436,200,l),
(414,200,l),
(414,-24,ls),
(414,-92,o),
(380,-140,o),
(317,-140,c),
(317,-161,l)
);
},
{
ref = n;
}
);
width = 523;
},
{
layerId = "FFFA8D72-12AC-4CE0-B2CA-57A29829F4DA";
shapes = (
{
closed = 1;
nodes = (
(486,-203,o),
(521,-143,o),
(521,29,cs),
(521,220,l),
(333,220,l),
(333,23,ls),
(333,-38,o),
(315,-51,o),
(240,-52,c),
(240,-201,l)
);
},
{
ref = n;
}
);
width = 549;
},
{
layerId = "DCBE1F7B-116A-43E0-B7B4-8657BA77D8B5";
shapes = (
{
closed = 1;
nodes = (
(294,-151,o),
(323,-99,o),
(323,-24,cs),
(323,250,l),
(301,250,l),
(301,-24,ls),
(301,-86,o),
(279,-130,o),
(223,-130,c),
(223,-151,l)
);
},
{
ref = n;
}
);
width = 356;
},
{
hints = (
{
horizontal = 1;
origin = (0,9);
target = (0,8);
type = Stem;
},
{
origin = (0,5);
target = (0,2);
type = Stem;
}
);
layerId = "4E2227F3-52E4-4048-A8EE-327B486EF0A4";
shapes = (
{
closed = 1;
nodes = (
(457,-210,o),
(442,-100,o),
(442,29,cs),
(442,220,l),
(254,220,l),
(254,29,ls),
(254,-19,o),
(259,-49,o),
(178,-44,c),
(178,-201,l)
);
},
{
ref = n;
}
);
width = 462;
}
);
unicode = 331;
},
{
color = 3;
glyphname = o;
kernLeft = KO_o;
kernRight = KO_o;
layers = (
{
anchors = (
{
name = bottom;
pos = (247,0);
},
{
name = center;
pos = (247,250);
},
{
name = ogonek;
pos = (457,10);
},
{
name = top;
pos = (246,500);
},
{
name = topright;
pos = (353,500);
}
);
guides = (
{
pos = (239,135);
}
);
layerId = "262880E7-CFE1-4BDA-902E-E24798F3240A";
shapes = (
{
closed = 1;
nodes = (
(339,-8,o),
(407,46,o),
(424,123,cs),
(431,155,o),
(429,191,o),
(429,250,cs),
(429,305,o),
(431,344,o),
(424,377,cs),
(408,454,o),
(339,508,o),
(246,508,cs),
(154,508,o),
(89,454,o),
(71,377,cs),
(64,345,o),
(64,310,o),
(64,251,cs),
(64,195,o),
(63,156,o),
(71,123,cs),
(90,46,o),
(153,-8,o),
(246,-8,cs)
);
},
{
closed = 1;
nodes = (
(161,13,o),
(103,63,o),
(90,135,cs),
(86,156,o),
(86,193,o),
(86,250,cs),
(86,302,o),
(86,343,o),
(90,365,cs),
(103,436,o),
(161,487,o),
(246,487,cs),
(331,487,o),
(391,436,o),
(404,365,cs),
(408,344,o),
(407,307,o),
(407,250,cs),
(407,198,o),
(408,157,o),
(404,135,cs),
(391,64,o),
(331,13,o),
(246,13,cs)
);
}
);
width = 493;
},
{
anchors = (
{
name = bottom;
pos = (228,0);
},
{
name = center;
pos = (228,260);
},
{
name = ogonek;
pos = (412,10);
},
{
name = top;
pos = (229,520);
},
{
name = topright;
pos = (372,520);
}
);
guides = (
{
angle = 39.959;
pos = (295,232);
showMeasurement = 1;
},
{
angle = -39.959;
pos = (162,232);
showMeasurement = 1;
},
{
angle = 39.959;
pos = (295,404);
showMeasurement = 1;
},
{
angle = -180;
pos = (230,260);
showMeasurement = 1;
},
{
angle = -39.959;
pos = (161,404);
showMeasurement = 1;
},
{
pos = (267,170);
},
{
pos = (266,350);
},
{
pos = (268,260);
}
);
hints = (
{
horizontal = 1;
origin = (0,11);
type = TTSnap;
},
{
horizontal = 1;
origin = (0,23);
type = TTSnap;
},
{
horizontal = 1;
origin = (0,11);
stem = -1;
target = (1,11);
type = TTStem;
},
{
horizontal = 1;
origin = (0,23);
stem = -1;
target = (1,23);
type = TTStem;
},
{
horizontal = 1;
origin = (0,23);
target = (1,23);
type = Stem;
},
{
horizontal = 1;
origin = (0,11);
target = (1,11);
type = Stem;
},
{
origin = (0,20);
target = (1,2);
type = Stem;
},
{
origin = (1,20);
target = (0,2);
type = Stem;
}
);
layerId = "4E2227F3-52E4-4048-A8EE-327B486EF0A4";
shapes = (
{
closed = 1;
nodes = (
(364,-10,o),
(440,55,o),
(440,168,cs),
(440,191,o),
(440,237,o),
(440,260,cs),
(440,283,o),
(440,329,o),
(440,352,cs),
(440,458,o),
(364,530,o),
(229,530,cs),
(93,530,o),
(16,458,o),
(16,352,cs),
(16,329,o),
(16,283,o),
(16,260,cs),
(16,237,o),
(16,191,o),
(16,168,cs),
(16,55,o),
(93,-10,o),
(229,-10,cs)
);
},
{
closed = 1;
nodes = (
(211,151,o),
(204,164,o),
(204,183,cs),
(204,208,o),
(204,235,o),
(204,260,cs),
(204,285,o),
(204,312,o),
(204,337,cs),
(204,356,o),
(211,369,o),
(228,369,cs),
(245,369,o),
(252,356,o),
(252,337,cs),
(252,312,o),
(252,285,o),
(252,260,cs),
(252,235,o),
(252,208,o),
(252,183,cs),
(252,164,o),
(245,151,o),
(228,151,cs)
);
}
);
width = 456;
},
{
anchors = (
{
name = bottom;
pos = (277,0);
},
{
name = center;
pos = (277,266);
},
{
name = ogonek;
pos = (500,10);
},
{
name = top;
pos = (277,532);
},
{
name = topright;
pos = (437,532);
}
);
guides = (
{
pos = (755,79);
},
{
pos = (1215,267);
},
{
pos = (1035,193);
},
{
pos = (1303,306);
},
{
pos = (836,113);
}
);
layerId = "FFFA8D72-12AC-4CE0-B2CA-57A29829F4DA";
shapes = (
{
closed = 1;
nodes = (
(402,-12,o),
(491,58,o),
(522,169,cs),
(531,201,o),
(534,230,o),
(534,259,cs),
(534,293,o),
(530,323,o),
(522,351,cs),
(491,462,o),
(402,532,o),
(278,532,cs),
(154,532,o),
(65,462,o),
(34,351,cs),
(26,323,o),
(22,295,o),
(22,261,cs),
(22,226,o),
(26,197,o),
(34,169,cs),
(65,58,o),
(154,-12,o),
(278,-12,cs)
);
},
{
closed = 1;
nodes = (
(243,149,o),
(223,174,o),
(215,210,cs),
(211,227,o),
(210,242,o),
(210,260,cs),
(210,275,o),
(211,294,o),
(215,310,cs),
(223,346,o),
(243,371,o),
(278,371,cs),
(313,371,o),
(333,346,o),
(341,310,cs),
(345,294,o),
(346,275,o),
(346,260,cs),
(346,242,o),
(345,227,o),
(341,210,cs),
(333,174,o),
(313,149,o),
(278,149,cs)
);
}
);
width = 556;
},
{
anchors = (
{
name = bottom;
pos = (183,0);
},
{
name = center;
pos = (183,250);
},
{
name = ogonek;
pos = (340,10);
},
{
name = top;
pos = (182,500);
},
{
name = topright;
pos = (275,500);
}
);
guides = (
{
angle = 66;
pos = (183,250);
showMeasurement = 1;
},
{
angle = 112;
pos = (182,250);
showMeasurement = 1;
},
{
angle = -180;
pos = (182,250);
showMeasurement = 1;
}
);
layerId = "DCBE1F7B-116A-43E0-B7B4-8657BA77D8B5";
shapes = (
{
closed = 1;
nodes = (
(262,-8,o),
(317,52,o),
(317,135,cs),
(317,173,o),
(317,212,o),
(317,250,cs),
(317,288,o),
(317,327,o),
(317,365,cs),
(317,448,o),
(262,508,o),
(182,508,cs),
(103,508,o),
(48,448,o),
(48,365,cs),
(48,327,o),
(48,288,o),
(48,250,cs),
(48,212,o),
(48,173,o),
(48,135,cs),
(48,52,o),
(103,-8,o),
(182,-8,cs)
);
},
{
closed = 1;
nodes = (
(116,13,o),
(70,63,o),
(70,135,cs),
(70,173,o),
(70,212,o),
(70,250,cs),
(70,288,o),
(70,327,o),
(70,365,cs),
(70,437,o),
(116,487,o),
(182,487,cs),
(249,487,o),
(295,437,o),
(295,365,cs),
(295,327,o),
(295,288,o),
(295,250,cs),
(295,212,o),
(295,173,o),
(295,135,cs),
(295,63,o),
(249,13,o),
(182,13,cs)
);
}
);
width = 365;
},
{
anchors = (
{
name = bottom;
pos = (269,0);
},
{
name = center;
pos = (269,255);
},
{
name = ogonek;
pos = (491,10);
},
{
name = top;
pos = (268,509);
},
{
name = topright;
pos = (371,509);
}
);
associatedMasterId = "DCBE1F7B-116A-43E0-B7B4-8657BA77D8B5";
attr = {
coordinates = (
100,
500
);
};
guides = (
{
angle = 66;
pos = (192,250);
showMeasurement = 1;
},
{
angle = 112;
pos = (191,250);
showMeasurement = 1;
},
{
angle = -180;
pos = (191,250);
showMeasurement = 1;
}
);
layerId = "22FBC3BF-9A53-4197-B8D5-FFF91FDE2E33";
name = "{100,500}";
shapes = (
{
closed = 1;
nodes = (
(367,-10,o),
(443,43,o),
(474,133,cs),
(486,168,o),
(493,211,o),
(493,257,cs),
(493,301,o),
(486,345,o),
(474,379,cs),
(443,467,o),
(368,519,o),
(271,519,cs),
(168,519,o),
(91,467,o),
(61,378,cs),
(50,346,o),
(44,301,o),
(44,256,cs),
(44,211,o),
(51,166,o),
(62,133,cs),
(92,43,o),
(170,-10,o),
(270,-10,cs)
);
},
{
closed = 1;
nodes = (
(214,76,o),
(172,107,o),
(156,160,cs),
(149,183,o),
(145,218,o),
(145,255,cs),
(145,293,o),
(149,327,o),
(156,349,cs),
(173,402,o),
(214,433,o),
(268,433,cs),
(323,433,o),
(364,402,o),
(381,349,cs),
(388,327,o),
(392,293,o),
(392,255,cs),
(392,220,o),
(388,185,o),
(380,160,cs),
(363,107,o),
(322,76,o),
(270,76,cs)
);
}
);
width = 538;
},
{
anchors = (
{
name = bottom;
pos = (215,0);
},
{
name = center;
pos = (215,257);
},
{
name = ogonek;
pos = (391,10);
},
{
name = top;
pos = (215,514);
},
{
name = topright;
pos = (344,514);
}
);
associatedMasterId = "DCBE1F7B-116A-43E0-B7B4-8657BA77D8B5";
attr = {
coordinates = (
140,
300
);
};
guides = (
{
angle = 66;
pos = (196,250);
showMeasurement = 1;
},
{
angle = 112;
pos = (195,250);
showMeasurement = 1;
},
{
angle = -180;
pos = (195,250);
showMeasurement = 1;
}
);
hints = (
{
horizontal = 1;
origin = (0,11);
type = TTSnap;
},
{
horizontal = 1;
origin = (0,23);
type = TTSnap;
},
{
horizontal = 1;
origin = (0,11);
stem = -1;
target = (1,11);
type = TTStem;
},
{
horizontal = 1;
origin = (0,23);
stem = -1;
target = (1,23);
type = TTStem;
},
{
horizontal = 1;
origin = (0,23);
target = (1,23);
type = Stem;
},
{
horizontal = 1;
origin = (0,11);
target = (1,11);
type = Stem;
},
{
origin = (0,20);
target = (1,2);
type = Stem;
},
{
origin = (1,20);
target = (0,2);
type = Stem;
}
);
layerId = "EA1AB241-8DA3-4100-8058-CF0ADAFE7BDD";
name = "{140,300}";
shapes = (
{
closed = 1;
nodes = (
(335,-9,o),
(404,54,o),
(404,158,cs),
(404,186,o),
(404,230,o),
(404,257,cs),
(404,284,o),
(404,328,o),
(404,356,cs),
(404,455,o),
(335,524,o),
(215,524,cs),
(96,524,o),
(25,455,o),
(25,356,cs),
(25,328,o),
(25,284,o),
(25,257,cs),
(25,230,o),
(25,186,o),
(25,158,cs),
(25,54,o),
(96,-9,o),
(215,-9,cs)
);
},
{
closed = 1;
nodes = (
(184,111,o),
(165,135,o),
(165,169,cs),
(165,198,o),
(165,228,o),
(165,257,cs),
(165,286,o),
(165,316,o),
(165,345,cs),
(165,379,o),
(184,403,o),
(215,403,cs),
(246,403,o),
(264,379,o),
(264,345,cs),
(264,316,o),
(264,286,o),
(264,257,cs),
(264,228,o),
(264,198,o),
(264,169,cs),
(264,135,o),
(246,111,o),
(215,111,cs)
);
}
);
width = 430;
}
);
unicode = 111;
userData = {
KernOnName = o;
};
},
{
color = 3;
glyphname = oslash;
kernLeft = KO_oslash;
kernRight = KO_oslash;
layers = (
{
layerId = "262880E7-CFE1-4BDA-902E-E24798F3240A";
shapes = (
{
closed = 1;
nodes = (
(441,510,l),
(422,522,l),
(76,-1,l),
(94,-13,l)
);
},
{
ref = o;
}
);
width = 505;
},
{
layerId = "FFFA8D72-12AC-4CE0-B2CA-57A29829F4DA";
shapes = (
{
closed = 1;
nodes = (
(551,498,l),
(481,552,l),
(17,2,l),
(87,-52,l)
);
},
{
pos = (5,0);
ref = o;
}
);
width = 568;
},
{
layerId = "DCBE1F7B-116A-43E0-B7B4-8657BA77D8B5";
shapes = (
{
closed = 1;
nodes = (
(325,547,l),
(305,556,l),
(76,-41,l),
(96,-50,l)
);
},
{
ref = o;
}
);
width = 373;
},
{
hints = (
{
origin = (0,2);
target = (0,0);
type = Stem;
}
);
layerId = "4E2227F3-52E4-4048-A8EE-327B486EF0A4";
shapes = (
{
closed = 1;
nodes = (
(487,505,l),
(434,539,l),
(16,4,l),
(67,-30,l)
);
},
{
pos = (21,0);
ref = o;
}
);
width = 503;
}
);
unicode = 248;
},
{
color = 3;
glyphname = oe;
kernLeft = KO_o;
kernRight = KO_e;
layers = (
{
layerId = "262880E7-CFE1-4BDA-902E-E24798F3240A";
shapes = (
{
closed = 1;
nodes = (
(337,-8,o),
(405,49,o),
(420,126,cs),
(426,158,o),
(425,191,o),
(425,250,cs),
(425,305,o),
(426,341,o),
(420,374,cs),
(405,451,o),
(337,508,o),
(247,508,cs),
(158,508,o),
(94,454,o),
(77,377,cs),
(69,345,o),
(70,310,o),
(70,251,cs),
(70,195,o),
(69,156,o),
(77,123,cs),
(95,46,o),
(157,-8,o),
(247,-8,cs)
);
},
{
closed = 1;
nodes = (
(165,13,o),
(109,63,o),
(96,135,cs),
(92,156,o),
(92,193,o),
(92,250,cs),
(92,302,o),
(92,343,o),
(96,365,cs),
(109,436,o),
(165,487,o),
(247,487,cs),
(329,487,o),
(387,436,o),
(400,365,cs),
(404,344,o),
(403,307,o),
(403,250,cs),
(403,198,o),
(404,157,o),
(400,135,cs),
(387,64,o),
(329,13,o),
(247,13,cs)
);
},
{
closed = 1;
nodes = (
(669,-8,o),
(733,44,o),
(752,118,c),
(730,118,l),
(712,56,o),
(657,13,o),
(581,13,cs),
(499,13,o),
(443,63,o),
(430,135,cs),
(426,156,o),
(426,193,o),
(426,250,cs),
(426,302,o),
(426,343,o),
(430,365,cs),
(443,436,o),
(499,487,o),
(581,487,cs),
(663,487,o),
(720,436,o),
(734,365,cs),
(737,345,o),
(738,302,o),
(738,258,c),
(747,270,l),
(416,270,l),
(416,252,l),
(760,252,l),
(760,336,o),
(760,351,o),
(754,377,cs),
(736,454,o),
(671,508,o),
(581,508,cs),
(492,508,o),
(426,451,o),
(411,374,cs),
(405,342,o),
(404,310,o),
(404,251,cs),
(404,195,o),
(404,159,o),
(411,126,cs),
(427,49,o),
(492,-8,o),
(581,-8,cs)
);
}
);
width = 822;
},
{
layerId = "FFFA8D72-12AC-4CE0-B2CA-57A29829F4DA";
shapes = (
{
closed = 1;
nodes = (
(390,-8,o),
(458,75,o),
(494,169,cs),
(506,200,o),
(514,218,o),
(514,263,cs),
(514,304,o),
(507,323,o),
(494,356,cs),
(454,457,o),
(383,528,o),
(271,528,cs),
(160,528,o),
(73,470,o),
(37,376,cs),
(23,340,o),
(17,300,o),
(17,261,cs),
(17,226,o),
(22,188,o),
(37,149,cs),
(74,52,o),
(160,-8,o),
(270,-8,cs)
);
},
{
closed = 1;
nodes = (
(248,153,o),
(231,163,o),
(220,184,cs),
(211,202,o),
(206,228,o),
(206,262,cs),
(206,295,o),
(211,320,o),
(220,337,cs),
(231,357,o),
(248,367,o),
(270,367,cs),
(292,367,o),
(309,357,o),
(319,337,cs),
(329,320,o),
(334,295,o),
(334,262,cs),
(334,228,o),
(329,202,o),
(319,184,cs),
(309,163,o),
(292,153,o),
(270,153,cs)
);
},
{
closed = 1;
nodes = (
(709,-8,o),
(779,23,o),
(834,81,c),
(741,196,l),
(721,170,o),
(677,149,o),
(631,149,cs),
(589,149,o),
(561,162,o),
(548,193,cs),
(540,210,o),
(537,233,o),
(537,262,cs),
(537,286,o),
(541,309,o),
(548,327,cs),
(558,351,o),
(578,367,o),
(606,367,cs),
(633,367,o),
(649,351,o),
(659,327,cs),
(666,310,o),
(669,287,o),
(669,262,c),
(740,305,l),
(483,305,l),
(483,216,l),
(858,216,l),
(858,299,o),
(850,343,o),
(839,373,cs),
(806,462,o),
(715,528,o),
(601,528,cs),
(485,528,o),
(415,451,o),
(378,355,cs),
(364,319,o),
(358,300,o),
(358,262,cs),
(358,219,o),
(366,201,o),
(378,169,cs),
(416,68,o),
(480,-8,o),
(616,-8,cs)
);
}
);
width = 873;
},
{
layerId = "DCBE1F7B-116A-43E0-B7B4-8657BA77D8B5";
shapes = (
{
closed = 1;
nodes = (
(262,-8,o),
(313,52,o),
(317,135,cs),
(319,173,o),
(317,212,o),
(317,250,cs),
(317,288,o),
(319,327,o),
(317,365,cs),
(313,448,o),
(262,508,o),
(182,508,cs),
(103,508,o),
(48,448,o),
(48,365,cs),
(48,327,o),
(48,288,o),
(48,250,cs),
(48,212,o),
(48,173,o),
(48,135,cs),
(48,52,o),
(103,-8,o),
(182,-8,cs)
);
},
{
closed = 1;
nodes = (
(116,13,o),
(70,63,o),
(70,135,cs),
(70,173,o),
(70,212,o),
(70,250,cs),
(70,288,o),
(70,327,o),
(70,365,cs),
(70,437,o),
(116,487,o),
(182,487,cs),
(249,487,o),
(295,437,o),
(295,365,cs),
(295,327,o),
(295,288,o),
(295,250,cs),
(295,212,o),
(295,173,o),
(295,135,cs),
(295,63,o),
(249,13,o),
(182,13,cs)
);
},
{
closed = 1;
nodes = (
(500,-8,o),
(552,40,o),
(562,109,c),
(540,109,l),
(530,51,o),
(487,13,o),
(429,13,cs),
(363,13,o),
(317,63,o),
(317,135,cs),
(317,173,o),
(317,212,o),
(317,250,cs),
(317,288,o),
(317,327,o),
(317,365,cs),
(317,437,o),
(363,487,o),
(429,487,cs),
(496,487,o),
(542,437,o),
(542,365,cs),
(542,327,o),
(542,288,o),
(542,261,c),
(551,267,l),
(309,267,l),
(309,249,l),
(564,249,l),
(564,289,o),
(564,327,o),
(564,365,cs),
(564,448,o),
(509,508,o),
(429,508,cs),
(350,508,o),
(299,448,o),
(295,365,cs),
(293,327,o),
(295,288,o),
(295,250,cs),
(295,212,o),
(293,173,o),
(295,135,cs),
(299,52,o),
(350,-8,o),
(429,-8,cs)
);
}
);
width = 607;
},
{
hints = (
{
horizontal = 1;
origin = (0,11);
stem = -1;
target = (1,11);
type = TTStem;
},
{
horizontal = 1;
origin = (0,23);
stem = -1;
target = (1,23);
type = TTStem;
},
{
horizontal = 1;
origin = (2,46);
stem = -1;
target = (2,6);
type = TTStem;
},
{
horizontal = 1;
origin = (2,34);
stem = -1;
target = (2,18);
type = TTStem;
},
{
horizontal = 1;
origin = (0,11);
type = TTSnap;
},
{
horizontal = 1;
options = 4;
origin = (0,11);
target = (2,34);
type = TTShift;
},
{
horizontal = 1;
options = 4;
origin = (0,23);
target = (2,46);
type = TTShift;
},
{
horizontal = 1;
origin = (0,23);
target = (1,23);
type = Stem;
},
{
horizontal = 1;
origin = (2,27);
target = (2,26);
type = Stem;
},
{
horizontal = 1;
origin = (0,11);
target = (1,11);
type = Stem;
},
{
origin = (0,20);
target = (1,2);
type = Stem;
},
{
origin = (1,20);
target = (2,9);
type = Stem;
},
{
origin = (2,24);
target = (2,28);
type = Stem;
}
);
layerId = "4E2227F3-52E4-4048-A8EE-327B486EF0A4";
shapes = (
{
closed = 1;
nodes = (
(365,-10,o),
(401,96,o),
(441,210,cs),
(449,232,o),
(441,237,o),
(441,260,cs),
(441,283,o),
(449,289,o),
(441,310,cs),
(401,417,o),
(365,530,o),
(229,530,cs),
(93,530,o),
(16,457,o),
(16,350,cs),
(16,327,o),
(16,283,o),
(16,260,cs),
(16,237,o),
(16,193,o),
(16,170,cs),
(16,56,o),
(93,-10,o),
(229,-10,cs)
);
},
{
closed = 1;
nodes = (
(214,151,o),
(204,164,o),
(204,183,cs),
(204,208,o),
(204,235,o),
(204,260,cs),
(204,285,o),
(204,312,o),
(204,337,cs),
(204,356,o),
(214,369,o),
(229,369,cs),
(243,369,o),
(253,356,o),
(253,337,cs),
(253,312,o),
(253,285,o),
(253,260,cs),
(253,235,o),
(253,208,o),
(253,183,cs),
(253,164,o),
(243,151,o),
(229,151,cs)
);
},
{
closed = 1;
nodes = (
(627,-10,o),
(692,59,o),
(694,181,c),
(513,190,l),
(513,174,o),
(507,151,o),
(488,151,cs),
(472,151,o),
(463,164,o),
(463,183,cs),
(463,209,o),
(463,234,o),
(463,260,cs),
(463,285,o),
(463,312,o),
(463,337,cs),
(463,356,o),
(472,369,o),
(486,369,cs),
(499,369,o),
(508,356,o),
(508,337,cs),
(508,318,o),
(508,298,o),
(508,279,c),
(571,305,l),
(413,305,l),
(413,213,l),
(696,213,l),
(696,221,o),
(696,291,o),
(696,350,cs),
(696,457,o),
(620,530,o),
(486,530,cs),
(352,530,o),
(315,417,o),
(275,310,cs),
(267,289,o),
(275,283,o),
(275,260,cs),
(275,230,o),
(265,238,o),
(275,210,cs),
(315,96,o),
(352,-10,o),
(486,-10,cs)
);
}
);
width = 710;
},
{
associatedMasterId = "FFFA8D72-12AC-4CE0-B2CA-57A29829F4DA";
attr = {
coordinates = (
140,
500
);
};
hints = (
{
horizontal = 1;
origin = (0,23);
target = (2,6);
type = Stem;
},
{
horizontal = 1;
origin = (2,27);
target = (2,26);
type = Stem;
},
{
horizontal = 1;
origin = (0,11);
target = (1,11);
type = Stem;
},
{
horizontal = 1;
origin = (0,23);
target = (1,23);
type = Stem;
},
{
origin = (0,17);
target = (1,5);
type = Stem;
},
{
place = (358, 153);
place = (358, 153);
type = Stem;
}
);
layerId = "B919F7AB-983C-4A6F-8B3E-D89048AE680C";
name = "{140,500}";
shapes = (
{
closed = 1;
nodes = (
(368,-8,o),
(450,67,o),
(480,156,cs),
(490,188,o),
(496,210,o),
(496,259,cs),
(496,304,o),
(491,328,o),
(480,361,cs),
(447,455,o),
(363,522,o),
(264,522,cs),
(161,522,o),
(79,465,o),
(48,376,cs),
(37,344,o),
(32,306,o),
(32,259,cs),
(32,215,o),
(36,177,o),
(48,141,cs),
(80,50,o),
(161,-8,o),
(264,-8,cs)
);
},
{
closed = 1;
nodes = (
(224,112,o),
(195,137,o),
(184,176,cs),
(177,196,o),
(173,223,o),
(173,259,cs),
(173,292,o),
(176,320,o),
(183,339,cs),
(195,376,o),
(224,402,o),
(264,402,cs),
(303,402,o),
(333,377,o),
(344,339,cs),
(351,321,o),
(354,294,o),
(354,259,cs),
(354,224,o),
(351,195,o),
(344,176,cs),
(333,138,o),
(303,112,o),
(264,112,cs)
);
},
{
closed = 1;
nodes = (
(697,-8,o),
(766,29,o),
(810,92,c),
(722,167,l),
(702,131,o),
(658,109,o),
(624,109,cs),
(563,109,o),
(527,133,o),
(514,176,cs),
(507,194,o),
(505,221,o),
(505,259,cs),
(505,291,o),
(508,319,o),
(514,338,cs),
(525,376,o),
(554,402,o),
(597,402,cs),
(640,402,o),
(670,376,o),
(681,338,cs),
(687,320,o),
(689,291,o),
(689,261,c),
(742,304,l),
(464,304,l),
(464,208,l),
(830,208,l),
(830,294,o),
(824,345,o),
(814,374,cs),
(786,460,o),
(702,522,o),
(595,522,cs),
(494,522,o),
(411,451,o),
(381,361,cs),
(369,326,o),
(364,303,o),
(364,259,cs),
(364,212,o),
(370,189,o),
(381,156,cs),
(412,62,o),
(491,-8,o),
(606,-8,cs)
);
}
);
width = 858;
},
{
associatedMasterId = "FFFA8D72-12AC-4CE0-B2CA-57A29829F4DA";
attr = {
coordinates = (
140,
300
);
};
hints = (
{
horizontal = 1;
origin = (0,23);
target = (1,23);
type = Stem;
},
{
horizontal = 1;
origin = (2,27);
target = (2,26);
type = Stem;
},
{
horizontal = 1;
origin = (0,11);
target = (1,11);
type = Stem;
},
{
origin = (0,20);
target = (1,2);
type = Stem;
},
{
origin = (1,20);
target = (2,9);
type = Stem;
},
{
origin = (2,24);
target = (2,28);
type = Stem;
},
{
origin = (2,3);
target = (2,2);
type = Stem;
}
);
layerId = "DC9AEC88-6814-4214-BBCA-94A22AA36547";
name = "{140,300}";
shapes = (
{
closed = 1;
nodes = (
(335,-8,o),
(375,84,o),
(405,188,cs),
(411,215,o),
(405,230,o),
(405,257,cs),
(405,284,o),
(411,300,o),
(405,326,cs),
(375,425,o),
(335,522,o),
(215,522,cs),
(96,522,o),
(25,454,o),
(25,354,cs),
(25,327,o),
(25,284,o),
(25,257,cs),
(25,230,o),
(25,187,o),
(25,160,cs),
(25,56,o),
(96,-8,o),
(215,-8,cs)
);
},
{
closed = 1;
nodes = (
(185,112,o),
(165,136,o),
(165,170,cs),
(165,199,o),
(165,228,o),
(165,257,cs),
(165,286,o),
(165,315,o),
(165,344,cs),
(165,378,o),
(185,402,o),
(215,402,cs),
(245,402,o),
(265,378,o),
(265,344,cs),
(265,315,o),
(265,286,o),
(265,257,cs),
(265,228,o),
(265,199,o),
(265,170,cs),
(265,136,o),
(245,112,o),
(215,112,cs)
);
},
{
closed = 1;
nodes = (
(590,-8,o),
(651,54,o),
(655,160,c),
(519,168,l),
(516,140,o),
(500,112,o),
(469,112,cs),
(440,112,o),
(420,136,o),
(420,170,cs),
(420,199,o),
(420,228,o),
(420,257,cs),
(420,286,o),
(420,315,o),
(420,344,cs),
(420,378,o),
(440,402,o),
(469,402,cs),
(498,402,o),
(518,378,o),
(518,344,cs),
(518,319,o),
(518,295,o),
(518,274,c),
(565,304,l),
(383,304,l),
(383,210,l),
(657,210,l),
(657,228,o),
(657,301,o),
(657,354,cs),
(657,454,o),
(587,522,o),
(469,522,cs),
(351,522,o),
(310,425,o),
(281,326,cs),
(274,300,o),
(281,284,o),
(281,257,cs),
(281,225,o),
(273,219,o),
(281,188,cs),
(310,84,o),
(351,-8,o),
(469,-8,cs)
);
}
);
width = 679;
}
);
unicode = 339;
},
